<svg width="229" height="299" viewBox="0 0 229 299" fill="none" xmlns="http://www.w3.org/2000/svg">
<path d="M108.202 2.50524C89.6696 3.0061 89.6696 37.5657 89.6696 37.5657L39.5833 161.279C39.5833 161.279 1.5177 178.809 2.51943 206.357C3.52116 233.904 54.1083 247.427 54.1083 247.427C54.1083 247.427 83.1584 298.515 119.221 296.011C155.283 293.507 176.82 247.427 176.82 247.427C176.82 247.427 222.398 238.913 225.904 206.357C229.41 173.8 176.82 161.279 176.82 161.279L129.238 37.5657C129.238 37.5657 126.734 2.00438 108.202 2.50524Z" fill="#FF8CBD" stroke="black" stroke-width="5"/>
<path d="M5.02344 211.861C5.02344 211.861 30.5675 203.847 43.5899 211.861C56.6124 219.875 53.1063 247.426 53.1063 247.426" stroke="black" stroke-width="5"/>
<path d="M226.902 211.416C226.902 211.416 203.362 203.402 190.339 211.416C177.317 219.43 177.317 246.477 177.317 246.477" stroke="black" stroke-width="5"/>
</svg>
