<svg width="171" height="172" viewBox="0 0 171 172" fill="none" xmlns="http://www.w3.org/2000/svg">
<path d="M168.967 83.5317L132.264 76.8422L114.867 73.6734C106.168 72.0538 99.3084 65.2938 97.7525 56.6326L94.358 38.3947L87.6396 1.84844C87.2153 -0.616146 83.6085 -0.616146 83.1842 1.84844L76.4659 38.3947L73.0713 56.6326C71.4447 65.2938 64.6556 72.1242 55.9571 73.6734L38.56 76.8422L1.8564 83.5317C-0.618799 83.9542 -0.618799 87.5455 1.8564 87.968L38.3479 94.728L55.7449 97.8968C64.4435 99.5163 71.3033 106.276 72.8591 114.938L76.2537 133.175L82.9721 169.722C83.3964 172.186 87.0031 172.186 87.4274 169.722L94.1458 133.175L97.5403 114.938C99.1669 106.276 105.956 99.4459 114.655 97.8968L132.264 94.728L168.967 88.0384C171.443 87.5455 171.443 84.0247 168.967 83.5317Z" fill="white"/>
</svg>
