<svg width="280" height="115" viewBox="0 0 280 115" fill="none" xmlns="http://www.w3.org/2000/svg">
<path d="M77.2416 0.165548C89.9981 -1.04655 101.842 4.55728 111.731 11.7382C121.768 19.027 131.235 28.9878 139.641 39.047C148.095 49.1631 155.866 59.8589 162.351 68.8083C169.123 78.1535 173.997 84.8636 177.265 88.2461C177.231 88.2109 178.177 89.0682 181.482 89.9815C184.562 90.8327 188.687 91.4617 193.751 91.8177C203.859 92.5281 216.301 92.0653 228.669 91.0595C240.958 90.0601 252.812 88.5561 261.62 87.2962C266.015 86.6675 269.633 86.1023 272.143 85.6958C273.398 85.4926 274.375 85.329 275.033 85.2174C275.361 85.1616 275.61 85.1186 275.774 85.0902C275.856 85.076 275.917 85.0657 275.956 85.0589C275.975 85.0556 275.989 85.0526 275.997 85.0511C276.001 85.0504 276.005 85.0504 276.006 85.0501L276.007 85.0491C276.007 85.0492 276.006 85.0498 277.921 95.9009C279.784 106.454 279.834 106.744 279.834 106.753C279.833 106.753 279.83 106.753 279.828 106.754C279.824 106.754 279.818 106.755 279.811 106.756C279.797 106.759 279.778 106.763 279.753 106.767C279.702 106.776 279.629 106.788 279.536 106.804C279.348 106.837 279.073 106.884 278.719 106.944C278.01 107.065 276.978 107.238 275.666 107.45C273.041 107.875 269.288 108.462 264.741 109.112C255.661 110.411 243.334 111.977 230.455 113.024C217.654 114.065 203.939 114.626 192.205 113.801C186.349 113.389 180.632 112.611 175.611 111.223C170.816 109.898 165.403 107.686 161.414 103.557C156.773 98.7514 150.745 90.3501 144.506 81.7397C137.98 72.7335 130.628 62.6287 122.731 53.1788C114.786 43.6721 106.672 35.3008 98.7816 29.5707C90.7426 23.7329 84.3103 21.6312 79.3262 22.1047C73.0687 22.6994 66.1578 25.7192 58.9033 30.8248C51.7204 35.8802 44.8581 42.517 38.8072 49.3343C32.7874 56.1164 27.7785 62.8403 24.2684 67.8858C22.5196 70.3996 21.1577 72.475 20.2439 73.904C19.7875 74.6177 19.444 75.1687 19.2207 75.5308C19.109 75.7118 19.0274 75.846 18.9771 75.9289C18.952 75.9703 18.9347 75.9993 18.9252 76.015C18.9224 76.0198 18.9188 76.0225 18.9174 76.0248C18.8959 76.0099 18.4477 75.7404 9.45872 70.3754C-0.00318122 64.7282 -0.0014379 64.7256 3.69486e-05 64.7231C0.000714858 64.722 0.00173151 64.7193 0.00297169 64.7172C0.00558309 64.7129 0.00914929 64.7076 0.0127542 64.7016C0.0200834 64.6893 0.0297444 64.6735 0.0411234 64.6546C0.0639934 64.6166 0.0950404 64.5644 0.134057 64.5001C0.212069 64.3714 0.321653 64.1908 0.462749 63.962C0.745182 63.5041 1.15326 62.8521 1.67773 62.0319C2.72607 60.3925 4.24618 58.076 6.17768 55.2996C10.0284 49.7645 15.5734 42.3108 22.3246 34.7046C29.0448 27.1334 37.1712 19.1707 46.2194 12.8026C55.1958 6.48492 65.7586 1.25675 77.2416 0.165548ZM18.9184 76.0258L18.9164 76.0287C18.9167 76.0282 18.9166 76.0262 18.9174 76.0248C18.9185 76.0256 18.9184 76.0257 18.9184 76.0258Z" fill="black"/>
</svg>
