<svg width="198" height="291" viewBox="0 0 198 291" fill="none" xmlns="http://www.w3.org/2000/svg">
<path d="M184.042 66.2648C195.136 90.3095 195.136 134.88 195.136 160.928C195.136 186.976 183.537 265.608 160.845 276.627C138.152 287.646 94.7836 287.646 94.7836 287.646C94.7836 287.646 57.971 287.646 45.8683 276.627C33.7655 265.608 33.7655 255.09 33.7655 238.061C33.7655 221.031 47.8854 194.993 48.894 178.962C49.9025 162.931 43.8511 145.398 33.7655 130.375C23.6798 115.353 2.5 97.8192 2.5 73.2769C2.5 48.7346 8.55139 27.6983 26.7055 12.6724C44.8597 -2.35346 88.7322 0.654985 118.989 12.6724C149.246 24.6899 172.947 42.2201 184.042 66.2648Z" fill="#F7DE1C" stroke="black" stroke-width="5"/>
<path d="M157.314 110.847C157.314 110.847 152.271 65.2707 122.518 44.2322C92.7657 23.1938 62.5088 29.7072 49.3975 44.2322C36.2862 58.7573 38.3033 79.7935 49.3975 96.8229C60.4917 113.852 85.7058 130.882 91.7572 153.921C97.8085 176.961 81.6715 214.028 78.6458 229.051C75.6201 244.074 78.6458 256.097 91.7572 262.609C104.868 269.12 134.621 267.119 143.194 256.097C151.767 245.076 157.314 220.035 157.314 220.035" stroke="black" stroke-width="5"/>
<path d="M157.315 110.345C158.828 120.863 157.315 117.357 146.725 122.867C136.135 128.376 117.981 146.407 127.563 167.444C137.144 188.48 147.23 191.485 153.785 198.497C160.341 205.509 156.811 222.038 156.811 222.038" stroke="black" stroke-width="5"/>
</svg>
