<svg width="218" height="218" viewBox="0 0 218 218" fill="none" xmlns="http://www.w3.org/2000/svg">
<circle cx="108.687" cy="108.687" r="106.187" fill="white" stroke="black" stroke-width="5"/>
<mask id="path-2-inside-1_115_998" fill="white">
<path d="M136.74 52.0913C167.998 52.0914 193.338 77.4311 193.338 108.689C193.338 139.947 167.998 165.287 136.74 165.287C126.534 165.287 116.959 162.584 108.69 157.857C100.422 162.584 90.8471 165.287 80.6406 165.287C49.3827 165.287 24.043 139.947 24.043 108.689C24.0431 77.4311 49.3827 52.0913 80.6406 52.0913C90.8469 52.0913 100.422 54.793 108.69 59.52C116.959 54.793 126.534 52.0913 136.74 52.0913Z"/>
</mask>
<path d="M136.74 52.0913C167.998 52.0914 193.338 77.4311 193.338 108.689C193.338 139.947 167.998 165.287 136.74 165.287C126.534 165.287 116.959 162.584 108.69 157.857C100.422 162.584 90.8471 165.287 80.6406 165.287C49.3827 165.287 24.043 139.947 24.043 108.689C24.0431 77.4311 49.3827 52.0913 80.6406 52.0913C90.8469 52.0913 100.422 54.793 108.69 59.52C116.959 54.793 126.534 52.0913 136.74 52.0913Z" fill="#FF8CBD"/>
<path d="M136.74 52.0913L136.74 47.0913H136.74V52.0913ZM193.338 108.689L198.338 108.689L198.338 108.689L193.338 108.689ZM136.74 165.287L136.74 170.287L136.74 170.287L136.74 165.287ZM108.69 157.857L111.172 153.516L108.69 152.097L106.209 153.516L108.69 157.857ZM80.6406 165.287L80.6406 170.287H80.6406V165.287ZM24.043 108.689L19.043 108.689V108.689H24.043ZM80.6406 52.0913L80.6406 47.0913L80.6406 47.0913L80.6406 52.0913ZM108.69 59.52L106.209 63.8607L108.69 65.2795L111.172 63.8607L108.69 59.52ZM136.74 52.0913L136.74 57.0913C165.237 57.0913 188.338 80.1925 188.338 108.689L193.338 108.689L198.338 108.689C198.338 74.6697 170.76 47.0914 136.74 47.0913L136.74 52.0913ZM193.338 108.689H188.338C188.338 137.185 165.237 160.287 136.74 160.287L136.74 165.287L136.74 170.287C170.76 170.287 198.338 142.708 198.338 108.689H193.338ZM136.74 165.287V160.287C127.427 160.287 118.705 157.823 111.172 153.516L108.69 157.857L106.209 162.198C115.213 167.345 125.64 170.287 136.74 170.287V165.287ZM108.69 157.857L106.209 153.516C98.6758 157.823 89.9535 160.287 80.6406 160.287V165.287V170.287C91.7407 170.287 102.168 167.345 111.172 162.198L108.69 157.857ZM80.6406 165.287L80.6406 160.287C52.1441 160.287 29.043 137.186 29.043 108.689H24.043H19.043C19.043 142.708 46.6212 170.287 80.6406 170.287L80.6406 165.287ZM24.043 108.689L29.043 108.689C29.043 80.1925 52.1442 57.0913 80.6406 57.0913L80.6406 52.0913L80.6406 47.0913C46.6213 47.0913 19.0431 74.6697 19.043 108.689L24.043 108.689ZM80.6406 52.0913V57.0913C89.9536 57.0913 98.6762 59.5543 106.209 63.8607L108.69 59.52L111.172 55.1793C102.168 50.0318 91.7402 47.0913 80.6406 47.0913V52.0913ZM108.69 59.52L111.172 63.8607C118.705 59.5543 127.427 57.0913 136.74 57.0913V52.0913V47.0913C125.641 47.0913 115.213 50.0318 106.209 55.1793L108.69 59.52Z" fill="black" mask="url(#path-2-inside-1_115_998)"/>
<path d="M122.213 74.1265C144.895 74.1267 163.283 89.8239 163.283 109.187C163.283 128.55 144.895 144.247 122.213 144.248C117.66 144.248 113.281 143.614 109.188 142.447C105.096 143.614 100.717 144.248 96.1641 144.248C73.4814 144.247 55.0938 128.55 55.0938 109.187C55.0939 89.8239 73.4815 74.1266 96.1641 74.1265C100.716 74.1265 105.095 74.7601 109.188 75.9272C113.28 74.7598 117.66 74.1265 122.213 74.1265Z" fill="black"/>
<path d="M144.741 81.6353C149.22 81.6353 155.487 82.6122 160.54 84.9341C165.641 87.2779 168.796 90.6091 168.796 95.0815C168.796 99.4478 165.778 102.336 160.705 104.239C155.661 106.131 149.366 106.687 144.741 106.687C140.116 106.687 133.559 106.132 128.252 104.227C122.86 102.292 119.703 99.3728 119.703 95.0815C119.703 90.6804 123.006 87.3286 128.414 84.9507C133.73 82.6135 140.258 81.6353 144.741 81.6353Z" fill="white" stroke="black" stroke-width="5"/>
</svg>
