<svg width="218" height="223" viewBox="0 0 218 223" fill="none" xmlns="http://www.w3.org/2000/svg">
<circle cx="108.691" cy="113.703" r="106.187" fill="white" stroke="black" stroke-width="5"/>
<circle cx="108.691" cy="110.695" r="54.0975" fill="#F7DE1C" stroke="black" stroke-width="5"/>
<circle cx="108.189" cy="111.2" r="32.5604" fill="black" stroke="black" stroke-width="5"/>
<circle cx="133.733" cy="107.698" r="15.0302" fill="white" stroke="black" stroke-width="5"/>
<mask id="path-5-inside-1_115_966" fill="white">
<path d="M-0.000976563 108.186C0.26952 48.3903 48.8239 0.000162724 108.683 9.50151e-06C168.541 4.26848e-06 217.097 48.3902 217.367 108.186L-0.000976563 108.186Z"/>
</mask>
<path d="M-0.000976563 108.186C0.26952 48.3903 48.8239 0.000162724 108.683 9.50151e-06C168.541 4.26848e-06 217.097 48.3902 217.367 108.186L-0.000976563 108.186Z" fill="#FF8CBD"/>
<path d="M-0.000976563 108.186L-5.00093 108.163L-5.02365 113.186L-0.000976125 113.186L-0.000976563 108.186ZM108.683 9.50151e-06L108.683 -4.99999L108.683 -4.99999L108.683 9.50151e-06ZM217.367 108.186L217.367 113.186L222.39 113.186L222.367 108.163L217.367 108.186ZM-0.000976563 108.186L4.99897 108.208C5.25702 51.1641 51.5779 5.00016 108.683 5.00001L108.683 9.50151e-06L108.683 -4.99999C46.0698 -4.99983 -4.71798 45.6166 -5.00093 108.163L-0.000976563 108.186ZM108.683 9.50151e-06L108.683 5.00001C165.788 5 212.109 51.164 212.367 108.208L217.367 108.186L222.367 108.163C222.084 45.6164 171.295 -5 108.683 -4.99999L108.683 9.50151e-06ZM217.367 108.186L217.367 103.186L-0.000977 103.186L-0.000976563 108.186L-0.000976125 113.186L217.367 113.186L217.367 108.186Z" fill="black" mask="url(#path-5-inside-1_115_966)"/>
</svg>
