<svg width="216" height="98" viewBox="0 0 216 98" fill="none" xmlns="http://www.w3.org/2000/svg">
<path d="M197.747 0C197.749 0.00268155 197.903 0.111016 206.769 6.32731C215.553 12.4865 215.784 12.6499 215.789 12.6556C215.788 12.6563 215.787 12.6581 215.786 12.6595C215.784 12.6624 215.781 12.6661 215.778 12.6703C215.772 12.6786 215.765 12.69 215.756 12.7035C215.736 12.7308 215.709 12.7682 215.675 12.816C215.608 12.9116 215.511 13.0478 215.387 13.222C215.138 13.5706 214.778 14.0726 214.315 14.708C213.389 15.9782 212.051 17.7864 210.375 19.9807C207.03 24.3605 202.301 30.3227 196.775 36.6295C191.267 42.915 184.849 49.6778 178.125 55.5929C171.518 61.405 164.045 66.9112 156.412 70.0915C149.194 73.0989 136.103 76.1146 121.622 78.9398C106.737 81.8437 89.1854 84.7612 72.275 87.387C37.8602 92.7307 7.2325 96.717 3.83082 97.3172L0 75.6137C3.41202 75.0116 35.893 70.7343 68.8932 65.6102C85.6905 63.002 102.923 60.1344 117.402 57.3097C132.284 54.4063 143.134 51.749 147.937 49.7479C152.325 47.9195 157.686 44.2221 163.569 39.0468C169.335 33.9743 175.064 27.9649 180.199 22.1045C185.316 16.2654 189.728 10.7078 192.863 6.60416C194.426 4.55687 195.664 2.8824 196.503 1.73052C196.922 1.15497 197.241 0.710342 197.452 0.415756C197.557 0.268553 197.635 0.158887 197.684 0.0890206C197.709 0.0542175 197.727 0.02938 197.737 0.0146737L197.747 0Z" fill="black"/>
</svg>
