<svg width="260" height="107" viewBox="0 0 260 107" fill="none" xmlns="http://www.w3.org/2000/svg">
<path d="M118.61 0.313514C162.082 -3.11625 197.676 22.2087 221.358 46.2169C233.375 58.3989 242.817 70.729 249.25 79.9909C252.474 84.6333 254.963 88.5349 256.661 91.3024C257.51 92.6869 258.164 93.7896 258.613 94.5619C258.837 94.9481 259.01 95.2525 259.132 95.4678C259.193 95.5753 259.242 95.6605 259.277 95.7231C259.294 95.7541 259.308 95.7797 259.319 95.7994C259.324 95.8092 259.33 95.8179 259.334 95.8248C259.336 95.8283 259.338 95.8329 259.339 95.8346C259.338 95.84 259.17 95.9371 249.701 101.176C240.149 106.46 240.061 106.512 240.061 106.515C240.059 106.511 240.054 106.502 240.048 106.49C240.031 106.46 240.002 106.408 239.96 106.334C239.877 106.187 239.743 105.952 239.559 105.637C239.193 105.006 238.63 104.053 237.877 102.826C236.37 100.369 234.108 96.8212 231.15 92.5624C225.218 84.0213 216.567 72.7407 205.669 61.6927C183.522 39.2407 154.004 19.6273 120.343 22.283C85.9097 24.9997 61.1179 45.0466 44.5064 65.4717C36.2401 75.6359 30.2034 85.6604 26.2396 93.1454C24.2635 96.8769 22.8176 99.9482 21.8796 102.051C21.4109 103.102 21.0702 103.91 20.8543 104.433C20.7465 104.695 20.6701 104.886 20.6245 105.001C20.6017 105.058 20.5859 105.096 20.5785 105.115C20.5779 105.117 20.577 105.118 20.5765 105.119C20.559 105.109 20.1306 104.941 10.2883 101.176C-0.00332452 97.2387 -0.00170097 97.2341 4.5434e-05 97.2296C0.000855681 97.2275 0.00253314 97.2225 0.00395843 97.2188C0.00689707 97.2112 0.0108239 97.2025 0.0147192 97.1924C0.0227142 97.1717 0.0330325 97.145 0.0450449 97.1142C0.0690458 97.0526 0.100848 96.9705 0.140913 96.8696C0.221219 96.6673 0.333881 96.3871 0.479387 96.0342C0.770715 95.3275 1.19457 94.3272 1.75307 93.075C2.86933 90.5721 4.53064 87.0503 6.76463 82.8317C11.2216 74.4156 18.0197 63.1114 27.4086 51.5669C46.108 28.5746 75.9103 3.68235 118.61 0.313514ZM20.5775 105.12C20.5772 105.121 20.576 105.124 20.5755 105.125C20.5747 105.127 20.5738 105.128 20.5736 105.129C20.5739 105.128 20.5744 105.125 20.5765 105.119L20.5775 105.12Z" fill="black"/>
</svg>
