<svg width="555" height="607" viewBox="0 0 555 607" fill="none" xmlns="http://www.w3.org/2000/svg">
<path d="M172.095 333.258L6.75781 441.292L194.772 513.151L424.43 485.096L533.692 441.292L406.288 333.258L270.225 373.863L172.095 333.258Z" fill="black" stroke="black" stroke-width="5"/>
<path d="M207.687 565.947C192.232 565.947 1.41016 440.308 1.41016 440.308L280.133 499.616C280.133 499.616 532.468 438.831 534.117 440.061C535.766 441.292 391.586 565.947 373.772 565.947H207.687Z" fill="#FF4431" stroke="black" stroke-width="5"/>
<path d="M168.038 421.113L147.789 358.605H189.845L168.038 421.113Z" fill="white" stroke="black" stroke-width="5"/>
<path d="M391.507 421.113L371.258 358.605H413.314L391.507 421.113Z" fill="white" stroke="black" stroke-width="5"/>
<path d="M166.454 289.209C144.711 289.209 1.82422 441.786 1.82422 441.786L166.454 360.507C166.454 360.507 256.569 387.4 272.549 387.556C288.529 387.713 395.148 360.507 395.148 360.507L534.119 440.801C534.119 440.801 416.629 289.209 395.148 289.209C373.667 289.209 294.292 326.891 272.549 327.36C250.806 327.829 188.197 289.209 166.454 289.209Z" fill="#FF4431" stroke="black" stroke-width="5"/>
<path d="M248.405 439.412C212.424 443.654 160.535 454.591 160.535 464.86C160.535 475.13 293.476 581.385 313.928 591.653C334.381 601.92 380.967 606.387 395.738 602.591C410.509 598.795 424.523 570.447 428.31 561.071C432.098 551.694 387.406 469.325 380.967 461.065C374.528 452.805 284.386 435.171 248.405 439.412Z" fill="#FF8CBD" stroke="black" stroke-width="5"/>
<path d="M261.18 439.324C261.18 439.324 290.866 454.582 313.131 477.468C335.396 500.355 352.301 535.546 352.301 535.546" stroke="black" stroke-width="5"/>
<circle cx="87.6172" cy="208" r="78.5" fill="white" stroke="black" stroke-width="5"/>
<path d="M87.6172 176.158C99.0275 176.158 115.142 178.326 128.316 183.312C134.905 185.805 140.598 188.943 144.607 192.732C148.578 196.485 150.813 200.785 150.813 205.76C150.813 210.732 148.58 215.005 144.615 218.721C140.61 222.474 134.919 225.568 128.331 228.016C115.157 232.91 99.0389 234.987 87.6172 234.987C76.1998 234.987 60.9437 232.911 48.6348 228.035C36.1403 223.085 27.7814 215.747 27.7812 205.76C27.7812 195.762 36.1553 188.334 48.6494 183.292C60.959 178.325 76.2116 176.158 87.6172 176.158Z" fill="#01B37F" stroke="black" stroke-width="5"/>
<path d="M87.2461 190.344C94.3068 190.344 105.059 191.295 113.961 193.972C118.422 195.313 122.234 197.034 124.882 199.144C127.486 201.218 128.792 203.509 128.792 206.134C128.792 208.777 127.467 211.177 124.828 213.402C122.159 215.653 118.331 217.55 113.873 219.071C104.969 222.11 94.2368 223.418 87.2461 223.418C80.2598 223.418 70.0098 222.111 61.5908 219.085C57.3778 217.571 53.7889 215.683 51.2949 213.45C48.8378 211.25 47.5664 208.84 47.5664 206.134C47.5665 203.444 48.8213 201.144 51.2422 199.097C53.7139 197.006 57.284 195.296 61.5 193.961C69.9171 191.295 80.1871 190.344 87.2461 190.344Z" fill="black" stroke="black" stroke-width="5"/>
<path d="M118.599 190.717C121.992 190.717 126.725 191.311 130.519 192.709C132.417 193.409 133.918 194.251 134.907 195.182C135.853 196.072 136.255 196.958 136.255 197.922C136.255 198.864 135.874 199.65 134.988 200.414C134.036 201.235 132.566 201.954 130.662 202.526C126.866 203.668 122.108 204.007 118.599 204.007C115.09 204.007 110.131 203.668 106.133 202.518C104.125 201.94 102.553 201.211 101.53 200.373C100.571 199.588 100.195 198.809 100.195 197.922C100.195 197.01 100.597 196.135 101.613 195.226C102.671 194.28 104.27 193.428 106.272 192.722C110.269 191.313 115.203 190.717 118.599 190.717Z" fill="white" stroke="black" stroke-width="5"/>
<circle cx="473.617" cy="208" r="78.5" fill="white" stroke="black" stroke-width="5"/>
<path d="M473.617 176.158C485.028 176.158 501.142 178.326 514.316 183.312C520.905 185.805 526.598 188.943 530.607 192.732C534.578 196.485 536.813 200.785 536.813 205.76C536.813 210.732 534.58 215.005 530.615 218.721C526.61 222.474 520.919 225.568 514.331 228.016C501.157 232.91 485.039 234.987 473.617 234.987C462.2 234.987 446.944 232.911 434.635 228.035C422.14 223.085 413.781 215.747 413.781 205.76C413.781 195.762 422.155 188.334 434.649 183.292C446.959 178.325 462.212 176.158 473.617 176.158Z" fill="#01B37F" stroke="black" stroke-width="5"/>
<path d="M473.246 190.344C480.307 190.344 491.059 191.295 499.961 193.972C504.422 195.313 508.234 197.034 510.882 199.144C513.486 201.218 514.792 203.509 514.792 206.134C514.792 208.777 513.467 211.177 510.828 213.402C508.159 215.653 504.331 217.55 499.873 219.071C490.969 222.11 480.237 223.418 473.246 223.418C466.26 223.418 456.01 222.111 447.591 219.085C443.378 217.571 439.789 215.683 437.295 213.45C434.838 211.25 433.566 208.84 433.566 206.134C433.566 203.444 434.821 201.144 437.242 199.097C439.714 197.006 443.284 195.296 447.5 193.961C455.917 191.295 466.187 190.344 473.246 190.344Z" fill="black" stroke="black" stroke-width="5"/>
<path d="M504.599 190.717C507.992 190.717 512.725 191.311 516.519 192.709C518.417 193.409 519.918 194.251 520.907 195.182C521.853 196.072 522.255 196.958 522.255 197.922C522.255 198.864 521.874 199.65 520.988 200.414C520.036 201.235 518.566 201.954 516.662 202.526C512.866 203.668 508.108 204.007 504.599 204.007C501.09 204.007 496.131 203.668 492.133 202.518C490.125 201.94 488.553 201.211 487.53 200.373C486.571 199.588 486.195 198.809 486.195 197.922C486.195 197.01 486.597 196.135 487.613 195.226C488.671 194.28 490.27 193.428 492.272 192.722C496.269 191.313 501.203 190.717 504.599 190.717Z" fill="white" stroke="black" stroke-width="5"/>
<path d="M318.664 161.323L298.59 198.584H267.983L251.449 161.323L193.366 156L188.617 198.584L258.755 278.429H306.064L372.617 194.793L368.702 156L318.664 161.323Z" fill="#FF8CBD" stroke="black" stroke-width="5"/>
<path d="M283.289 198.709V278.075" stroke="black" stroke-width="5"/>
<path d="M244.014 0C244.016 0.0026539 244.17 0.109871 253.02 6.26206C261.789 12.3578 262.019 12.5194 262.024 12.5251C262.024 12.5258 262.022 12.5276 262.021 12.529C262.019 12.5318 262.016 12.5355 262.013 12.5396C262.008 12.5479 262.001 12.5591 261.991 12.5725C261.972 12.5995 261.945 12.6366 261.911 12.6839C261.843 12.7785 261.747 12.9133 261.623 13.0856C261.374 13.4307 261.015 13.9275 260.553 14.5563C259.629 15.8134 258.293 17.603 256.62 19.7747C253.281 24.1092 248.56 30.01 243.044 36.2518C237.546 42.4724 231.139 49.1655 224.427 55.0196C217.832 60.7717 210.372 66.2212 202.753 69.3687C195.547 72.345 182.479 75.3297 168.024 78.1257C153.166 80.9996 135.645 83.887 118.764 86.4857C84.4104 91.7744 53.8369 95.7195 50.4412 96.3135L46.6172 74.8339C50.0232 74.238 82.4467 70.0048 115.388 64.9335C132.156 62.3522 149.358 59.5142 163.811 56.7187C178.667 53.8452 189.498 51.2153 194.292 49.2348C198.672 47.4253 204.024 43.7661 209.897 38.6441C215.653 33.6239 221.371 27.6765 226.498 21.8765C231.605 16.0977 236.01 10.5973 239.139 6.53605C240.7 4.50988 241.934 2.85267 242.772 1.71267C243.191 1.14306 243.509 0.703016 243.719 0.411468C243.824 0.265783 243.902 0.157248 243.952 0.0881025C243.976 0.0536583 243.994 0.029077 244.005 0.0145224L244.014 0Z" fill="black"/>
<path d="M321.626 0C321.624 0.0026539 321.471 0.109871 312.621 6.26206C303.852 12.3578 303.621 12.5194 303.616 12.5251C303.617 12.5258 303.618 12.5276 303.619 12.529C303.621 12.5318 303.624 12.5355 303.627 12.5396C303.633 12.5479 303.64 12.5591 303.65 12.5725C303.669 12.5995 303.696 12.6366 303.73 12.6839C303.797 12.7785 303.894 12.9133 304.018 13.0856C304.266 13.4307 304.626 13.9275 305.088 14.5563C306.012 15.8134 307.347 17.603 309.02 19.7747C312.36 24.1092 317.08 30.01 322.597 36.2518C328.095 42.4724 334.501 49.1655 341.213 55.0196C347.809 60.7717 355.269 66.2212 362.888 69.3687C370.093 72.345 383.162 75.3297 397.617 78.1257C412.475 80.9996 429.996 83.887 446.876 86.4857C481.23 91.7744 511.804 95.7195 515.199 96.3135L519.023 74.8339C515.617 74.238 483.194 70.0048 450.252 64.9335C433.485 62.3522 416.282 59.5142 401.83 56.7187C386.974 53.8452 376.143 51.2153 371.349 49.2348C366.969 47.4253 361.617 43.7661 355.744 38.6441C349.988 33.6239 344.269 27.6765 339.143 21.8765C334.035 16.0977 329.631 10.5973 326.502 6.53605C324.941 4.50988 323.706 2.85267 322.868 1.71267C322.45 1.14306 322.131 0.703016 321.921 0.411468C321.816 0.265783 321.738 0.157248 321.689 0.0881025C321.664 0.0536583 321.646 0.029077 321.636 0.0145224L321.626 0Z" fill="black"/>
</svg>
