<svg width="728" height="563" viewBox="0 0 728 563" fill="none" xmlns="http://www.w3.org/2000/svg">
<path d="M727.635 89.6172V114.261H418.566V89.6172H727.635Z" fill="black"/>
<path d="M86.6609 0.185123C100.973 -1.1703 114.261 5.09616 125.356 13.1262C136.617 21.2769 147.238 32.4156 156.67 43.6642C166.155 54.9764 174.873 66.937 182.149 76.9446C189.747 87.3949 195.216 94.8984 198.881 98.6809C198.843 98.6416 199.906 99.6002 203.613 100.621C207.069 101.573 211.696 102.277 217.378 102.675C228.719 103.469 242.679 102.952 256.554 101.827C270.342 100.709 283.642 99.0275 293.524 97.6187C298.455 96.9156 302.514 96.2836 305.33 95.829C306.738 95.6018 307.834 95.4189 308.572 95.2941C308.941 95.2317 309.22 95.1836 309.404 95.1519C309.496 95.136 309.565 95.1245 309.608 95.1169C309.63 95.1131 309.645 95.1097 309.654 95.1081C309.659 95.1073 309.663 95.1073 309.664 95.107L309.665 95.1059C309.665 95.106 309.664 95.1067 311.813 107.241C313.903 119.04 313.959 119.366 313.959 119.376C313.958 119.376 313.955 119.376 313.952 119.377C313.948 119.378 313.941 119.379 313.934 119.38C313.918 119.383 313.896 119.387 313.868 119.392C313.811 119.402 313.729 119.415 313.624 119.434C313.413 119.47 313.105 119.523 312.708 119.59C311.912 119.725 310.755 119.918 309.282 120.156C306.338 120.631 302.127 121.287 297.025 122.014C286.838 123.467 273.008 125.217 258.558 126.389C244.196 127.553 228.809 128.18 215.644 127.257C209.074 126.797 202.659 125.926 197.027 124.375C191.647 122.893 185.573 120.419 181.098 115.802C175.891 110.428 169.128 101.034 162.128 91.4052C154.806 81.334 146.558 70.0343 137.698 59.467C128.784 48.8361 119.681 39.475 110.828 33.0674C101.808 26.5393 94.5917 24.189 88.9998 24.7185C81.9792 25.3835 74.2255 28.7604 66.0864 34.4698C58.0275 40.1229 50.3285 47.5445 43.5396 55.1679C36.7857 62.7519 31.166 70.271 27.2279 75.913C25.2658 78.7241 23.7378 81.0449 22.7126 82.6428C22.2005 83.441 21.8151 84.0572 21.5646 84.462C21.4393 84.6644 21.3477 84.8145 21.2913 84.9073C21.2631 84.9535 21.2437 84.986 21.2331 85.0035C21.2299 85.0089 21.2259 85.0119 21.2243 85.0145C21.2002 84.9977 20.6971 84.6962 10.6122 78.6971C-0.00356916 72.3821 -0.00161343 72.3791 4.14613e-05 72.3764C0.000802069 72.3751 0.00194256 72.3721 0.00333409 72.3698C0.00626322 72.3649 0.0102647 72.359 0.0143095 72.3523C0.0225325 72.3386 0.0333719 72.321 0.0461383 72.2998C0.0717966 72.2573 0.106631 72.1989 0.150405 72.127C0.237931 71.9831 0.360878 71.7811 0.519179 71.5253C0.836054 71.0132 1.2939 70.2842 1.88233 69.367C3.0585 67.5337 4.76399 64.9433 6.93103 61.8386C11.2514 55.6489 17.4725 47.3139 25.0471 38.8083C32.5867 30.3418 41.7041 21.4375 51.8557 14.3164C61.9268 7.25174 73.7777 1.40535 86.6609 0.185123ZM21.2254 85.0156L21.2232 85.0189C21.2236 85.0183 21.2234 85.0161 21.2243 85.0145C21.2256 85.0154 21.2255 85.0155 21.2254 85.0156Z" fill="black"/>
<circle cx="165.367" cy="223" r="78.5" fill="white" stroke="black" stroke-width="5"/>
<mask id="path-4-inside-1_212_720" fill="white">
<path d="M186.266 180.82C209.561 180.82 228.445 199.705 228.445 223C228.445 246.295 209.561 265.18 186.266 265.18C178.66 265.18 171.525 263.166 165.363 259.644C159.202 263.166 152.067 265.18 144.461 265.18C121.166 265.18 102.281 246.295 102.281 223C102.281 199.705 121.166 180.82 144.461 180.82C152.066 180.82 159.202 182.833 165.363 186.355C171.525 182.833 178.66 180.82 186.266 180.82Z"/>
</mask>
<path d="M186.266 180.82C209.561 180.82 228.445 199.705 228.445 223C228.445 246.295 209.561 265.18 186.266 265.18C178.66 265.18 171.525 263.166 165.363 259.644C159.202 263.166 152.067 265.18 144.461 265.18C121.166 265.18 102.281 246.295 102.281 223C102.281 199.705 121.166 180.82 144.461 180.82C152.066 180.82 159.202 182.833 165.363 186.355C171.525 182.833 178.66 180.82 186.266 180.82Z" fill="#FF8CBD"/>
<path d="M186.266 180.82V175.82H186.266L186.266 180.82ZM228.445 223H233.445H228.445ZM186.266 265.18L186.266 270.18H186.266V265.18ZM165.363 259.644L167.845 255.303L165.363 253.884L162.882 255.303L165.363 259.644ZM144.461 265.18L144.461 270.18H144.461V265.18ZM102.281 223H97.2812H102.281ZM144.461 180.82V175.82H144.461L144.461 180.82ZM165.363 186.355L162.882 190.696L165.363 192.115L167.845 190.696L165.363 186.355ZM186.266 180.82V185.82C206.799 185.82 223.445 202.466 223.445 223H228.445H233.445C233.445 196.943 212.322 175.82 186.266 175.82V180.82ZM228.445 223H223.445C223.445 243.534 206.799 260.18 186.266 260.18V265.18V270.18C212.322 270.18 233.445 249.057 233.445 223H228.445ZM186.266 265.18L186.266 260.18C179.554 260.18 173.271 258.405 167.845 255.303L165.363 259.644L162.882 263.984C169.779 267.927 177.766 270.18 186.266 270.18L186.266 265.18ZM165.363 259.644L162.882 255.303C157.456 258.405 151.173 260.18 144.461 260.18V265.18V270.18C152.96 270.18 160.948 267.927 167.845 263.984L165.363 259.644ZM144.461 265.18L144.461 260.18C123.927 260.18 107.281 243.534 107.281 223H102.281H97.2812C97.2813 249.057 118.404 270.18 144.461 270.18L144.461 265.18ZM102.281 223H107.281C107.281 202.466 123.927 185.82 144.461 185.82L144.461 180.82L144.461 175.82C118.404 175.82 97.2812 196.943 97.2812 223H102.281ZM144.461 180.82V185.82C151.173 185.82 157.456 187.595 162.882 190.696L165.363 186.355L167.845 182.015C160.948 178.072 152.96 175.82 144.461 175.82V180.82ZM165.363 186.355L167.845 190.696C173.271 187.595 179.553 185.82 186.266 185.82L186.266 180.82L186.266 175.82C177.767 175.82 169.779 178.072 162.882 182.015L165.363 186.355Z" fill="black" mask="url(#path-4-inside-1_212_720)"/>
<path d="M175.448 197.244C192.353 197.244 206.056 208.943 206.057 223.373C206.057 237.804 192.353 249.502 175.448 249.502C172.055 249.502 168.791 249.03 165.74 248.16C162.691 249.029 159.429 249.502 156.038 249.502C139.134 249.502 125.43 237.804 125.43 223.373C125.43 208.942 139.134 197.244 156.038 197.244C159.43 197.244 162.693 197.716 165.742 198.586C168.792 197.716 172.056 197.244 175.448 197.244Z" fill="black"/>
<path d="M192.238 203.477C195.506 203.477 200.082 204.193 203.746 205.877C207.458 207.583 209.528 209.898 209.528 212.86C209.528 215.717 207.596 217.707 203.911 219.089C200.256 220.46 195.653 220.873 192.238 220.873C188.824 220.873 184.02 220.461 180.164 219.077C176.223 217.662 174.215 215.642 174.215 212.86C174.215 209.969 176.369 207.633 180.326 205.894C184.191 204.194 188.966 203.477 192.238 203.477Z" fill="white" stroke="black" stroke-width="5"/>
<circle cx="551.367" cy="223" r="78.5" fill="white" stroke="black" stroke-width="5"/>
<mask id="path-9-inside-2_212_720" fill="white">
<path d="M572.266 180.82C595.561 180.82 614.445 199.705 614.445 223C614.445 246.295 595.561 265.18 572.266 265.18C564.66 265.18 557.525 263.166 551.363 259.644C545.202 263.166 538.067 265.18 530.461 265.18C507.166 265.18 488.281 246.295 488.281 223C488.281 199.705 507.166 180.82 530.461 180.82C538.066 180.82 545.202 182.833 551.363 186.355C557.525 182.833 564.66 180.82 572.266 180.82Z"/>
</mask>
<path d="M572.266 180.82C595.561 180.82 614.445 199.705 614.445 223C614.445 246.295 595.561 265.18 572.266 265.18C564.66 265.18 557.525 263.166 551.363 259.644C545.202 263.166 538.067 265.18 530.461 265.18C507.166 265.18 488.281 246.295 488.281 223C488.281 199.705 507.166 180.82 530.461 180.82C538.066 180.82 545.202 182.833 551.363 186.355C557.525 182.833 564.66 180.82 572.266 180.82Z" fill="#FF8CBD"/>
<path d="M572.266 180.82V175.82H572.266L572.266 180.82ZM614.445 223H619.445H614.445ZM572.266 265.18L572.266 270.18H572.266V265.18ZM551.363 259.644L553.845 255.303L551.363 253.884L548.882 255.303L551.363 259.644ZM530.461 265.18L530.461 270.18H530.461V265.18ZM488.281 223H483.281H488.281ZM530.461 180.82V175.82H530.461L530.461 180.82ZM551.363 186.355L548.882 190.696L551.363 192.115L553.845 190.696L551.363 186.355ZM572.266 180.82V185.82C592.799 185.82 609.445 202.466 609.445 223H614.445H619.445C619.445 196.943 598.322 175.82 572.266 175.82V180.82ZM614.445 223H609.445C609.445 243.534 592.799 260.18 572.266 260.18V265.18V270.18C598.322 270.18 619.445 249.057 619.445 223H614.445ZM572.266 265.18L572.266 260.18C565.554 260.18 559.271 258.405 553.845 255.303L551.363 259.644L548.882 263.984C555.779 267.927 563.766 270.18 572.266 270.18L572.266 265.18ZM551.363 259.644L548.882 255.303C543.456 258.405 537.173 260.18 530.461 260.18V265.18V270.18C538.96 270.18 546.948 267.927 553.845 263.984L551.363 259.644ZM530.461 265.18L530.461 260.18C509.927 260.18 493.281 243.534 493.281 223H488.281H483.281C483.281 249.057 504.404 270.18 530.461 270.18L530.461 265.18ZM488.281 223H493.281C493.281 202.466 509.927 185.82 530.461 185.82L530.461 180.82L530.461 175.82C504.404 175.82 483.281 196.943 483.281 223H488.281ZM530.461 180.82V185.82C537.173 185.82 543.456 187.595 548.882 190.696L551.363 186.355L553.845 182.015C546.948 178.072 538.96 175.82 530.461 175.82V180.82ZM551.363 186.355L553.845 190.696C559.271 187.595 565.553 185.82 572.266 185.82L572.266 180.82L572.266 175.82C563.767 175.82 555.779 178.072 548.882 182.015L551.363 186.355Z" fill="black" mask="url(#path-9-inside-2_212_720)"/>
<path d="M561.448 197.244C578.353 197.244 592.056 208.943 592.057 223.373C592.057 237.804 578.353 249.502 561.448 249.502C558.055 249.502 554.791 249.03 551.74 248.16C548.691 249.029 545.429 249.502 542.038 249.502C525.134 249.502 511.43 237.804 511.43 223.373C511.43 208.942 525.134 197.244 542.038 197.244C545.43 197.244 548.693 197.716 551.742 198.586C554.792 197.716 558.056 197.244 561.448 197.244Z" fill="black"/>
<path d="M578.238 203.477C581.506 203.477 586.082 204.193 589.746 205.877C593.458 207.583 595.528 209.898 595.528 212.86C595.528 215.717 593.596 217.707 589.911 219.089C586.256 220.46 581.653 220.873 578.238 220.873C574.824 220.873 570.02 220.461 566.164 219.077C562.223 217.662 560.215 215.642 560.215 212.86C560.215 209.969 562.369 207.633 566.326 205.894C570.191 204.194 574.966 203.477 578.238 203.477Z" fill="white" stroke="black" stroke-width="5"/>
<path d="M374.143 97.9513C370.693 91.991 348.739 90.7378 344.035 97.9513C339.33 105.165 344.035 246.924 344.035 246.924C344.035 246.924 290.718 239.397 286.014 246.924C281.309 254.451 278.486 281.11 286.014 284.559C293.541 288.009 432.164 290.832 439.377 284.559C446.591 278.287 448.786 254.451 439.377 246.924C429.968 239.397 377.593 246.924 377.593 246.924C377.593 246.924 377.593 103.912 374.143 97.9513Z" fill="#FF4431" stroke="black" stroke-width="5"/>
<path d="M281.621 265.43C281.621 265.43 312.984 265.43 325.843 269.193C338.701 272.957 347.169 287.384 347.169 287.384" stroke="black" stroke-width="5"/>
<path d="M445.023 265.43C445.023 265.43 413.661 265.43 400.802 269.193C387.943 272.957 379.475 287.384 379.475 287.384" stroke="black" stroke-width="5"/>
<path d="M295.086 559.994C279.703 559.994 89.3672 419.719 89.3672 419.719L361.312 370.18L619.96 419.719C619.96 419.719 478.121 559.994 460.391 559.994H295.086Z" fill="#FF4431" stroke="black" stroke-width="5"/>
<path d="M253.632 299C231.992 299 92.2383 417.895 92.2383 417.895H253.632C253.632 417.895 343.325 462.741 359.23 463.001C375.134 463.262 481.253 417.895 481.253 417.895H618.399C618.399 417.895 502.633 299 481.253 299C459.873 299 380.87 361.837 359.23 362.619C337.589 363.401 275.273 299 253.632 299Z" fill="#FF4431" stroke="black" stroke-width="5"/>
<path d="M233.29 458.829L212.953 418.676H255.192L233.29 458.829Z" fill="white" stroke="black" stroke-width="5"/>
<path d="M503.411 458.829L483.074 418.676H525.313L503.411 458.829Z" fill="white" stroke="black" stroke-width="5"/>
</svg>
