<svg width="698" height="478" viewBox="0 0 698 478" fill="none" xmlns="http://www.w3.org/2000/svg">
<circle cx="157" cy="134" r="78.5" fill="white" stroke="black" stroke-width="5"/>
<path d="M156.997 105.518C172.727 105.518 185.478 118.269 185.479 133.999C185.479 149.729 172.727 162.48 156.997 162.48C141.267 162.48 128.516 149.729 128.516 133.999C128.516 118.269 141.267 105.518 156.997 105.518Z" fill="#FF4431" stroke="black" stroke-width="5"/>
<circle cx="156.625" cy="134.373" r="16.9101" fill="black" stroke="black" stroke-width="5"/>
<circle cx="170.811" cy="124.668" r="7.20507" fill="white" stroke="black" stroke-width="5"/>
<circle cx="542" cy="134" r="78.5" fill="white" stroke="black" stroke-width="5"/>
<path d="M541.997 105.518C557.727 105.518 570.478 118.269 570.479 133.999C570.479 149.729 557.727 162.48 541.997 162.48C526.267 162.48 513.516 149.729 513.516 133.999C513.516 118.269 526.267 105.518 541.997 105.518Z" fill="#FF4431" stroke="black" stroke-width="5"/>
<circle cx="541.625" cy="134.373" r="16.9101" fill="black" stroke="black" stroke-width="5"/>
<circle cx="555.811" cy="124.668" r="7.20507" fill="white" stroke="black" stroke-width="5"/>
<path d="M349 104.352C375.843 104.352 399.587 105.647 416.601 112.97C425.031 116.599 431.699 121.666 436.281 128.714C440.867 135.767 443.5 145.013 443.5 157.229C443.5 170.757 440.847 180.636 436.263 187.91C431.695 195.157 425.065 200.048 416.672 203.357C408.235 206.684 398.071 208.39 386.571 209.247C375.077 210.104 362.416 210.105 349 210.105C322.174 210.105 298.424 208.631 281.409 201.22C272.973 197.545 266.3 192.452 261.716 185.433C257.13 178.41 254.5 169.255 254.5 157.229C254.5 145.202 257.13 136.046 261.716 129.023C266.3 122.004 272.973 116.912 281.409 113.237C298.424 105.826 322.174 104.352 349 104.352Z" fill="#7A59A4" stroke="black" stroke-width="5"/>
<path d="M254.535 159.037H336.334V193.421H291.453V174.601H321.856V184.373" stroke="black" stroke-width="5"/>
<path d="M443.105 159.037H361.307V193.421H406.188V174.601H375.785V184.373" stroke="black" stroke-width="5"/>
<path d="M348.999 114.484C360.884 114.484 371.578 115.409 379.24 116.878C383.092 117.616 386.051 118.468 387.987 119.346C388.801 119.715 389.339 120.047 389.668 120.309C389.339 120.571 388.802 120.903 387.987 121.272C386.051 122.15 383.092 123.002 379.24 123.74C371.578 125.209 360.884 126.134 348.999 126.134C337.114 126.134 326.42 125.209 318.758 123.74C314.906 123.002 311.948 122.15 310.012 121.272C309.197 120.903 308.659 120.571 308.33 120.309C308.659 120.047 309.198 119.715 310.012 119.346C311.948 118.468 314.906 117.616 318.758 116.878C326.42 115.409 337.114 114.484 348.999 114.484Z" fill="white" stroke="black" stroke-width="5"/>
<path d="M236.409 0V21.8107H0V0H236.409Z" fill="black"/>
<path d="M697.409 0V21.8107H461V0H697.409Z" fill="black"/>
<path d="M276.719 474.994C261.336 474.994 71 334.719 71 334.719L342.945 285.18L601.593 334.719C601.593 334.719 459.754 474.994 442.024 474.994H276.719Z" fill="#FF4431" stroke="black" stroke-width="5"/>
<path d="M235.265 214C213.624 214 73.8711 332.895 73.8711 332.895H235.265C235.265 332.895 324.958 377.741 340.862 378.001C356.767 378.262 462.886 332.895 462.886 332.895H600.032C600.032 332.895 484.266 214 462.886 214C441.506 214 362.503 276.837 340.862 277.619C319.221 278.401 256.906 214 235.265 214Z" fill="#FF4431" stroke="black" stroke-width="5"/>
<path d="M214.923 373.829L194.586 333.676H236.825L214.923 373.829Z" fill="white" stroke="black" stroke-width="5"/>
<path d="M485.044 373.829L464.707 333.676H506.946L485.044 373.829Z" fill="white" stroke="black" stroke-width="5"/>
</svg>
