<svg width="558" height="521" viewBox="0 0 558 521" fill="none" xmlns="http://www.w3.org/2000/svg">
<circle cx="91.1445" cy="178" r="78.5" fill="white" stroke="black" stroke-width="5"/>
<path d="M91.1406 136.082C113.055 136.082 130.82 153.847 130.82 175.762C130.82 197.676 113.055 215.441 91.1406 215.441C69.2261 215.441 51.4609 197.676 51.4609 175.762C51.461 153.847 69.2261 136.082 91.1406 136.082Z" fill="#05C1F1" stroke="black" stroke-width="5"/>
<path d="M90.7695 152.504C103.819 152.504 114.398 163.083 114.398 176.133C114.398 189.183 103.819 199.762 90.7695 199.762C77.7196 199.762 67.1406 189.183 67.1406 176.133C67.1407 163.083 77.7197 152.504 90.7695 152.504Z" fill="black" stroke="black" stroke-width="5"/>
<path d="M109.803 152.504C115.637 152.504 120.367 157.234 120.367 163.068C120.367 168.903 115.637 173.633 109.803 173.633C103.968 173.633 99.2383 168.903 99.2383 163.068C99.2383 157.234 103.968 152.504 109.803 152.504Z" fill="white" stroke="black" stroke-width="5"/>
<circle cx="476.145" cy="178" r="78.5" fill="white" stroke="black" stroke-width="5"/>
<path d="M476.141 136.082C498.055 136.082 515.82 153.847 515.82 175.762C515.82 197.676 498.055 215.441 476.141 215.441C454.226 215.441 436.461 197.676 436.461 175.762C436.461 153.847 454.226 136.082 476.141 136.082Z" fill="#05C1F1" stroke="black" stroke-width="5"/>
<path d="M475.77 152.504C488.819 152.504 499.398 163.083 499.398 176.133C499.398 189.183 488.819 199.762 475.77 199.762C462.72 199.762 452.141 189.183 452.141 176.133C452.141 163.083 462.72 152.504 475.77 152.504Z" fill="black" stroke="black" stroke-width="5"/>
<path d="M494.803 152.504C500.637 152.504 505.367 157.234 505.367 163.068C505.367 168.903 500.637 173.633 494.803 173.633C488.968 173.633 484.238 168.903 484.238 163.068C484.238 157.234 488.968 152.504 494.803 152.504Z" fill="white" stroke="black" stroke-width="5"/>
<path d="M249.937 61.4664L232.088 96.8779L110.146 35.4115L127.996 0L249.937 61.4664Z" fill="black"/>
<path d="M308.145 61.4664L325.994 96.8779L447.936 35.4115L430.086 0L308.145 61.4664Z" fill="black"/>
<path fill-rule="evenodd" clip-rule="evenodd" d="M368.145 157H282.487H199.145V229.458H254.706V187.579H220.311V206.857H243.792V220.152H211.051V180.266H266.282V273H283.479H301.008V180.266H356.238V220.152H323.497V206.857H346.978V187.579H312.583V229.458H368.145V157Z" fill="#05C1F1" stroke="black" stroke-width="5"/>
<path d="M211.863 517.994C196.48 517.994 6.14453 377.719 6.14453 377.719L278.09 328.18L536.738 377.719C536.738 377.719 394.898 517.994 377.169 517.994H211.863Z" fill="#FF4431" stroke="black" stroke-width="5"/>
<path d="M170.41 257C148.769 257 9.01562 375.895 9.01562 375.895H170.41C170.41 375.895 260.102 420.741 276.007 421.001C291.912 421.262 398.03 375.895 398.03 375.895H535.176C535.176 375.895 419.41 257 398.03 257C376.65 257 297.648 319.837 276.007 320.619C254.366 321.401 192.051 257 170.41 257Z" fill="#FF4431" stroke="black" stroke-width="5"/>
<path d="M150.068 416.829L129.73 376.676H171.969L150.068 416.829Z" fill="white" stroke="black" stroke-width="5"/>
<path d="M420.189 416.829L399.852 376.676H442.09L420.189 416.829Z" fill="white" stroke="black" stroke-width="5"/>
</svg>
