<svg width="689" height="607" viewBox="0 0 689 607" fill="none" xmlns="http://www.w3.org/2000/svg">
<path d="M238.845 333.258L73.5078 441.292L261.522 513.151L491.18 485.096L600.442 441.292L473.038 333.258L336.975 373.863L238.845 333.258Z" fill="black" stroke="black" stroke-width="5"/>
<path d="M274.437 565.947C258.982 565.947 68.1602 440.308 68.1602 440.308L346.883 499.616C346.883 499.616 599.218 438.831 600.867 440.061C602.516 441.292 458.336 565.947 440.522 565.947H274.437Z" fill="#FF4431" stroke="black" stroke-width="5"/>
<path d="M234.788 421.113L214.539 358.605H256.595L234.788 421.113Z" fill="white" stroke="black" stroke-width="5"/>
<path d="M458.257 421.113L438.008 358.605H480.064L458.257 421.113Z" fill="white" stroke="black" stroke-width="5"/>
<path d="M233.204 289.209C211.461 289.209 68.5742 441.786 68.5742 441.786L233.204 360.507C233.204 360.507 323.319 387.4 339.299 387.556C355.279 387.713 461.898 360.507 461.898 360.507L600.869 440.801C600.869 440.801 483.379 289.209 461.898 289.209C440.417 289.209 361.042 326.891 339.299 327.36C317.556 327.829 254.947 289.209 233.204 289.209Z" fill="#FF4431" stroke="black" stroke-width="5"/>
<path d="M315.155 439.412C279.174 443.654 227.285 454.591 227.285 464.86C227.285 475.13 360.226 581.385 380.678 591.653C401.131 601.92 447.717 606.387 462.488 602.591C477.259 598.795 491.273 570.447 495.06 561.071C498.848 551.694 454.156 469.325 447.717 461.065C441.278 452.805 351.136 435.171 315.155 439.412Z" fill="#FF8CBD" stroke="black" stroke-width="5"/>
<path d="M327.93 439.324C327.93 439.324 357.616 454.582 379.881 477.468C402.146 500.355 419.051 535.546 419.051 535.546" stroke="black" stroke-width="5"/>
<path d="M344.689 128C329.422 128 313.065 155.989 313.065 155.989L299.252 258.858C299.252 258.858 255.996 213.784 249.817 233.413C243.638 253.042 274.535 293.026 274.535 293.026C274.535 293.026 321.425 349.367 344.689 348.64C367.952 347.913 413.389 293.026 413.389 293.026C413.389 293.026 442.469 241.41 427.929 233.413C413.389 225.416 383.219 258.858 383.219 258.858L372.314 155.989C372.314 155.989 359.956 128 344.689 128Z" fill="#01B37F" stroke="black" stroke-width="5"/>
<path d="M251.273 232.686C251.273 232.686 282.17 258.857 289.077 274.851C295.983 290.844 302.163 321.741 302.163 321.741" stroke="black" stroke-width="5"/>
<path d="M430.113 235.232C430.113 235.232 399.216 261.404 392.31 277.398C385.404 293.391 381.405 326.469 381.405 326.469" stroke="black" stroke-width="5"/>
<circle cx="360.322" cy="286.121" r="14.2207" fill="#01B37F" stroke="black" stroke-width="5"/>
<circle cx="327.971" cy="165.803" r="7.31432" fill="#01B37F" stroke="black" stroke-width="5"/>
<path d="M125.382 144.5C171.673 144.5 202.283 175.618 233.271 222.889C196.704 270.833 171.673 301.5 125.382 301.5C102.056 301.5 81.0834 291.387 61.9336 276.237C43.2584 261.463 26.4964 242.039 11.1572 222.938C48.4 172.797 79.0053 144.5 125.382 144.5Z" fill="white" stroke="black" stroke-width="5"/>
<path d="M122.289 171.558C132.833 175.241 143.448 182.188 151.479 190.944C159.753 199.964 165.093 210.68 165.093 221.506C165.093 232.282 159.799 242.049 151.533 250.519C143.558 258.691 132.969 265.484 122.285 270.571C111.626 264.409 100.981 257.596 92.9189 249.646C84.5918 241.434 79.2422 232.237 79.2422 221.506C79.2423 210.701 84.4624 200.647 92.6797 191.951C100.678 183.488 111.371 176.478 122.289 171.558Z" fill="#01B37F" stroke="black" stroke-width="5"/>
<path d="M123.292 189.417C129.08 194.982 132.78 199.666 135.091 204.407C137.589 209.534 138.557 214.916 138.557 221.881C138.557 228.945 137.863 234.208 135.53 239.149C133.337 243.795 129.589 248.376 123.124 253.906C116.864 250.008 112.65 245.472 109.944 240.434C107.021 234.989 105.77 228.795 105.77 221.881C105.77 215.055 107.185 209.523 110.209 204.281C113.011 199.424 117.258 194.708 123.292 189.417Z" fill="black" stroke="black" stroke-width="5"/>
<path d="M139.854 205.717C146.262 205.717 151.754 207.62 156.523 212.482C153.46 215.488 151.13 216.943 148.973 217.702C146.397 218.609 143.824 218.634 139.854 218.634C133.048 218.634 127.73 217.452 123.704 212.579C127.853 207.689 133.322 205.717 139.854 205.717Z" fill="white" stroke="black" stroke-width="5"/>
<path d="M576.382 144.5C622.673 144.5 653.283 175.618 684.271 222.889C647.704 270.833 622.673 301.5 576.382 301.5C553.056 301.5 532.083 291.387 512.934 276.237C494.258 261.463 477.496 242.039 462.157 222.938C499.4 172.797 530.005 144.5 576.382 144.5Z" fill="white" stroke="black" stroke-width="5"/>
<path d="M573.289 171.558C583.833 175.241 594.448 182.188 602.479 190.944C610.753 199.964 616.093 210.68 616.093 221.506C616.093 232.282 610.799 242.049 602.533 250.519C594.558 258.691 583.969 265.484 573.285 270.571C562.626 264.409 551.981 257.596 543.919 249.646C535.592 241.434 530.242 232.237 530.242 221.506C530.242 210.701 535.462 200.647 543.68 191.951C551.678 183.488 562.371 176.478 573.289 171.558Z" fill="#01B37F" stroke="black" stroke-width="5"/>
<path d="M574.292 189.417C580.08 194.982 583.78 199.666 586.091 204.407C588.589 209.534 589.557 214.916 589.557 221.881C589.557 228.945 588.863 234.208 586.53 239.149C584.337 243.795 580.589 248.376 574.124 253.906C567.864 250.008 563.65 245.472 560.944 240.434C558.021 234.989 556.77 228.795 556.77 221.881C556.77 215.055 558.185 209.523 561.209 204.281C564.011 199.424 568.258 194.708 574.292 189.417Z" fill="black" stroke="black" stroke-width="5"/>
<path d="M590.854 205.717C597.262 205.717 602.754 207.62 607.523 212.482C604.46 215.488 602.13 216.943 599.973 217.702C597.397 218.609 594.824 218.634 590.854 218.634C584.048 218.634 578.73 217.452 574.704 212.579C578.853 207.689 584.322 205.717 590.854 205.717Z" fill="white" stroke="black" stroke-width="5"/>
<path d="M117.387 0.310281C160.41 -3.08411 195.638 21.9797 219.075 45.7402C230.968 57.7966 240.313 69.9996 246.679 79.1659C249.871 83.7605 252.334 87.6219 254.014 90.3608C254.855 91.731 255.501 92.8223 255.946 93.5867C256.168 93.9689 256.339 94.2702 256.46 94.4832C256.52 94.5896 256.568 94.674 256.603 94.7359C256.62 94.7666 256.634 94.7919 256.645 94.8114C256.65 94.8211 256.655 94.8297 256.659 94.8366C256.661 94.84 256.663 94.8445 256.664 94.8463C256.663 94.8516 256.497 94.9477 247.126 100.132C237.673 105.362 237.585 105.414 237.585 105.417C237.583 105.412 237.579 105.404 237.572 105.391C237.556 105.362 237.527 105.31 237.486 105.238C237.403 105.091 237.27 104.859 237.089 104.547C236.726 103.923 236.169 102.98 235.424 101.766C233.932 99.3343 231.694 95.8227 228.767 91.6078C222.896 83.1548 214.333 71.9905 203.548 61.0565C181.629 38.836 152.416 19.4249 119.102 22.0532C85.0237 24.7419 60.4876 44.582 44.0474 64.7965C35.8663 74.8558 29.8919 84.777 25.969 92.1848C24.0133 95.8778 22.5822 98.9174 21.6539 100.999C21.1901 102.039 20.8529 102.838 20.6393 103.356C20.5326 103.615 20.4569 103.804 20.4118 103.918C20.3892 103.975 20.3736 104.012 20.3663 104.031C20.3657 104.033 20.3648 104.034 20.3643 104.035C20.3469 104.025 19.9229 103.859 10.1822 100.132C-0.00329023 96.2359 -0.00168343 96.2314 4.49654e-05 96.2268C0.000846856 96.2248 0.00250702 96.2199 0.0039176 96.2162C0.00682594 96.2086 0.0107122 96.2 0.0145674 96.1901C0.0224799 96.1696 0.0326918 96.1431 0.0445803 96.1126C0.0683338 96.0516 0.0998083 95.9705 0.13946 95.8706C0.218938 95.6703 0.330438 95.3931 0.474443 95.0438C0.762767 94.3444 1.18225 93.3544 1.73499 92.1151C2.83974 89.638 4.48391 86.1525 6.69487 81.9775C11.1058 73.6481 17.8339 62.4605 27.1259 51.0351C45.6324 28.2799 75.1275 3.64438 117.387 0.310281ZM20.3653 104.036C20.3649 104.037 20.3638 104.04 20.3633 104.041C20.3625 104.043 20.3616 104.044 20.3614 104.045C20.3617 104.044 20.3622 104.041 20.3643 104.035L20.3653 104.036Z" fill="black"/>
<path d="M549.387 0.310281C592.41 -3.08411 627.638 21.9797 651.075 45.7402C662.968 57.7966 672.313 69.9996 678.679 79.1659C681.871 83.7605 684.334 87.6219 686.014 90.3608C686.855 91.731 687.501 92.8223 687.946 93.5867C688.168 93.9689 688.339 94.2702 688.46 94.4832C688.52 94.5896 688.568 94.674 688.603 94.7359C688.62 94.7666 688.634 94.7919 688.645 94.8114C688.65 94.8211 688.655 94.8297 688.659 94.8366C688.661 94.84 688.663 94.8445 688.664 94.8463C688.663 94.8516 688.497 94.9477 679.126 100.132C669.673 105.362 669.585 105.414 669.585 105.417C669.583 105.412 669.579 105.404 669.572 105.391C669.556 105.362 669.527 105.31 669.486 105.238C669.403 105.091 669.27 104.859 669.089 104.547C668.726 103.923 668.169 102.98 667.424 101.766C665.932 99.3343 663.694 95.8227 660.767 91.6078C654.896 83.1548 646.333 71.9905 635.548 61.0565C613.629 38.836 584.416 19.4249 551.102 22.0532C517.024 24.7419 492.488 44.582 476.047 64.7965C467.866 74.8558 461.892 84.777 457.969 92.1848C456.013 95.8778 454.582 98.9174 453.654 100.999C453.19 102.039 452.853 102.838 452.639 103.356C452.533 103.615 452.457 103.804 452.412 103.918C452.389 103.975 452.374 104.012 452.366 104.031C452.366 104.033 452.365 104.034 452.364 104.035C452.347 104.025 451.923 103.859 442.182 100.132C431.997 96.2359 431.998 96.2314 432 96.2268C432.001 96.2248 432.003 96.2199 432.004 96.2162C432.007 96.2086 432.011 96.2 432.015 96.1901C432.022 96.1696 432.033 96.1431 432.045 96.1126C432.068 96.0516 432.1 95.9705 432.139 95.8706C432.219 95.6703 432.33 95.3931 432.474 95.0438C432.763 94.3444 433.182 93.3544 433.735 92.1151C434.84 89.638 436.484 86.1525 438.695 81.9775C443.106 73.6481 449.834 62.4605 459.126 51.0351C477.632 28.2799 507.127 3.64438 549.387 0.310281ZM452.365 104.036C452.365 104.037 452.364 104.04 452.363 104.041C452.363 104.043 452.362 104.044 452.361 104.045C452.362 104.044 452.362 104.041 452.364 104.035L452.365 104.036Z" fill="black"/>
</svg>
