<svg width="728" height="618" viewBox="0 0 728 618" fill="none" xmlns="http://www.w3.org/2000/svg">
<path d="M727.635 89.6172V114.261H418.566V89.6172H727.635Z" fill="black"/>
<path d="M249.845 344.258L84.5078 452.292L272.522 524.151L502.18 496.096L611.442 452.292L484.038 344.258L347.975 384.863L249.845 344.258Z" fill="black" stroke="black" stroke-width="5"/>
<path d="M285.437 576.947C269.982 576.947 79.1602 451.308 79.1602 451.308L357.883 510.616C357.883 510.616 610.218 449.831 611.867 451.061C613.516 452.292 469.336 576.947 451.522 576.947H285.437Z" fill="#FF4431" stroke="black" stroke-width="5"/>
<path d="M245.788 432.113L225.539 369.605H267.595L245.788 432.113Z" fill="white" stroke="black" stroke-width="5"/>
<path d="M469.257 432.113L449.008 369.605H491.064L469.257 432.113Z" fill="white" stroke="black" stroke-width="5"/>
<path d="M244.204 300.209C222.461 300.209 79.5742 452.786 79.5742 452.786L244.204 371.507C244.204 371.507 334.319 398.4 350.299 398.556C366.279 398.713 472.898 371.507 472.898 371.507L611.869 451.801C611.869 451.801 494.379 300.209 472.898 300.209C451.417 300.209 372.042 337.891 350.299 338.36C328.556 338.829 265.947 300.209 244.204 300.209Z" fill="#FF4431" stroke="black" stroke-width="5"/>
<path d="M326.155 450.412C290.174 454.654 238.285 465.591 238.285 475.86C238.285 486.13 371.226 592.385 391.678 602.653C412.131 612.92 458.717 617.387 473.488 613.591C488.259 609.795 502.273 581.447 506.06 572.071C509.848 562.694 465.156 480.325 458.717 472.065C452.278 463.805 362.136 446.171 326.155 450.412Z" fill="#FF8CBD" stroke="black" stroke-width="5"/>
<path d="M338.93 450.324C338.93 450.324 368.616 465.582 390.881 488.468C413.146 511.355 430.051 546.546 430.051 546.546" stroke="black" stroke-width="5"/>
<path d="M153.504 141.02C196.928 141.02 232.116 176.104 232.116 219.365C232.116 262.626 196.928 297.711 153.504 297.711C110.079 297.711 74.8908 262.626 74.8906 219.365C74.8906 176.104 110.079 141.02 153.504 141.02Z" fill="white" stroke="black" stroke-width="5"/>
<path d="M153.52 177.531C175.474 177.531 193.259 195.269 193.259 217.131C193.259 238.993 175.474 256.729 153.52 256.729C131.565 256.729 113.781 238.993 113.781 217.131C113.781 195.269 131.565 177.531 153.52 177.531Z" fill="#F7DE1C" stroke="black" stroke-width="5"/>
<path d="M153.142 193.924C166.219 193.924 176.808 204.488 176.808 217.503C176.808 230.518 166.219 241.082 153.142 241.082C140.064 241.082 129.477 230.517 129.477 217.503C129.477 204.488 140.064 193.924 153.142 193.924Z" fill="black" stroke="black" stroke-width="5"/>
<path d="M172.212 204.355C178.064 204.356 182.794 209.083 182.794 214.896C182.794 220.708 178.064 225.434 172.212 225.435C166.36 225.435 161.629 220.708 161.629 214.896C161.629 209.082 166.359 204.355 172.212 204.355Z" fill="white" stroke="black" stroke-width="5"/>
<mask id="path-13-inside-1_135_2016" fill="white">
<path d="M72.4111 215.268C72.6129 170.79 108.849 134.795 153.521 134.795C198.194 134.795 234.431 170.79 234.633 215.268L72.4111 215.268Z"/>
</mask>
<path d="M72.4111 215.268C72.6129 170.79 108.849 134.795 153.521 134.795C198.194 134.795 234.431 170.79 234.633 215.268L72.4111 215.268Z" fill="#FF8CBD"/>
<path d="M72.4111 215.268L67.4112 215.245L67.3884 220.268L72.4111 220.268L72.4111 215.268ZM153.521 134.795L153.521 129.795L153.521 129.795L153.521 134.795ZM234.633 215.268L234.633 220.268L239.656 220.268L239.633 215.245L234.633 215.268ZM72.4111 215.268L77.4111 215.29C77.6003 173.579 111.588 139.795 153.522 139.795L153.521 134.795L153.521 129.795C106.111 129.795 67.6255 168 67.4112 215.245L72.4111 215.268ZM153.521 134.795L153.521 139.795C195.456 139.795 229.444 173.579 229.633 215.29L234.633 215.268L239.633 215.245C239.418 168 200.932 129.795 153.521 129.795L153.521 134.795ZM234.633 215.268L234.633 210.268L72.4111 210.268L72.4111 215.268L72.4111 220.268L234.633 220.268L234.633 215.268Z" fill="black" mask="url(#path-13-inside-1_135_2016)"/>
<path d="M551.375 141.02C594.799 141.02 629.987 176.104 629.987 219.365C629.987 262.626 594.799 297.711 551.375 297.711C507.951 297.711 472.762 262.626 472.762 219.365C472.762 176.104 507.95 141.02 551.375 141.02Z" fill="white" stroke="black" stroke-width="5"/>
<path d="M551.367 177.531C573.322 177.531 591.106 195.269 591.106 217.131C591.106 238.993 573.322 256.729 551.367 256.729C529.413 256.729 511.629 238.993 511.629 217.131C511.629 195.269 529.413 177.531 551.367 177.531Z" fill="#F7DE1C" stroke="black" stroke-width="5"/>
<path d="M551.013 193.924C564.091 193.924 574.679 204.488 574.679 217.503C574.679 230.518 564.091 241.082 551.013 241.082C537.935 241.082 527.348 230.517 527.348 217.503C527.348 204.488 537.935 193.924 551.013 193.924Z" fill="black" stroke="black" stroke-width="5"/>
<path d="M570.079 204.355C575.931 204.356 580.661 209.083 580.661 214.896C580.661 220.708 575.931 225.434 570.079 225.435C564.227 225.435 559.496 220.708 559.496 214.896C559.496 209.082 564.227 204.355 570.079 204.355Z" fill="white" stroke="black" stroke-width="5"/>
<mask id="path-19-inside-2_135_2016" fill="white">
<path d="M470.271 215.268C470.472 170.79 506.708 134.795 551.381 134.795C596.053 134.795 632.29 170.79 632.492 215.268L470.271 215.268Z"/>
</mask>
<path d="M470.271 215.268C470.472 170.79 506.708 134.795 551.381 134.795C596.053 134.795 632.29 170.79 632.492 215.268L470.271 215.268Z" fill="#FF8CBD"/>
<path d="M470.271 215.268L465.271 215.245L465.248 220.268L470.271 220.268L470.271 215.268ZM551.381 134.795L551.381 129.795L551.381 129.795L551.381 134.795ZM632.492 215.268L632.492 220.268L637.515 220.268L637.492 215.245L632.492 215.268ZM470.271 215.268L475.27 215.29C475.46 173.579 509.447 139.795 551.381 139.795L551.381 134.795L551.381 129.795C503.97 129.795 465.485 168 465.271 215.245L470.271 215.268ZM551.381 134.795L551.381 139.795C593.315 139.795 627.303 173.579 627.492 215.29L632.492 215.268L637.492 215.245C637.278 168 598.792 129.795 551.381 129.795L551.381 134.795ZM632.492 215.268L632.492 210.268L470.271 210.268L470.271 215.268L470.271 220.268L632.492 220.268L632.492 215.268Z" fill="black" mask="url(#path-19-inside-2_135_2016)"/>
<path d="M86.6609 0.185123C100.973 -1.1703 114.261 5.09616 125.356 13.1262C136.617 21.2769 147.238 32.4156 156.67 43.6642C166.155 54.9764 174.873 66.937 182.149 76.9446C189.747 87.3949 195.216 94.8984 198.881 98.6809C198.843 98.6416 199.906 99.6002 203.613 100.621C207.069 101.573 211.696 102.277 217.378 102.675C228.719 103.469 242.679 102.952 256.554 101.827C270.342 100.709 283.642 99.0275 293.524 97.6187C298.455 96.9156 302.514 96.2836 305.33 95.829C306.738 95.6018 307.834 95.4189 308.572 95.2941C308.941 95.2317 309.22 95.1836 309.404 95.1519C309.496 95.136 309.565 95.1245 309.608 95.1169C309.63 95.1131 309.645 95.1097 309.654 95.1081C309.659 95.1073 309.663 95.1073 309.664 95.107L309.665 95.1059C309.665 95.106 309.664 95.1067 311.813 107.241C313.903 119.04 313.959 119.366 313.959 119.376C313.958 119.376 313.955 119.376 313.952 119.377C313.948 119.378 313.941 119.379 313.934 119.38C313.918 119.383 313.896 119.387 313.868 119.392C313.811 119.402 313.729 119.415 313.624 119.434C313.413 119.47 313.105 119.523 312.708 119.59C311.912 119.725 310.755 119.918 309.282 120.156C306.338 120.631 302.127 121.287 297.025 122.014C286.838 123.467 273.008 125.217 258.558 126.389C244.196 127.553 228.809 128.18 215.644 127.257C209.074 126.797 202.659 125.926 197.027 124.375C191.647 122.893 185.573 120.419 181.098 115.802C175.891 110.428 169.128 101.034 162.128 91.4052C154.806 81.334 146.558 70.0343 137.698 59.467C128.784 48.8361 119.681 39.475 110.828 33.0674C101.808 26.5393 94.5917 24.189 88.9998 24.7185C81.9792 25.3835 74.2255 28.7604 66.0864 34.4698C58.0275 40.1229 50.3285 47.5445 43.5396 55.1679C36.7857 62.7519 31.166 70.271 27.2279 75.913C25.2658 78.7241 23.7378 81.0449 22.7126 82.6428C22.2005 83.441 21.8151 84.0572 21.5646 84.462C21.4393 84.6644 21.3477 84.8145 21.2913 84.9073C21.2631 84.9535 21.2437 84.986 21.2331 85.0035C21.2299 85.0089 21.2259 85.0119 21.2243 85.0145C21.2002 84.9977 20.6971 84.6962 10.6122 78.6971C-0.00356916 72.3821 -0.00161343 72.3791 4.14613e-05 72.3764C0.000802069 72.3751 0.00194256 72.3721 0.00333409 72.3698C0.00626322 72.3649 0.0102647 72.359 0.0143095 72.3523C0.0225325 72.3386 0.0333719 72.321 0.0461383 72.2998C0.0717966 72.2573 0.106631 72.1989 0.150405 72.127C0.237931 71.9831 0.360878 71.7811 0.519179 71.5253C0.836054 71.0132 1.2939 70.2842 1.88233 69.367C3.0585 67.5337 4.76399 64.9433 6.93103 61.8386C11.2514 55.6489 17.4725 47.3139 25.0471 38.8083C32.5867 30.3418 41.7041 21.4375 51.8557 14.3164C61.9268 7.25174 73.7777 1.40535 86.6609 0.185123ZM21.2254 85.0156L21.2232 85.0189C21.2236 85.0183 21.2234 85.0161 21.2243 85.0145C21.2256 85.0154 21.2255 85.0155 21.2254 85.0156Z" fill="black"/>
<path d="M348.528 153.471C334.404 153.851 334.404 180.102 334.404 180.102L296.234 274.073C296.234 274.073 267.224 287.388 267.987 308.313C268.751 329.238 307.303 339.51 307.303 339.51C307.303 339.51 329.442 378.316 356.925 376.413C384.408 374.511 400.821 339.51 400.821 339.51C400.821 339.51 435.557 333.042 438.229 308.313C440.901 283.584 400.821 274.073 400.821 274.073L364.559 180.102C364.559 180.102 362.651 153.09 348.528 153.471Z" fill="#F7DE1C" stroke="black" stroke-width="5"/>
<path d="M269.887 312.496C269.887 312.496 289.354 306.409 299.278 312.496C309.203 318.584 306.531 339.511 306.531 339.511" stroke="black" stroke-width="5"/>
<path d="M438.98 312.16C438.98 312.16 421.04 306.073 411.116 312.16C401.191 318.248 401.191 338.792 401.191 338.792" stroke="black" stroke-width="5"/>
</svg>
