<svg width="258" height="310" viewBox="0 0 258 310" fill="none" xmlns="http://www.w3.org/2000/svg">
<path d="M134.351 2.5C113.315 2.5 90.7761 41.0665 90.7761 41.0665L71.7433 182.811C71.7433 182.811 12.1406 120.704 3.62591 147.75C-4.88877 174.797 37.6846 229.892 37.6846 229.892C37.6846 229.892 102.296 307.526 134.351 306.524C166.406 305.522 229.014 229.892 229.014 229.892C229.014 229.892 269.083 158.769 249.049 147.75C229.014 136.731 187.443 182.811 187.443 182.811L172.417 41.0665C172.417 41.0665 155.387 2.5 134.351 2.5Z" fill="#01B37F" stroke="black" stroke-width="5"/>
<path d="M5.62891 146.752C5.62891 146.752 48.2023 182.814 57.7187 204.852C67.2351 226.89 75.7498 269.463 75.7498 269.463" stroke="black" stroke-width="5"/>
<path d="M252.051 150.248C252.051 150.248 209.477 186.31 199.961 208.348C190.445 230.386 184.935 275.965 184.935 275.965" stroke="black" stroke-width="5"/>
<circle cx="155.883" cy="220.373" r="20.5397" fill="#01B37F" stroke="black" stroke-width="5"/>
<circle cx="111.308" cy="54.5829" r="11.0233" fill="#01B37F" stroke="black" stroke-width="5"/>
</svg>
