<svg width="285" height="218" viewBox="0 0 285 218" fill="none" xmlns="http://www.w3.org/2000/svg">
<path d="M146.252 2.5C204.36 2.5 242.719 44.7454 281.5 108.581C258.833 140.595 239.691 167.035 218.936 185.584C198.008 204.287 175.54 214.875 146.252 214.875C117.061 214.875 90.8224 201.242 66.8877 180.85C43.3794 160.821 22.3117 134.455 3.0752 108.629C49.7103 40.9074 88.0567 2.50006 146.252 2.5Z" fill="white" stroke="black" stroke-width="5"/>
<path d="M142.376 38.7734C155.646 43.7287 169.03 53.1356 179.16 65.0293C189.542 77.2185 196.344 91.8164 196.344 106.685C196.344 121.507 189.581 134.834 179.21 146.278C169.144 157.386 155.793 166.583 142.372 173.438C129.015 165.131 115.601 155.911 105.437 145.116C94.9962 134.029 88.1485 121.464 88.1484 106.685C88.1484 91.8358 94.8084 78.1234 105.12 66.3721C115.203 54.8814 128.67 45.4012 142.376 38.7734Z" fill="#01B37F" stroke="black" stroke-width="5"/>
<path d="M143.667 62.5823C151.105 70.2351 155.889 76.7011 158.874 83.2981C162.064 90.3477 163.284 97.7317 163.284 107.184C163.284 116.729 162.414 123.964 159.425 130.783C156.589 137.251 151.751 143.558 143.487 151.127C135.448 145.802 130.006 139.556 126.513 132.55C122.785 125.074 121.203 116.589 121.203 107.184C121.203 97.8606 123.003 90.2609 126.854 83.0715C130.464 76.3341 135.936 69.8411 143.667 62.5823Z" fill="black" stroke="black" stroke-width="5"/>
<path d="M164.283 84.6458C172.625 84.6458 179.811 87.4089 186.034 94.595C181.866 99.1257 178.722 101.299 175.793 102.409C172.496 103.659 169.212 103.687 164.283 103.687C159.588 103.687 155.459 103.196 151.85 101.689C148.689 100.369 145.809 98.2211 143.278 94.7004C148.664 87.4803 155.824 84.6458 164.283 84.6458Z" fill="white" stroke="black" stroke-width="5"/>
</svg>
