<svg width="1682" height="975" viewBox="0 0 1682 975" fill="none" xmlns="http://www.w3.org/2000/svg">
<rect x="2.5" y="971.914" width="969.414" height="1676.96" transform="rotate(-90 2.5 971.914)" fill="#05C1F1" stroke="black" stroke-width="5"/>
<path d="M695.784 586.744L1.5 971.5H1680.5L980.928 586.744H695.784Z" fill="#01B37F" stroke="black" stroke-width="5" stroke-linejoin="bevel"/>
<path d="M695.779 388.98L1.5 2.5L1680.5 3L980.923 388.98H695.779Z" fill="#01B37F" stroke="black" stroke-width="5" stroke-linejoin="bevel"/>
<path d="M149.668 84.5L1533.5 84.4999L1534.5 890.998L149.668 889.503L149.668 84.5Z" stroke="black" stroke-width="5"/>
<path d="M290.277 162.278L1394 160.504L1394 813.996L290.277 812.135L290.277 162.278Z" stroke="black" stroke-width="5"/>
<path d="M415.5 233.494L1266.48 231.507L1263.51 742L415.5 742L415.5 233.494Z" stroke="black" stroke-width="5"/>
<path d="M524.18 291.943L1156.48 291.943L1156.48 683.772L524.18 681.509L524.18 291.943Z" stroke="black" stroke-width="5"/>
<path d="M1059.23 344.343L1058.51 630.083L620.084 630.083L619.009 346.488L1059.23 344.343Z" stroke="black" stroke-width="5"/>
<path d="M979.094 389L979.988 586.991L698.488 586.009L697.636 389L979.094 389Z" stroke="black" stroke-width="5"/>
<path d="M2.62494 529.117L695.031 485.24" stroke="black" stroke-width="5"/>
<path d="M1678.67 533.046L980.939 488.521" stroke="black" stroke-width="5"/>
<path d="M835.066 387.015V1.60336e-05" stroke="black" stroke-width="5"/>
<path d="M835.066 973.759V586.744" stroke="black" stroke-width="5"/>
</svg>
