<svg width="231" height="342" viewBox="0 0 231 342" fill="none" xmlns="http://www.w3.org/2000/svg">
<path d="M88.8461 76.4948C88.8461 96.7845 88.8461 117.074 88.8461 137.364C88.8461 139.488 88.391 141.305 86.1054 142.146C84.0369 142.916 82.0099 142.865 80.6447 141.089C79.8276 140.022 79.3312 138.483 79.2795 137.128C78.6797 121.651 78.2659 106.155 77.6661 90.6781C76.9008 71.0144 75.97 51.3507 75.1943 31.6871C74.9461 25.5293 69.9094 20.0489 63.9005 18.5403C57.6538 16.9803 51.8311 18.0374 47.0529 22.3376C44.1674 24.9341 42.5127 28.444 42.6781 32.5799C43.0401 41.642 43.2883 50.7144 43.64 59.7868C44.6742 86.3061 45.7395 112.836 46.7944 139.355C46.8875 141.613 46.4945 143.747 44.2916 144.866C41.7784 146.149 39.1825 145.944 36.9899 144.137C36.2246 143.501 35.6351 142.311 35.5109 141.305C33.9699 128.589 32.5531 115.853 31.0534 103.127C30.0502 94.6498 29.4917 86.0803 27.7749 77.7469C25.4996 66.6937 15.2608 64.1793 6.81111 69.0645C3.92561 70.727 2.35358 73.7854 2.50872 77.3056C2.78796 84.0072 3.04651 90.7191 3.54294 97.4105C4.61854 112.107 5.81825 126.793 7.01795 141.479C8.16595 155.652 9.42771 169.815 10.5343 183.988C11.4341 195.513 11.8788 207.08 13.0889 218.574C13.968 226.908 15.4262 235.22 17.2672 243.4C18.6841 249.671 20.8559 255.818 23.1623 261.842C25.7995 268.749 29.1815 275.359 33.4425 281.465C34.4043 282.84 35.3868 284.267 36.6072 285.396C37.7759 286.484 37.9724 287.674 37.9724 289.121C37.9414 298.932 38.3758 308.764 37.8793 318.555C37.2588 330.788 46.6599 338.208 57.2608 338.906C61.9975 339.214 66.7757 339.019 71.5331 339.019C90.5629 339.029 109.593 338.978 128.633 339.05C134.29 339.071 139.658 338.013 144.074 334.473C146.349 332.646 148.087 330.039 149.721 327.556C151.469 324.898 151.551 321.737 151.551 318.637C151.551 309.708 151.603 300.78 151.541 291.861C151.531 290.312 152.131 289.624 153.413 288.782C156.402 286.812 159.598 284.872 161.925 282.245C168.254 275.123 174.294 267.733 180.231 260.282C183.654 255.993 186.705 251.405 189.849 246.91C193.613 241.512 197.502 236.185 200.915 230.571C202.322 228.252 202.653 225.286 203.418 222.597C205.724 214.479 208 206.361 210.296 198.243C212.478 190.556 214.67 182.87 216.853 175.183C219.055 167.414 221.207 159.624 223.472 151.865C224.744 147.514 226.357 143.245 227.526 138.873C228.653 134.675 227.019 130.847 224.299 127.891C217.577 120.605 207.162 120.841 200.15 126.301C197.626 128.271 196.178 131.063 195.33 134.254C193.024 142.988 190.49 151.66 188.039 160.353C186.943 164.242 185.846 168.132 184.688 172.001C183.054 177.471 181.482 182.962 179.682 188.381C178.079 193.214 170.054 195.4 165.617 192.476C162.4 190.351 161.087 187.58 161.314 183.721C162.152 168.922 162.783 154.103 163.559 139.293C164.707 117.136 165.896 94.9782 167.106 72.8207C167.82 59.7252 168.647 46.6401 169.371 33.5549C169.568 30.0655 169.082 26.8738 166.765 23.8257C163.052 18.9406 154.551 16.4877 148.666 18.3351C142.15 20.3774 137.817 24.1952 137.424 31.4202C136.917 40.4618 136.286 49.5034 135.831 58.5553C135.262 69.906 134.88 81.2568 134.311 92.6075C133.587 107.037 132.739 121.456 131.953 135.876C131.798 138.708 129.771 140.812 127.144 140.884C123.7 140.976 121.631 139.314 121.476 136.019C121.311 132.489 121.373 128.938 121.362 125.397C121.331 94.6293 121.3 63.8714 121.28 33.1033C121.28 28.2387 121.083 23.3536 121.3 18.4993C121.869 5.49619 108.383 -0.00471477 98.7437 3.56677C92.7762 5.77329 88.6393 11.0074 88.722 17.8527C88.9702 37.4035 88.8151 56.9543 88.8151 76.5051C88.8254 76.4948 88.8358 76.4948 88.8461 76.4948Z" fill="#F7DE1C" stroke="black" stroke-width="5" stroke-miterlimit="10"/>
</svg>
