<svg width="83" height="84" viewBox="0 0 83 84" fill="none" xmlns="http://www.w3.org/2000/svg">
<path d="M81.8842 40.8094L64.0971 37.5412L55.6662 35.9931C51.4507 35.2019 48.1264 31.8993 47.3724 27.6678L45.7273 18.7577L42.4715 0.903053C42.2659 -0.301018 40.518 -0.301018 40.3124 0.903053L37.0565 18.7577L35.4115 27.6678C34.6232 31.8993 31.3331 35.2363 27.1177 35.9931L18.6868 37.5412L0.899638 40.8094C-0.299879 41.0158 -0.299879 42.7703 0.899638 42.9767L18.584 46.2793L27.0149 47.8274C31.2303 48.6187 34.5547 51.9213 35.3087 56.1527L36.9537 65.0628L40.2095 82.9175C40.4152 84.1216 42.163 84.1216 42.3687 82.9175L45.6245 65.0628L47.2696 56.1527C48.0578 51.9213 51.3479 48.5843 55.5634 47.8274L64.0971 46.2793L81.8842 43.0111C83.0837 42.7703 83.0837 41.0502 81.8842 40.8094Z" fill="white"/>
</svg>
