<svg width="455" height="226" viewBox="0 0 455 226" fill="none" xmlns="http://www.w3.org/2000/svg">
<path d="M272.182 134.128V225.063H262.411V134.128H272.182ZM223.046 134.128V225.063H213.297V134.128H223.046ZM233.887 36.4678L241.164 84.1963L241.229 84.6201H244.229L244.293 84.1963L251.569 36.4678H272.182V121.265H262.411V46.2393H259.974L259.909 46.6631L252.633 94.3916H232.846L225.569 46.6631L225.505 46.2393H223.046V121.265H213.297V36.4678H233.887Z" fill="white" stroke="white"/>
<path d="M156.521 134.13V215.295H177.031V134.13H186.78V225.065H146.75V134.13H156.521Z" fill="white" stroke="white"/>
<path d="M136.399 134.13V225.065H126.629V134.13H136.399Z" fill="white" stroke="white"/>
<path d="M136.399 36.4697V85.9775H146.751V36.4697H186.781V121.267H177.032V46.2412H156.521V121.267H146.751V94.3281H136.399V121.267H126.629V36.4697H136.399Z" fill="white" stroke="white"/>
<path d="M405.348 134.13V225.065H395.576V143.9H380.294L380.247 144.348L371.839 225.065H352.711V215.295H363.039L363.086 214.846L371.494 134.13H405.348Z" fill="white" stroke="white"/>
<path d="M405.347 36.4695V121.266H395.576V103.701H365.316V36.4695H405.347ZM375.087 95.3279H395.576V46.241H375.087V95.3279Z" fill="white" stroke="white"/>
<path d="M329.135 66.1404L328.229 67.4011L311.58 90.5593L308.719 94.5359L308.624 94.6667V121.266H298.875V36.4695H308.624V80.3445L309.53 79.0828L329.04 51.9265L329.135 51.7957V36.4695H338.905V121.266H329.135V66.1404Z" fill="white" stroke="white"/>
<path d="M308.624 134.13V225.065H298.875V134.13H308.624Z" fill="white" stroke="white"/>
<path d="M338.907 134.13V225.065H329.137V134.13H338.907Z" fill="white" stroke="white"/>
<path d="M70.3252 134.32L65.2617 224.584V225.04H46.1758V214.897H56.0488L56.0762 214.424L60.5732 134.32H70.3252Z" fill="white" stroke="white"/>
<path d="M100.21 36.4678V120.893H90.5654V45.1699H75.8711L75.8428 45.6396L71.3398 120.893H61.6758L66.7295 36.4951L67.1299 36.5186V36.4678H100.21Z" fill="white" stroke="white"/>
<path d="M100.029 134.32V225.04H90.2383V134.32H100.029Z" fill="white" stroke="white"/>
<path d="M446.726 0.5V102.251H436.911V10.3145H10.3145V215.221H34.6309V225.036H0.5V0.5H446.726Z" fill="white" stroke="white"/>
<path d="M442.149 114.197V114.198L442.688 117.107V117.108C442.973 118.7 444.227 119.937 445.81 120.233H445.811L448.576 120.739L453.688 121.675L448.576 122.612L445.778 123.118C444.187 123.403 442.951 124.656 442.655 126.239V126.24L442.116 129.153V129.154L441.186 134.238L440.256 129.154V129.153L439.716 126.24C439.43 124.649 438.178 123.414 436.597 123.118H436.595L433.83 122.612H433.831L428.773 121.67L433.863 120.739L436.628 120.233L436.627 120.232C438.218 119.947 439.454 118.694 439.75 117.112V117.111L440.289 114.198L440.29 114.197L441.22 109.113L442.149 114.197Z" fill="white" stroke="white"/>
</svg>
