<svg width="658" height="323" viewBox="0 0 658 323" fill="none" xmlns="http://www.w3.org/2000/svg">
<path d="M256.792 320.494C238.049 320.494 6.14453 149.584 6.14453 149.584L337.482 89.2256L652.617 149.584C652.617 149.584 479.801 320.494 458.199 320.494H256.792Z" fill="#FF4431" stroke="black" stroke-width="5"/>
<path d="M206.283 2.5C179.915 2.5 9.64062 147.361 9.64062 147.361H206.283C206.283 147.361 315.564 202.001 334.942 202.319C354.32 202.636 483.615 147.361 483.615 147.361H650.713C650.713 147.361 509.664 2.5 483.615 2.5C457.565 2.5 361.309 79.0601 334.942 80.0132C308.575 80.9662 232.65 2.5 206.283 2.5Z" fill="#FF4431" stroke="black" stroke-width="5"/>
<path d="M181.501 197.234L156.723 148.312H208.186L181.501 197.234Z" fill="white" stroke="black" stroke-width="5"/>
<path d="M510.615 197.234L485.836 148.312H537.3L510.615 197.234Z" fill="white" stroke="black" stroke-width="5"/>
</svg>
