<svg width="653" height="389" viewBox="0 0 653 389" fill="none" xmlns="http://www.w3.org/2000/svg">
<path d="M208.785 56.1975L7.89453 187.897L236.338 275.497L515.38 241.297L648.138 187.897L493.337 56.1975L328.016 105.697L208.785 56.1975Z" fill="black" stroke="black" stroke-width="5"/>
<path d="M252.013 339.861C233.233 339.861 1.37891 186.7 1.37891 186.7L340.036 259C340.036 259 646.632 184.9 648.636 186.4C650.639 187.9 475.456 339.861 453.812 339.861H252.013Z" fill="#FF4431" stroke="black" stroke-width="5"/>
<path d="M203.83 163.292L179.227 87.0923H230.326L203.83 163.292Z" fill="white" stroke="black" stroke-width="5"/>
<path d="M475.357 163.292L450.754 87.0923H501.853L475.357 163.292Z" fill="white" stroke="black" stroke-width="5"/>
<path d="M201.913 2.5C175.495 2.5 1.88281 188.499 1.88281 188.499L201.913 89.4161C201.913 89.4161 311.407 122.2 330.823 122.391C350.239 122.581 479.785 89.4161 479.785 89.4161L648.639 187.299C648.639 187.299 505.885 2.5 479.785 2.5C453.684 2.5 357.241 48.4359 330.823 49.0077C304.404 49.5796 228.332 2.5 201.913 2.5Z" fill="#FF4431" stroke="black" stroke-width="5"/>
<path d="M301.522 185.597C257.804 190.768 194.758 204.1 194.758 216.619C194.758 229.138 356.285 358.67 381.136 371.187C405.986 383.703 462.59 389.148 480.537 384.521C498.485 379.893 515.512 345.336 520.114 333.905C524.716 322.475 470.413 222.063 462.59 211.993C454.766 201.924 345.241 180.427 301.522 185.597Z" fill="#FF8CBD" stroke="black" stroke-width="5"/>
<path d="M316.992 185.492C316.992 185.492 353.062 204.092 380.115 231.992C407.167 259.892 427.707 302.792 427.707 302.792" stroke="black" stroke-width="5"/>
</svg>
