<svg width="269" height="154" viewBox="0 0 269 154" fill="none" xmlns="http://www.w3.org/2000/svg">
<path d="M134.231 2.5C171.356 2.5 204.408 4.28193 228.159 14.5049C239.959 19.5838 249.352 26.7047 255.818 36.6504C262.288 46.6014 265.963 59.5895 265.963 76.6318C265.963 95.4745 262.268 109.339 255.799 119.602C249.347 129.837 239.992 136.721 228.23 141.359C216.424 146.015 202.249 148.384 186.294 149.573C170.345 150.762 152.788 150.764 134.231 150.764C97.1244 150.764 64.0656 148.734 40.3135 138.388C28.5087 133.246 19.1099 126.092 12.6416 116.188C6.17154 106.28 2.5 93.4167 2.5 76.6318C2.50003 59.8472 6.17165 46.9841 12.6416 37.0771C19.1099 27.1728 28.5086 20.018 40.3135 14.876C64.0656 4.53 97.1244 2.5 134.231 2.5Z" fill="#7A59A4" stroke="black" stroke-width="5"/>
<path d="M3.50391 79.1321H116.699V126.714H54.592V100.669H96.6645V114.193" stroke="black" stroke-width="5"/>
<path d="M264.453 79.1321H151.258V126.714H213.365V100.669H171.293V114.193" stroke="black" stroke-width="5"/>
<path d="M134.232 16.5217C150.721 16.5217 165.582 17.8039 176.262 19.8508C181.622 20.8782 185.801 22.0746 188.581 23.3342C189.979 23.9676 190.886 24.5566 191.406 25.0442C191.674 25.2953 191.78 25.4611 191.819 25.5413C191.78 25.6212 191.675 25.7868 191.406 26.0383C190.886 26.5259 189.979 27.115 188.581 27.7483C185.801 29.0079 181.622 30.2043 176.262 31.2317C165.582 33.2786 150.721 34.5618 134.232 34.5618C117.744 34.5618 102.883 33.2786 92.2031 31.2317C86.843 30.2043 82.6634 29.0079 79.8838 27.7483C78.4863 27.115 77.5791 26.5258 77.0586 26.0383C76.7901 25.7868 76.6851 25.6212 76.6455 25.5413C76.6853 25.4611 76.7904 25.2954 77.0586 25.0442C77.5791 24.5566 78.4861 23.9676 79.8838 23.3342C82.6634 22.0746 86.8429 20.8782 92.2031 19.8508C102.883 17.8039 117.744 16.5217 134.232 16.5217Z" fill="white" stroke="black" stroke-width="5"/>
</svg>
