<svg width="239" height="253" viewBox="0 0 239 253" fill="none" xmlns="http://www.w3.org/2000/svg">
<path d="M234.145 99.8505C231.064 88.4032 227.014 77.5661 215.805 71.1503C211.503 68.6792 209.017 64.4218 208.228 59.5243C207.499 54.9543 207.082 50.2949 206.903 45.6505C206.293 30.0499 200.785 17.0544 185.989 10.2961C168.23 2.16836 150.039 3.15084 133.054 12.3057C126.355 15.9231 122.172 16.4143 115.726 11.9485C103.847 3.68673 89.8545 1.52826 75.6235 2.868C53.741 4.90739 39.8821 17.1884 35.4461 38.4605C34.1063 44.8764 34.1659 51.6049 33.8086 58.2143C33.5556 63.0076 31.6055 66.8631 27.8095 69.6021C24.0434 72.3114 19.9944 74.6336 16.0496 77.0898C6.85 82.806 1.80363 90.8892 2.57771 101.875C2.94986 107.308 3.90256 112.742 5.07856 118.071C7.99622 131.275 13.4743 143.601 19.0268 155.837C29.9978 180.042 36.369 205.154 35.0144 231.934L34.2254 247.669C34.1659 248.83 35.0888 249.798 36.2499 249.798H181.835C181.865 249.604 181.895 249.396 181.925 249.202C185.11 228.704 191.139 209.397 202.363 191.772C210.476 179.044 218.425 166.168 225.839 153.023C235.202 136.44 239.236 118.771 234.145 99.8505ZM53.7708 127.434C52.312 136.44 46.5213 142.827 38.8103 143.184C31.7246 143.511 26.1423 140.236 22.391 134.386C18.4313 128.223 16.1835 121.376 16.258 112.861C16.4813 106.668 18.0294 99.7761 21.5276 93.4049C24.5644 87.8971 29.0004 86.4085 34.2254 89.3857C44.7052 95.3401 56.4354 111.03 53.7708 127.434ZM57.924 31.211C59.6359 25.8074 62.2112 20.8652 66.3346 16.9055C72.8845 10.6236 80.2382 10.7576 86.6094 17.2181C91.6409 22.3092 94.1715 28.7697 96.196 35.4387C97.1785 38.6987 97.893 42.0629 98.3843 45.4272C99.0541 50.0567 99.4263 54.7458 100.081 60.9831C100.096 61.1617 100.096 61.3552 100.066 61.5339C99.2328 66.2825 98.6373 72.6091 96.8659 78.5635C92.5787 92.9434 78.1988 95.9653 67.9125 84.9198C62.0474 78.6231 59.4126 70.793 57.9984 62.5461C56.227 52.1259 54.6342 41.6461 57.924 31.211ZM174.392 166.302C171.43 174.772 159.238 179.744 150.381 177.318C147.865 176.633 144.724 174.087 143.117 172.048C141.777 170.351 140.006 169.621 137.907 169.845C134.632 170.187 131.401 170.902 128.141 171.482C124.986 172.048 121.83 172.643 118.674 173.224C118.51 173.254 118.346 173.268 118.183 173.254C111.38 173.015 105.723 170.321 100.989 165.825C97.372 162.387 93.6058 161.94 89.3782 164.099C86.9964 165.319 84.6742 166.689 82.4413 168.163C77.9159 171.155 73.1078 173.03 67.585 172.733C62.5089 172.45 60.0825 170.663 58.3706 165.93C54.4704 155.093 56.9415 145.744 66.2453 138.614C70.1305 135.637 74.7452 133.567 79.0771 131.186C80.7889 130.233 82.6497 129.548 84.4509 128.744C87.2793 127.479 89.2591 125.648 90.4798 122.537C91.9088 118.934 93.9184 115.451 96.2109 112.295C107.182 97.2455 123.81 98.0345 134.825 102.843C140.065 105.135 143.593 109.363 146.005 114.454C147.478 117.52 148.759 120.706 149.83 123.936C151.066 127.687 153.388 130.441 156.693 132.421C159.179 133.91 161.695 135.354 164.225 136.753C176.462 143.482 177.861 156.447 174.392 166.302ZM168.944 82.6423C167.753 84.4435 166.354 86.1405 164.821 87.6589C156.886 95.5187 146.57 94.5511 140.125 85.3367C135.346 78.504 134.155 70.6441 135.391 62.7545C136.731 54.1206 138.785 45.5165 141.435 37.1803C144.352 28.0701 150.56 21.282 159.209 16.9502C167.783 12.6481 176.104 15.9379 179.037 25.1375C180.54 29.8564 181.121 34.8879 181.672 37.7609C181.701 37.9246 181.716 38.0884 181.701 38.2521C180.764 55.6241 177.384 69.8998 168.944 82.6423ZM215.835 135.116C210.61 139.715 204.626 142.097 197.853 139.105C190.663 135.949 186.926 129.816 186.539 122.209C185.736 106.147 192.955 93.8812 205.861 84.8752C212.739 80.067 218.038 81.5705 221.789 89.0582C224.916 95.3401 226.047 102.128 226.315 109.541C226.315 109.601 226.315 109.66 226.315 109.735C226.002 119.188 223.62 128.253 215.835 135.116Z" fill="#7A59A4" stroke="black" stroke-width="5" stroke-miterlimit="10"/>
<path d="M118.42 173.268C111.513 173.09 105.782 170.381 100.974 165.825C97.3564 162.387 93.5902 161.94 89.3626 164.099C86.9808 165.319 84.6437 166.689 82.4108 168.163C77.8855 171.155 73.0773 173.03 67.5545 172.718C62.4784 172.435 60.052 170.663 58.3401 165.915C54.4399 155.078 56.911 145.729 66.2148 138.599C70.1149 135.622 74.7147 133.553 79.0615 131.171C80.7733 130.233 82.6341 129.533 84.4204 128.729C87.2488 127.464 89.2286 125.633 90.4642 122.537C91.8932 118.92 93.9028 115.436 96.1953 112.295C107.166 97.2306 123.794 98.0195 134.795 102.843C140.035 105.135 143.578 109.363 145.989 114.454C147.448 117.535 148.728 120.706 149.8 123.951C151.035 127.702 153.358 130.441 156.662 132.436C159.148 133.925 161.664 135.369 164.195 136.768C176.446 143.511 177.83 156.477 174.377 166.332C170.998 175.933 155.725 181.069 146.957 175.933C145.662 175.174 144.396 174.057 143.607 172.807C142.208 170.589 140.258 169.621 137.876 169.874C134.601 170.217 131.371 170.931 128.111 171.512C124.896 172.063 121.65 172.673 118.42 173.268Z" fill="#FF8CBD" stroke="black" stroke-width="5" stroke-miterlimit="10"/>
<path d="M181.718 37.9839C180.795 55.475 177.431 69.8251 168.946 82.642C167.755 84.4432 166.341 86.1402 164.807 87.6586C156.873 95.5184 146.557 94.536 140.112 85.3215C135.333 78.4888 134.157 70.629 135.378 62.7543C136.717 54.1204 138.772 45.5013 141.436 37.18C144.339 28.0698 150.562 21.2669 159.195 16.9499C167.77 12.6627 176.091 15.9377 179.024 25.1372C180.602 29.9901 181.152 35.1704 181.718 37.9839Z" fill="#FF8CBD" stroke="black" stroke-width="5" stroke-miterlimit="10"/>
<path d="M100.109 61.2657C99.246 66.0441 98.6803 72.4898 96.8642 78.5633C92.577 92.9432 78.212 95.9651 67.9258 84.9196C62.0607 78.6228 59.4109 70.7928 58.0117 62.5459C56.2402 52.1257 54.6474 41.6608 57.9372 31.2108C59.6491 25.8072 62.2244 20.865 66.3478 16.9053C72.8828 10.6234 80.2514 10.7574 86.6077 17.2179C91.6392 22.309 94.1698 28.7695 96.1943 35.4384C97.1768 38.6985 97.8914 42.0627 98.3826 45.427C99.0822 50.1161 99.4395 54.8647 100.109 61.2657Z" fill="#FF8CBD" stroke="black" stroke-width="5" stroke-miterlimit="10"/>
<path d="M226.315 109.631C226.017 119.128 223.65 128.253 215.835 135.115C210.61 139.715 204.626 142.097 197.853 139.105C190.663 135.934 186.926 129.816 186.539 122.209C185.721 106.147 192.955 93.8812 205.861 84.8751C212.739 80.0669 218.038 81.5853 221.775 89.073C224.93 95.3549 226.062 102.188 226.315 109.631Z" fill="#FF8CBD" stroke="black" stroke-width="5" stroke-miterlimit="10"/>
<path d="M16.2596 112.861C16.4829 106.668 18.031 99.761 21.5293 93.4047C24.566 87.8969 29.0021 86.4082 34.2271 89.3855C44.7068 95.3548 56.437 111.03 53.7873 127.434C52.3285 136.44 46.5378 142.826 38.8268 143.184C31.7262 143.511 26.1588 140.236 22.4075 134.401C18.433 128.223 16.1852 121.376 16.2596 112.861Z" fill="#FF8CBD" stroke="black" stroke-width="5" stroke-miterlimit="10"/>
</svg>
