<svg width="258" height="273" viewBox="0 0 258 273" fill="none" xmlns="http://www.w3.org/2000/svg">
<path d="M20.7447 116.572C22.0549 118.639 23.4855 120.862 24.9113 123.16C26.1845 125.635 26.421 132.494 28.2565 135.251C30.0042 137.876 31.1011 140.167 32.5053 143.198C33.4996 145.344 34.2744 147.794 35.7659 149.633C37.3145 151.543 38.2078 153.724 39.4997 155.833C40.8146 157.98 42.7425 160.489 44.9907 162.792C48.0486 165.925 50.1279 167.658 51.8599 169.621C53.3704 171.333 55.0946 173.021 56.5487 175.344C57.8195 177.374 58.8158 179.734 60.0059 182.422C61.396 185.562 62.6622 188.178 63.7803 190.526C64.9724 193.03 66.1025 195.047 67.8753 197.082C69.7458 199.229 71.2483 201.188 72.6427 203.082C74.1568 205.138 75.7848 207.8 77.2597 210.212L77.3708 210.393C78.563 212.343 79.9423 215.628 81.3443 218.541C82.3779 220.688 83.266 222.623 84.2841 224.5C85.3201 226.41 86.3197 228.706 88.4602 231.735C90.0887 234.04 91.4593 236.202 93.0691 239.048C94.781 242.075 96.1889 245.216 97.9975 246.953C100.108 248.98 102.86 251.684 106.146 254.145C108.372 255.813 110.521 257.677 112.86 259.07C115.133 260.425 117.711 261.574 119.856 262.487C122.282 263.519 124.64 264.387 126.968 265.029C129.277 265.665 131.731 266.094 134.004 267.058C136.907 268.288 139.42 269.103 141.751 269.319C144.303 269.556 149.228 269.576 152.48 269.796C154.789 269.952 157.661 269.927 160.309 269.555C162.509 269.246 164.585 268.688 167.727 267.843L168.02 267.765C170.526 267.091 172.913 267.084 175.131 266.854C177.44 266.614 179.796 266.049 182.086 265.541C184.431 265.022 186.632 264.315 188.88 262.876C190.869 261.602 193.223 260.548 195.198 259.179C198.603 256.82 203.79 254.195 206.326 252.583C208.512 251.193 211.019 249.864 213.478 248.411C215.913 246.972 219.929 243.524 224.809 238.228C227.587 235.213 229.398 233.206 231.559 230.484C233.548 227.979 235.326 225.786 237.479 222.934C239.189 220.669 240.488 218.79 242.129 216.535C244.039 213.911 245.867 212.048 246.815 209.58C247.93 206.678 248.974 204.16 249.475 201.436C249.913 199.053 249.978 193.028 250.029 188.309L250.029 188.277C250.071 184.422 250.181 181.813 251.783 177.709C252.856 174.961 253.908 171.994 254.243 169.048C254.52 166.621 254.762 163.613 253.243 161.539C251.73 159.473 249.595 157.298 247.36 155.581C245.288 153.989 241.718 153.518 241.363 151.366C240.929 148.734 241.005 145.298 240.051 142.577C238.617 138.486 237.235 135.187 234.883 131.535C233.371 129.188 231.558 125.507 228.562 122.355C226.295 119.97 221.154 114.788 220.978 117.284C220.825 119.441 221.289 122.134 221.618 124.56C221.936 126.908 222.428 129.272 222.531 131.875L222.561 132.627C222.68 135.657 222.844 139.837 223.008 143.198C223.128 145.663 224.049 147.775 224.398 151.464C224.473 152.258 224.237 152.73 223.754 153.007C223.271 153.283 222.466 153.198 221.966 153.604C220.1 155.119 218.451 157.115 217.799 159.649C217.082 162.439 216.501 165.303 215.652 168.235C214.778 171.256 214.937 174.511 212.944 176.501C210.162 179.277 208.522 181.703 205.99 182.454C203.324 183.245 200.326 183.733 198.639 182.044C197.449 180.853 196.059 179.264 195.305 177.432C194.192 174.728 193.751 171.976 192.962 169.605C192.127 167.098 191.744 164.229 191.335 161.538C190.935 158.91 190.122 156.099 189.108 151.481C188.47 148.577 187.506 145.973 187.122 143.856C186.725 141.667 185.73 139.558 185.492 135.984C185.299 133.079 185.783 130.226 185.413 127.92C185.056 125.692 184.896 123.458 184.619 121.244C184.34 119.016 183.421 116.353 183.228 113.731C182.991 110.504 183.157 107.497 183.03 104.945C182.829 100.891 182.106 98.2377 181.877 95.9706C181.637 93.5804 180.552 90.9557 181.368 88.0476C183.072 81.9783 183.085 79.631 182.551 76.6947C182.037 73.8717 182.072 70.8585 182.277 68.2721C182.514 65.2786 181.787 61.6856 180.443 59.0937C179.329 56.9431 177.398 53.9476 175.114 51.4246C173.129 49.2323 173.369 46.5811 172.022 39.2933C171.136 34.502 169.254 29.4992 168.484 26.9044C167.726 24.3544 166.689 21.8425 166.06 18.954C165.261 15.2845 165.496 10.955 163.114 7.63327C162.634 6.96328 161.991 6.76273 161.686 7.08846C161.053 7.76441 160.331 9.63874 159.901 12.0597C159.462 14.5311 159.066 17.2092 158.709 19.5727C158.27 22.4756 158.164 27.2837 157.476 30.7789C156.921 33.6007 156.754 35.8501 156.245 38.0487C155.729 40.2768 155.745 42.6547 156.009 44.9632C156.291 47.4345 158.904 51.6559 156.477 52.9875C155.326 53.6194 153.793 53.8828 153.22 55.1406C152.388 56.9669 151.856 58.7109 151.755 59.9449C151.518 62.861 151.903 66.3267 151.996 69.9054C152.233 79.0695 151.998 82.2423 152.234 84.5426C152.472 86.8518 152.018 89.2426 152.314 92.4526C152.71 96.7419 152.372 103.381 152.552 106.001C152.71 108.311 152.851 110.689 152.989 113.753C153.106 116.336 154.172 120.984 151.909 124.681C151.036 126.107 149.769 128.788 148.846 127.887C146.42 125.516 145.509 121.382 145.04 116.908C144.761 114.248 144.536 112.021 144.325 109.601C144.127 107.333 143.983 105.104 143.609 99.6997C143.411 96.8421 143.076 94.6351 142.974 92.0329C142.853 88.9739 142.813 85.4805 142.895 81.7709C143.016 76.3371 143.586 74.1124 143.371 69.5001C143.173 65.2596 143.163 59.8741 142.695 56.1897C142.377 53.6861 142.291 50.0333 140.425 48.0067C138.633 46.0611 135.927 45.5658 134.663 43.5958C133.95 42.4847 133.306 40.8028 132.799 38.9833C131.795 35.3842 129.724 30.0641 128.742 27.0153C127.193 22.2085 125.506 17.5104 123.617 10.1261C122.744 6.71531 121.352 0.342655 120.001 2.43906C119.487 3.23661 119.369 4.5458 118.766 6.47331C116.54 13.5869 114.471 18.7694 114.362 22.1191C114.242 25.8136 113.9 30.762 114.283 34.2743C114.566 36.8625 116 39.3844 115.634 41.6251C115.191 44.3397 114.112 47.3596 112.887 49.6519C111.695 51.8836 110.326 54.2297 110.309 57.5428C110.269 65.312 110.069 67.7 110.709 70.7172C111.385 73.9003 111.567 76.6875 113.255 81.3679L113.265 81.3974C114.823 85.7191 116.881 91.4251 116.347 94.72C115.753 98.3871 115.651 101.898 116.073 104.216C116.631 107.281 117.661 110.57 118.1 113.792C118.457 116.417 118.711 119.428 118.814 122.179C118.934 125.397 120.375 130.197 117.812 133.579C117.332 134.214 116.732 134.699 116.303 134.483C115.432 134.044 114.635 133.039 114.12 131.815C113.045 129.259 111.97 126.168 111.06 121.994C110.269 118.368 110.268 114.875 109.991 112.661C109.712 110.433 109.23 108.329 108.518 106.102C107.642 103.361 105.665 99.4699 105.301 95.4902C105.024 92.4693 104.642 89.1183 104.069 85.7956C103.589 83.0083 102.872 80.3306 102.439 77.4911C102.082 75.1449 101.822 71.078 99.7738 68.3925C98.2573 66.404 95.1991 64.9937 93.8106 62.8693C92.0629 60.1953 91.4205 57.1436 89.9528 52.6311C87.3754 44.7068 86.6202 42.724 85.27 39.6998C84.2758 37.4729 83.0811 35.1308 81.969 32.5397C80.0603 28.093 79.2087 24.8152 75.7257 22.0989C74.9674 21.5075 74.027 21.2384 73.8647 21.6733C73.1506 23.5867 72.5805 25.8006 72.6368 28.9263C72.7596 35.7514 73.4154 38.5893 73.5118 41.072C73.6322 44.1728 73.5387 47.8214 73.5905 50.6855C73.6322 52.9947 73.7232 55.38 74.0292 57.6C74.3475 59.9092 75.2153 64.9792 73.0278 68.0921C71.2384 70.6386 69.3683 73.3855 69.0985 76.5969C68.7825 80.357 68.4183 86.4733 69.9437 91.3975C72.2064 98.7018 73.1289 101.851 73.3139 104.094C73.5512 106.971 73.0966 110.416 72.9146 113.315C72.7548 115.859 72.4455 118.079 72.5581 120.348C72.6785 122.774 72.8865 126.646 74.7075 130.721C75.7018 132.945 76.4687 134.97 78.4449 137.753C79.9983 139.941 81.7112 141.816 82.9739 144.11C84.0469 146.059 85.8051 148.527 85.0721 151.582C84.91 152.258 84.5888 152.91 84.1542 152.804C83.1623 152.563 82.094 151.971 81.1333 151.29C79.1066 149.855 76.9131 146.656 75.455 144.135C74.2569 142.063 72.1231 139.771 70.2465 138.136C68.3724 136.503 66.1304 134.333 64.2464 132.094C62.3306 129.817 60.0425 126.597 58.1605 123.658C55.1872 119.016 53.9045 116.647 51.8862 114.289C49.5317 111.539 46.3614 107.62 42.6231 106.824C39.8418 106.231 36.8306 108.351 34.6727 106.578C32.6889 104.949 30.9311 102.601 28.9515 101.134C23.991 97.4572 18.3995 93.7859 16.5591 92.5968C14.6493 91.3629 12.8126 89.9714 10.5971 88.8618C8.45007 87.7865 2.5549 83.9157 3.25227 86.4858C3.69576 88.1203 4.84093 90.3258 5.84045 92.4097C6.79536 94.4006 7.83747 96.4021 9.29888 98.7686C10.7771 101.162 12.9471 104.2 14.5503 106.806C17.5295 111.649 19.0073 113.831 20.7447 116.572Z" fill="#01B37F"/>
<path d="M23.9769 123.74C24.5998 123.353 25.2228 122.967 25.8457 122.58C24.7841 120.236 23.5458 118 22.1889 115.862C22.1579 115.813 22.1269 115.764 22.096 115.716C20.0723 112.564 17.8086 109.659 15.8719 106.499C15.7975 106.379 15.7222 106.256 15.646 106.132C14.0482 103.536 12.3475 101.07 10.7733 98.5951C10.6612 98.4183 10.5493 98.2397 10.4405 98.0636C9.33213 96.2724 8.32307 94.4381 7.39533 92.543C7.27901 92.3062 7.16324 92.0687 7.04789 91.8305C6.2406 90.156 5.36227 88.5319 4.76476 86.9378C4.66552 86.6682 4.57625 86.4 4.5064 86.1456C4.47577 86.0757 4.52222 86.0144 4.4698 86.2805C4.44089 86.4123 4.30666 86.6484 4.12662 86.7707C3.95539 86.8918 3.83312 86.9074 3.78744 86.9147C3.65585 86.9076 4.01589 86.9451 4.26993 87.0441C4.83292 87.2367 5.47131 87.5439 6.08975 87.8614C7.35036 88.5073 8.55617 89.2427 9.93739 89.9683C9.96576 89.9828 9.99383 89.997 10.0216 90.0109C11.9355 90.9635 13.6799 92.3124 15.6093 93.6125C15.6774 93.6581 15.7459 93.7037 15.8146 93.7492C19.8027 96.4084 23.757 99.1594 27.5756 102.035C27.7273 102.149 27.8784 102.264 28.0286 102.379C28.3857 102.653 28.7392 102.968 29.0885 103.304C30.3374 104.504 31.5151 105.972 33.0178 107.333C33.2136 107.509 33.4151 107.684 33.6236 107.855C35.2145 109.213 37.3609 109.014 38.6317 108.784C39.9914 108.544 41.1271 108.284 41.9906 108.395C42.0904 108.407 42.1858 108.422 42.2784 108.442C45.2035 109.109 47.7616 112.074 50.1619 114.926C50.2985 115.088 50.4365 115.251 50.5737 115.413C52.6381 117.85 54.3061 120.925 56.1907 123.866C56.348 124.117 56.5038 124.364 56.6641 124.617C58.3587 127.28 60.1335 129.869 62.1127 132.382C62.3504 132.682 62.592 132.98 62.8392 133.278C64.4506 135.211 66.1836 136.983 68.0055 138.666C68.3335 138.968 68.6666 139.269 69.0016 139.564C70.5127 140.909 71.9455 142.434 73.0821 144.02C73.3377 144.38 73.5752 144.744 73.7813 145.103C75.1056 147.367 76.5138 149.55 78.4955 151.579C78.9429 152.025 79.4326 152.464 80.0135 152.871C80.5228 153.226 81.058 153.56 81.6402 153.862C82.2264 154.164 82.8687 154.406 83.6021 154.599C83.6386 154.608 83.6751 154.617 83.7118 154.626C84.4869 154.854 85.4339 154.446 85.7623 154.113C86.1429 153.775 86.2981 153.499 86.4342 153.259C86.6876 152.781 86.7969 152.403 86.8923 152.019C87.5756 149.375 86.5743 146.666 85.5098 144.808C85.1958 144.235 84.875 143.7 84.6057 143.212C83.5658 141.323 82.2714 139.731 81.1118 138.22C80.7126 137.701 80.3259 137.189 79.9604 136.677C78.8906 135.187 78.0267 133.653 77.2618 131.944C76.9731 131.309 76.6879 130.647 76.3835 129.972C75.3418 127.669 74.7621 125.159 74.5224 122.557C74.4512 121.807 74.4068 121.045 74.3678 120.258C74.2981 118.904 74.4003 117.481 74.5222 115.991C74.5904 115.155 74.6633 114.299 74.7169 113.428C74.8479 111.332 75.0971 109.147 75.1632 106.877C75.1898 105.923 75.1852 104.949 75.102 103.946C74.6533 100.119 73.4907 97.0455 72.5363 93.768C72.2391 92.8024 71.9387 91.8362 71.6383 90.8726C70.6092 87.5156 70.4753 83.7337 70.6288 79.9951C70.6752 78.9159 70.75 77.8326 70.8401 76.7433C70.9679 75.1217 71.6438 73.4964 72.5888 71.9086C73.1432 70.9725 73.7843 70.0456 74.4536 69.0941C76.2133 66.4944 76.2877 63.6345 76.176 61.1113C76.1055 59.8178 75.9235 58.5336 75.7559 57.362C75.6203 56.3802 75.53 55.3766 75.4671 54.3625C75.3914 53.1407 75.3555 51.903 75.3334 50.654C75.303 48.823 75.3257 46.9525 75.3219 45.0692C75.3194 43.7261 75.3076 42.3736 75.254 41.0043C75.0754 38.1136 74.6665 35.6831 74.532 33.0736C74.4449 31.687 74.3772 30.2973 74.3354 28.8958C74.3071 27.97 74.3369 27.0555 74.4447 26.1566C74.5208 25.5213 74.6352 24.8963 74.7892 24.2771C74.9575 23.5992 75.1733 22.9307 75.4285 22.2569C75.3217 22.6078 74.9032 22.9757 74.6558 23.0495C74.4002 23.144 74.2894 23.1281 74.2297 23.1297C74.1194 23.1215 74.1735 23.1212 74.2273 23.1455C74.35 23.1925 74.5421 23.303 74.6918 23.4245C76.4925 24.8204 77.6396 26.6929 78.5932 28.9761C79.171 30.3328 79.7023 31.7911 80.3087 33.2524C80.7129 34.2299 81.1382 35.1916 81.5732 36.138C82.2472 37.6056 82.9369 39.0415 83.5623 40.4623C84.7225 43.0435 85.6356 45.6591 86.537 48.3971C87.0646 49.9987 87.5779 51.6118 88.0918 53.2364C88.6533 55.0009 89.1458 56.7908 89.7402 58.6515C90.3015 60.3928 90.9959 62.256 92.1163 63.9766C92.813 65.0373 93.6368 65.7795 94.4078 66.4298C95.9084 67.6708 97.4082 68.6672 98.1327 69.644C98.7224 70.4261 99.1607 71.4581 99.4744 72.5931C99.9163 74.171 100.094 75.8625 100.363 77.8075C100.504 78.7528 100.675 79.6812 100.854 80.5932C101.233 82.5133 101.626 84.3653 101.898 86.1699C102.083 87.3975 102.245 88.6324 102.398 89.8711C102.636 91.8032 102.828 93.7483 102.993 95.7015C103.157 97.6074 103.618 99.3839 104.163 101.055C104.832 103.123 105.7 105.096 106.264 106.822C106.305 106.948 106.344 107.073 106.383 107.198C106.973 109.1 107.402 111.007 107.646 112.954C107.749 113.785 107.809 114.747 107.881 115.71C108.04 117.899 108.258 120.196 108.766 122.494C109.031 123.693 109.327 124.885 109.661 126.076C109.983 127.223 110.392 128.351 110.818 129.468C111.048 130.074 111.32 130.663 111.555 131.266C111.736 131.732 111.925 132.198 112.118 132.657C112.737 134.023 113.474 135.401 115.326 136.425C116.121 136.84 117.021 136.718 117.477 136.545C117.967 136.368 118.254 136.162 118.5 135.975C118.978 135.597 119.272 135.249 119.546 134.893C120.874 133.168 121.395 131.017 121.483 129.152C121.621 126.495 121.087 124.045 121.006 122.097C120.99 121.635 120.969 121.174 120.945 120.713C120.818 118.301 120.609 115.905 120.285 113.494C120.164 112.598 120.004 111.724 119.827 110.87C119.314 108.396 118.648 106.06 118.237 103.822C118.137 103.279 118.077 102.678 118.045 102.065C117.934 99.8075 118.145 97.4109 118.523 95.0724C118.881 92.3415 118.31 90.2565 117.807 88.1684C117.114 85.5327 116.219 83.0471 115.346 80.614C115.023 79.7157 114.732 78.8194 114.476 77.9142C113.77 75.5053 113.454 73.0301 112.881 70.256C112.569 68.8318 112.486 67.3847 112.467 65.778C112.446 63.1141 112.415 60.3225 112.418 57.5699C112.418 57.5644 112.418 57.5589 112.418 57.5534C112.397 55.2453 113.331 53.1839 114.699 50.7204C114.713 50.6943 114.727 50.6682 114.741 50.6421C115.994 48.2633 116.888 45.8174 117.474 43.2056C117.564 42.7969 117.643 42.3836 117.711 41.9645C118.074 38.1881 116.463 36.0321 116.343 34.0495C116.232 33.0838 116.184 32.0589 116.166 31.0246C116.119 28.1515 116.287 25.2043 116.377 22.1848C116.447 20.3258 117.127 18.0643 117.791 15.8865C118.193 14.5853 118.583 13.262 119.018 11.9441C119.554 10.3242 120.111 8.69961 120.65 7.06291C121.116 5.70035 121.503 3.76487 121.715 3.54308C121.704 3.54571 121.711 3.62 121.394 3.83495C121.249 3.93015 120.948 4.05947 120.623 4.06996C120.287 4.08541 120.006 3.99213 119.835 3.90513C119.47 3.69884 119.501 3.64303 119.5 3.66455C119.513 3.68432 119.564 3.76722 119.612 3.86397C119.714 4.0649 119.829 4.33997 119.935 4.6294C120.147 5.20795 120.343 5.86049 120.525 6.5209C120.891 7.84955 121.206 9.22672 121.556 10.6533C122.253 13.4794 123.022 16.2909 123.861 19.079C124.734 21.9944 125.689 24.8712 126.583 27.7108C126.933 28.8174 127.302 29.8791 127.669 30.9351C128.208 32.4791 128.748 34.006 129.27 35.5232C129.742 36.8968 130.2 38.269 130.574 39.6037C130.855 40.6052 131.178 41.6026 131.592 42.6136C131.893 43.3403 132.228 44.0702 132.718 44.8439C134.779 47.7106 137.224 48.1107 138.287 49.1852C138.444 49.3177 138.583 49.4512 138.708 49.5878C139.781 50.7004 140.06 53.516 140.365 56.4859C140.499 57.5629 140.582 58.6995 140.646 59.8403C140.82 63.0266 140.818 66.285 140.939 69.6135C140.965 70.3235 140.974 71.0203 140.964 71.7219C140.921 74.8025 140.434 78.2398 140.362 81.6974C140.362 81.7032 140.362 81.709 140.361 81.7147C140.283 84.2531 140.23 86.7923 140.277 89.3354C140.294 90.2678 140.32 91.2025 140.355 92.136C140.445 94.6137 140.76 96.9473 140.93 99.1668C140.949 99.4059 140.967 99.6429 140.983 99.8815C141.131 102.025 141.273 104.159 141.426 106.307C141.509 107.475 141.604 108.648 141.719 109.828C141.957 112.287 142.25 114.735 142.539 117.171C142.57 117.437 142.603 117.703 142.638 117.97C142.868 119.722 143.204 121.497 143.725 123.306C144.351 125.428 145.282 127.715 147.189 129.582C147.462 129.846 147.85 130.14 148.414 130.313C148.971 130.488 149.594 130.455 150.029 130.328C150.897 130.063 151.239 129.7 151.533 129.441C152.085 128.901 152.356 128.476 152.631 128.066C153.153 127.26 153.55 126.496 153.906 125.904C153.954 125.825 154 125.747 154.045 125.668C155.679 122.818 155.787 119.642 155.588 116.968C155.504 115.771 155.338 114.58 155.285 113.649C155.155 111.051 154.996 108.445 154.809 105.846C154.767 105.255 154.758 104.565 154.753 103.883C154.743 101.345 154.801 98.7266 154.748 96.079C154.722 94.8221 154.677 93.5558 154.559 92.2454C154.29 89.8606 154.734 87.484 154.489 84.311C154.413 83.5502 154.399 82.6861 154.392 81.799C154.39 78.5932 154.42 75.2772 154.375 72.0179C154.367 71.2848 154.379 70.5784 154.394 69.8433C154.413 68.8828 154.419 67.933 154.39 66.9992C154.349 65.6591 154.297 64.3471 154.264 63.0826C154.238 62.0657 154.233 61.0778 154.296 60.1516C154.37 59.0954 154.881 57.5281 155.49 56.1749C155.479 56.1991 155.453 56.2348 155.444 56.243C155.342 56.2257 156.25 55.8694 157.674 55.168C158.77 54.6437 159.754 53.1899 159.894 52.0784C160.088 50.9561 159.944 50.1299 159.807 49.402C159.371 47.3629 158.591 45.6261 158.491 44.6794C158.42 44.0395 158.37 43.4046 158.346 42.7777C158.29 41.3261 158.358 39.9139 158.631 38.6014C159.104 36.3493 159.24 34.2935 159.55 32.346C159.608 31.9695 159.668 31.5954 159.732 31.2231C160.116 28.9766 160.216 26.8507 160.393 24.76C160.534 23.0849 160.648 21.403 160.87 19.8992C160.879 19.8382 160.888 19.7771 160.898 19.7157C160.983 19.1554 161.15 18.6088 161.238 18.0515C161.536 16.1729 161.835 14.3047 162.172 12.4629C162.317 11.6751 162.505 10.8967 162.74 10.1773C162.857 9.81915 162.988 9.47416 163.123 9.17967C163.242 8.90179 163.455 8.59597 163.393 8.68731C163.134 8.97693 162.705 9.19487 162.374 9.24803C162.037 9.30818 161.802 9.26558 161.649 9.22664C161.135 9.05396 161.214 8.97892 161.2 9.00578C162.201 10.4331 162.62 12.3633 162.911 14.5743C163.12 16.0798 163.254 17.713 163.624 19.4842C164.211 22.2791 165.205 24.8357 165.925 27.1904C165.97 27.3361 166.013 27.481 166.055 27.6253C167.295 31.6163 168.576 35.2213 169.337 38.9448C169.393 39.2174 169.446 39.4896 169.496 39.7603C170.003 42.435 170.295 45.0046 170.834 47.9602C171.12 49.4823 171.736 51.6198 173.188 53.1688C174.175 54.2724 175.097 55.4792 175.95 56.7336C176.737 57.8934 177.474 59.1087 178.091 60.3127C178.542 61.1988 178.9 62.2195 179.157 63.2665C179.545 64.8535 179.719 66.5384 179.593 68.0594C179.432 70.007 179.371 71.9882 179.489 74.0085C179.551 75.0572 179.613 76.1211 179.739 77.2064C179.9 78.7397 179.792 79.9257 179.627 81.3455C179.415 83.1712 178.923 85.1879 178.375 87.2073C178.079 88.2717 177.959 89.3795 177.973 90.4126C178.012 92.8868 178.699 94.9246 178.826 96.2781C178.949 97.4301 179.137 98.436 179.297 99.3966C179.637 101.373 179.88 103.206 179.967 105.097C179.987 105.514 179.998 105.947 180.005 106.387C180.032 108.476 179.923 110.744 180.017 113.082C180.029 113.375 180.042 113.669 180.059 113.964C180.234 116.83 180.966 119.292 181.277 121.232C181.301 121.378 181.322 121.52 181.339 121.655C181.609 123.76 181.803 126.038 182.206 128.435C182.229 128.566 182.249 128.709 182.265 128.86C182.461 130.679 182.101 133.327 182.305 136.196C182.312 136.302 182.321 136.408 182.33 136.512C182.509 139.447 183.645 142.552 184.029 144.417C184.202 145.333 184.421 146.148 184.638 146.925C185.173 148.803 185.709 150.488 186.077 152.146C186.261 152.969 186.45 153.788 186.641 154.601C187.234 157.172 187.924 159.719 188.282 162.002C188.291 162.061 188.3 162.12 188.309 162.18C188.589 164.009 188.88 165.927 189.348 167.912C189.554 168.781 189.798 169.663 190.107 170.556C190.596 171.946 190.989 173.624 191.518 175.381C191.827 176.409 192.185 177.471 192.638 178.529C193.653 180.871 195.176 182.559 196.662 184.019C196.824 184.179 196.993 184.328 197.171 184.468C201.142 187.101 204.263 185.599 206.747 185.007C207.415 184.804 208.047 184.515 208.612 184.184C211.677 182.221 212.983 180.038 214.785 178.345C215.081 178.049 215.35 177.73 215.589 177.398C217.648 174.269 217.455 171.532 218.037 169.526C218.083 169.334 218.118 169.144 218.152 168.959C218.238 168.544 218.305 168.127 218.403 167.72C218.544 167.138 218.68 166.558 218.823 165.984C219.307 164.034 219.73 162.116 220.206 160.269C220.349 159.714 220.562 159.175 220.843 158.653C221.456 157.509 222.404 156.457 223.541 155.544C223.19 155.808 223.099 155.748 223.333 155.715C223.567 155.644 224.006 155.695 225 155.181C225.667 154.833 226.423 154 226.683 153.184C226.963 152.373 226.94 151.737 226.898 151.228C226.823 150.407 226.713 149.589 226.573 148.786C226.203 146.6 225.561 144.621 225.495 143.076C225.476 142.715 225.458 142.353 225.441 141.989C225.331 139.615 225.251 137.234 225.18 134.85C225.15 133.826 225.13 132.798 225.114 131.773C225.07 129.059 224.629 126.489 224.349 124.189C224.332 124.052 224.315 123.914 224.297 123.778C224.001 121.478 223.653 119.23 223.782 117.482C223.754 117.599 223.819 117.859 223.362 118.517C223.145 118.817 222.716 119.148 222.34 119.284C221.943 119.435 221.663 119.441 221.472 119.437C221.104 119.416 221.05 119.364 221.031 119.365C221.02 119.361 221.073 119.385 221.14 119.424C221.433 119.59 221.909 119.946 222.35 120.317C223.727 121.479 225.118 122.916 226.46 124.354C227.62 125.603 228.652 127.029 229.638 128.568C230.549 129.978 231.364 131.466 232.419 133.122C232.997 134.014 233.536 134.921 234.036 135.85C235.167 137.942 236.098 140.159 236.949 142.498C237.074 142.842 237.197 143.186 237.32 143.534C237.902 145.165 238.04 147.402 238.268 149.84C238.331 150.475 238.403 151.135 238.517 151.836C238.984 154.386 240.899 155.427 241.864 155.983C242.951 156.567 243.853 156.915 244.579 157.28C245.011 157.493 245.369 157.704 245.595 157.879C247.275 159.17 248.863 160.698 250.205 162.329C250.452 162.631 250.69 162.937 250.915 163.244C251.608 164.064 251.704 166.289 251.383 168.722C251.336 169.138 251.272 169.559 251.193 169.984C250.789 172.148 250.007 174.38 249.12 176.67C248.421 178.465 247.84 180.415 247.542 182.421C247.233 184.463 247.213 186.422 247.193 188.246C247.183 189.229 247.173 190.212 247.159 191.19C247.117 193.917 247.065 196.67 246.87 199.253C246.822 199.858 246.759 200.472 246.677 200.922C246.382 202.542 245.824 204.201 245.166 205.946C244.845 206.799 244.502 207.671 244.161 208.561C243.624 210.012 242.387 211.538 241.003 213.311C240.614 213.811 240.22 214.327 239.83 214.862C238.252 217.027 236.759 219.166 235.206 221.218C235.149 221.292 235.093 221.366 235.038 221.44C233.195 223.879 231.273 226.266 229.328 228.713C228.194 230.144 227.028 231.524 225.808 232.896C224.8 234.031 223.769 235.168 222.728 236.311C221.969 237.143 221.205 237.957 220.421 238.759C217.76 241.456 214.85 244.239 212.044 245.985C211.813 246.121 211.58 246.257 211.347 246.393C209.326 247.568 207.214 248.72 205.083 250.073C204.999 250.126 204.916 250.179 204.832 250.233C203.074 251.355 201.019 252.525 199.025 253.698C197.261 254.734 195.492 255.794 193.71 257.03C193.503 257.175 193.288 257.317 193.066 257.457C191.441 258.491 189.491 259.387 187.466 260.668C187.324 260.759 187.182 260.846 187.038 260.932C185.394 261.915 183.578 262.528 181.518 262.977C181.189 263.05 180.863 263.123 180.54 263.195C178.567 263.636 176.67 264.05 174.859 264.237C174.378 264.287 173.874 264.327 173.352 264.366C171.512 264.504 169.43 264.667 167.342 265.243C165.762 265.674 164.195 266.114 162.682 266.465C161.753 266.68 160.849 266.857 159.947 266.98C158.472 267.181 156.936 267.266 155.402 267.266C154.484 267.266 153.563 267.229 152.659 267.157C151.182 267.043 149.753 266.979 148.332 266.93C146.169 266.852 143.959 266.815 141.999 266.646C141.76 266.624 141.518 266.593 141.274 266.556C139.288 266.247 137.182 265.448 135.07 264.542C134.925 264.48 134.78 264.419 134.635 264.361C132.151 263.375 129.755 262.943 127.702 262.367C127.334 262.265 126.966 262.157 126.598 262.045C124.701 261.464 122.812 260.751 120.931 259.961C119.63 259.415 118.358 258.86 117.127 258.267C116.131 257.787 115.159 257.289 114.238 256.757C112.797 255.925 111.36 254.848 109.872 253.693C109.175 253.153 108.463 252.597 107.721 252.044C106.252 250.95 104.835 249.756 103.442 248.503C102.22 247.406 101.025 246.26 99.7921 245.085C99.3026 244.624 98.7802 243.918 98.2858 243.137C97.2849 241.554 96.3339 239.69 95.2361 237.822C95.1915 237.746 95.147 237.671 95.1027 237.596C93.6574 235.138 92.052 232.708 90.3515 230.399C90.2609 230.276 90.1743 230.156 90.0855 230.032C88.6175 228.013 87.5134 225.914 86.2088 223.456C86.1115 223.28 86.0154 223.102 85.9202 222.923C85.0183 221.225 84.1826 219.422 83.3018 217.598C83.0925 217.165 82.8855 216.725 82.6792 216.283C81.6023 214.008 80.6832 211.701 79.2538 209.244C79.2535 209.244 79.2531 209.243 79.2528 209.242C77.748 206.756 76.279 204.22 74.4927 201.72C74.4869 201.711 74.481 201.703 74.4751 201.695C72.9694 199.601 71.3718 197.514 69.6698 195.519C69.6553 195.501 69.6409 195.484 69.6265 195.467C68.2225 193.817 67.1951 191.94 66.1952 189.834C66.1359 189.71 66.0771 189.586 66.018 189.461C65.4863 188.332 64.9553 187.213 64.4334 186.096C63.7027 184.534 62.9889 182.976 62.2955 181.408C62.2809 181.375 62.2663 181.343 62.2518 181.31C61.2022 178.964 60.2015 176.486 58.6697 174.017C58.4886 173.727 58.3015 173.443 58.1095 173.165C56.7378 171.164 55.0819 169.502 53.7215 167.978C53.5755 167.814 53.4281 167.652 53.2803 167.493C51.5156 165.616 49.76 164.098 48.1181 162.459C47.6557 162.003 47.1999 161.544 46.7469 161.078C45.2545 159.541 43.8701 157.87 42.6488 156.128C42.2829 155.605 41.9332 155.075 41.6079 154.542C40.4875 152.74 39.5375 150.406 37.7764 148.18C37.7479 148.144 37.7192 148.108 37.6902 148.073C36.5672 146.715 35.7857 144.557 34.6502 142.204C34.2965 141.489 33.9379 140.77 33.5667 140.046C32.5379 138.029 31.2417 136.041 29.8227 134.208C29.6218 133.975 29.4118 133.619 29.2296 133.225C28.2825 131.111 27.8374 128.416 27.1235 125.782C26.8355 124.767 26.5175 123.754 25.8839 122.66C25.2355 122.993 24.5871 123.327 23.9387 123.66C24.1994 124.38 24.3137 125.39 24.4578 126.346C24.854 128.923 25.0124 131.585 25.9051 134.499C26.0951 135.072 26.3202 135.666 26.6903 136.294C27.7368 138.141 28.5401 140.062 29.419 142.039C29.7351 142.746 30.0465 143.466 30.3604 144.192C31.2481 146.2 31.9183 148.758 33.8415 151.193C33.8614 151.218 33.8811 151.243 33.9008 151.267C35.1211 152.77 36.0259 154.878 37.3915 157.125C37.7801 157.757 38.1858 158.368 38.6052 158.965C40.0033 160.947 41.5495 162.781 43.2346 164.506C43.7113 164.993 44.19 165.473 44.6724 165.949C46.3817 167.651 48.1733 169.273 49.6352 170.858C49.7586 170.993 49.8798 171.128 49.9983 171.263C51.5148 172.976 52.9106 174.421 53.9894 176.005C54.1411 176.225 54.2871 176.447 54.4276 176.672C55.6378 178.61 56.6128 180.951 57.6719 183.335C57.6867 183.369 57.7015 183.402 57.7163 183.436C58.4296 185.047 59.1702 186.643 59.9235 188.225C60.4614 189.355 61.006 190.478 61.5426 191.592C61.607 191.726 61.6713 191.858 61.7367 191.992C62.8237 194.24 64.2387 196.591 66.026 198.583C66.0442 198.604 66.0625 198.625 66.0808 198.645C67.7275 200.486 69.2663 202.414 70.7751 204.421C70.7809 204.429 70.7868 204.437 70.7927 204.444C72.432 206.634 73.9582 209.084 75.4889 211.545C75.4891 211.545 75.4894 211.545 75.4896 211.546C76.637 213.443 77.6632 215.822 78.7419 218.118C78.9533 218.571 79.1675 219.026 79.3868 219.483C80.2469 221.27 81.0863 223.11 82.0507 224.96C82.1524 225.155 82.2552 225.349 82.3594 225.544C83.4895 227.738 84.7287 230.363 86.2848 232.65C86.3799 232.793 86.4722 232.93 86.5689 233.072C88.1067 235.325 89.4703 237.644 90.7812 240.052C90.8213 240.125 90.8616 240.199 90.902 240.274C91.8583 242.024 92.7287 243.91 93.9209 245.864C94.526 246.835 95.2013 247.842 96.2028 248.822C97.4066 249.991 98.6469 251.199 99.9349 252.373C101.406 253.716 102.944 255.022 104.571 256.247C105.245 256.756 105.926 257.294 106.623 257.844C108.114 259.02 109.671 260.276 111.482 261.384C112.558 262.04 113.645 262.624 114.737 263.164C116.086 263.83 117.441 264.436 118.781 265.013C120.783 265.875 122.842 266.671 124.981 267.326C125.396 267.453 125.814 267.575 126.234 267.69C128.629 268.337 130.804 268.73 132.622 269.446C132.729 269.488 132.834 269.53 132.938 269.573C135.252 270.53 137.689 271.432 140.464 271.865C140.805 271.917 141.151 271.96 141.502 271.992C143.86 272.187 145.988 272.212 148.158 272.287C149.561 272.331 150.961 272.362 152.302 272.435C153.348 272.495 154.386 272.515 155.425 272.506C157.163 272.49 158.904 272.381 160.67 272.13C161.758 271.976 162.824 271.761 163.851 271.523C165.527 271.133 167.116 270.701 168.698 270.287C170.216 269.883 171.876 269.749 173.751 269.613C174.283 269.573 174.832 269.53 175.402 269.47C177.63 269.236 179.703 268.765 181.688 268.322C182.012 268.249 182.335 268.177 182.654 268.105C184.985 267.6 187.499 266.779 189.718 265.439C189.913 265.323 190.104 265.205 190.294 265.083C191.892 264.054 193.852 263.135 195.858 261.873C196.134 261.699 196.41 261.518 196.687 261.327C198.22 260.278 199.94 259.306 201.672 258.342C203.663 257.229 205.682 256.239 207.82 254.932C207.894 254.886 207.969 254.839 208.044 254.793C209.965 253.609 212.065 252.495 214.176 251.268C214.421 251.126 214.666 250.983 214.911 250.838C218.8 248.384 221.564 245.589 224.451 242.701C225.278 241.855 226.087 241.008 226.89 240.145C227.95 239.006 229.014 237.862 230.066 236.679C231.339 235.249 232.593 233.764 233.79 232.255C235.708 229.841 237.681 227.393 239.58 224.879C239.638 224.803 239.695 224.727 239.753 224.65C241.383 222.495 242.901 220.307 244.428 218.209C244.767 217.742 245.122 217.277 245.492 216.8C246.769 215.123 248.432 213.263 249.47 210.6C249.802 209.734 250.147 208.857 250.488 207.951C251.183 206.104 251.876 204.113 252.273 201.95C252.423 201.104 252.482 200.415 252.542 199.707C252.759 196.798 252.784 194.046 252.829 191.27C252.843 190.28 252.854 189.29 252.866 188.307C252.887 186.506 252.926 184.826 253.169 183.279C253.401 181.756 253.843 180.276 254.446 178.749C255.384 176.357 256.315 173.832 256.848 171.047C256.951 170.5 257.039 169.942 257.104 169.374C257.329 166.771 257.958 163.355 255.571 159.834C255.281 159.437 254.981 159.051 254.675 158.676C253.017 156.656 251.186 154.878 249.125 153.283C248.428 152.75 247.764 152.392 247.156 152.088C246.149 151.591 245.242 151.232 244.624 150.897C244.319 150.736 244.103 150.577 244.065 150.537C244.019 150.481 244.187 150.688 244.21 150.897C244.127 150.401 244.063 149.851 244.007 149.277C243.769 147.029 243.739 144.477 242.782 141.619C242.655 141.255 242.527 140.892 242.396 140.527C241.508 138.049 240.486 135.513 239.189 133.09C238.617 132.016 238 130.966 237.347 129.948C236.496 128.607 235.599 126.972 234.583 125.396C233.47 123.659 232.19 121.931 230.664 120.357C229.198 118.855 227.716 117.379 225.957 115.934C225.359 115.456 224.765 114.984 223.885 114.488C223.398 114.259 223.01 113.917 221.671 113.805C221.023 113.728 219.566 114.117 218.89 115.097C218.225 116.037 218.23 116.612 218.173 117.085C218.029 119.952 218.509 122.281 218.828 124.539C218.848 124.67 218.867 124.801 218.887 124.93C219.276 127.499 219.811 129.769 219.948 131.976C220.012 132.998 220.072 134.026 220.124 135.051C220.244 137.438 220.359 139.826 220.47 142.221C220.487 142.587 220.504 142.954 220.521 143.319C220.666 145.867 221.33 147.804 221.618 149.646C221.737 150.332 221.83 151.012 221.897 151.701C221.911 151.781 221.873 151.753 221.955 151.504C222.022 151.253 222.36 150.892 222.508 150.832C222.943 150.628 222.736 150.751 222.352 150.808C221.97 150.899 221.24 150.996 220.391 151.664C218.877 152.903 217.472 154.426 216.464 156.3C216.006 157.152 215.638 158.073 215.393 159.03C214.889 160.993 214.465 162.919 214.001 164.787C213.864 165.337 213.712 165.879 213.552 166.415C213.441 166.789 213.291 167.15 213.152 167.512C213.058 167.77 212.976 168.026 212.914 168.283C212.299 170.962 212.131 173.393 211.358 174.355C211.278 174.467 211.194 174.565 211.103 174.656C209.15 176.577 207.395 178.809 205.965 179.596C205.71 179.739 205.473 179.836 205.233 179.901C203.157 180.57 200.813 180.533 200.665 180.12C200.648 180.104 200.632 180.087 200.616 180.069C199.418 178.834 198.429 177.534 197.972 176.334C197.658 175.532 197.394 174.678 197.152 173.773C196.731 172.224 196.407 170.53 195.817 168.655C195.611 167.996 195.435 167.297 195.281 166.571C194.926 164.909 194.694 163.123 194.415 161.257C194.406 161.196 194.397 161.135 194.388 161.074C193.936 158.201 193.237 155.713 192.67 153.196C192.487 152.403 192.31 151.611 192.138 150.815C191.712 148.836 191.136 146.965 190.672 145.259C190.483 144.56 190.316 143.886 190.214 143.295C189.537 140.092 188.812 138.281 188.695 136.01C188.689 135.932 188.684 135.852 188.679 135.772C188.527 133.686 188.938 131.374 188.722 128.242C188.697 127.971 188.665 127.692 188.62 127.406C188.312 125.375 188.186 123.177 187.9 120.834C187.872 120.607 187.839 120.386 187.805 120.172C187.327 117.448 186.57 115.367 186.398 113.498C186.374 113.246 186.352 112.993 186.334 112.738C186.184 110.698 186.179 108.58 186.143 106.285C186.133 105.798 186.119 105.301 186.093 104.793C185.988 102.616 185.685 100.412 185.333 98.3783C185.168 97.3999 185.006 96.4671 184.929 95.6632C184.648 93.2733 184.139 91.6736 184.165 90.3618C184.164 89.8184 184.229 89.3433 184.362 88.8879C184.973 86.7305 185.571 84.5457 185.868 82.0578C186.112 80.1456 185.835 77.9449 185.362 76.183C185.144 75.3744 184.987 74.5223 184.923 73.6502C184.798 71.9694 184.83 70.2321 184.961 68.4849C185.122 66.2103 184.863 64.0657 184.334 61.9647C183.977 60.5805 183.495 59.2175 182.795 57.8748C182.028 56.42 181.186 55.0735 180.277 53.7602C179.293 52.3447 178.228 50.9811 177.041 49.6805C176.46 49.0663 176.167 48.2753 175.895 46.9446C175.429 44.4774 175.079 41.5748 174.548 38.8262C174.49 38.5163 174.429 38.2074 174.364 37.9005C173.504 33.7762 172.067 29.8188 170.912 26.1835C170.862 26.0189 170.812 25.8555 170.761 25.6932C169.926 23.0662 169.006 20.7423 168.496 18.4237C168.192 17.076 168.031 15.5245 167.783 13.8744C167.422 11.4746 166.797 8.66757 165.028 6.26077C164.584 5.69454 164.097 5.07817 162.866 4.69999C162.236 4.49224 160.839 4.52751 159.979 5.4896C158.079 8.08743 158.087 9.65717 157.63 11.6566C157.301 13.5724 157.017 15.4758 156.742 17.3702C156.661 17.932 156.66 18.5046 156.576 19.0632C156.566 19.1244 156.557 19.1854 156.548 19.2461C156.286 21.0607 156.183 22.7326 156.041 24.4017C155.87 26.4571 155.626 28.4935 155.22 30.3348C155.131 30.7428 155.048 31.151 154.971 31.5576C154.567 33.6682 154.309 35.7276 153.859 37.4959C153.401 39.3405 153.278 41.1897 153.346 42.9704C153.375 43.7398 153.439 44.4987 153.526 45.247C153.921 47.6904 154.696 49.0714 154.935 50.3849C155.023 50.7906 155.022 51.14 155.008 51.163C155.004 51.1773 155.022 51.0885 155.094 50.9875C155.163 50.8852 155.265 50.8139 155.281 50.807C154.779 51.1684 153.373 51.2699 151.735 52.9139C151.424 53.2571 151.149 53.6711 150.95 54.1063C150.193 55.8147 149.482 57.4402 149.215 59.7382C149.106 60.943 149.097 62.095 149.125 63.2155C149.162 64.6073 149.272 65.9489 149.37 67.2627C149.438 68.1777 149.531 69.0773 149.598 69.9675C149.65 70.692 149.696 71.3884 149.716 72.1118C149.814 75.3445 149.834 78.5334 149.849 81.837C149.861 82.7677 149.873 83.7233 149.98 84.7742C150.192 86.8689 149.764 89.7791 150.069 92.6597C150.173 93.7871 150.219 94.9747 150.243 96.1685C150.294 98.6994 150.235 101.261 150.237 103.903C150.241 104.629 150.244 105.343 150.294 106.156C150.463 108.721 150.59 111.284 150.693 113.857C150.759 115.178 150.907 116.231 150.971 117.288C151.135 119.621 150.931 121.753 149.992 123.326C149.966 123.37 149.939 123.415 149.912 123.459C149.428 124.251 149.066 124.926 148.696 125.476C148.525 125.739 148.322 125.985 148.288 126.007C148.291 126.021 148.298 125.92 148.776 125.765C149.014 125.693 149.429 125.665 149.791 125.781C150.158 125.893 150.381 126.074 150.503 126.192C149.534 125.236 148.835 123.703 148.376 121.996C147.985 120.552 147.781 118.982 147.613 117.382C147.587 117.138 147.563 116.893 147.541 116.646C147.319 114.212 147.116 111.791 146.93 109.373C146.842 108.233 146.764 107.09 146.682 105.932C146.531 103.804 146.386 101.663 146.235 99.5178C146.217 99.2599 146.198 99.0047 146.177 98.7487C145.986 96.3491 145.678 94.0854 145.593 91.9298C145.556 91.0296 145.526 90.1258 145.504 89.2232C145.444 86.7612 145.397 84.2942 145.429 81.827C145.429 81.8216 145.429 81.8162 145.429 81.8107C145.433 78.5675 145.865 75.3621 145.872 71.7496C145.871 70.9571 145.846 70.1724 145.803 69.3866C145.625 66.1864 145.555 62.9052 145.353 59.5649C145.278 58.3618 145.185 57.1438 145.025 55.8934C144.599 53.2586 144.933 49.8069 142.142 46.4257C141.87 46.1311 141.583 45.8616 141.291 45.6171C139.116 43.8865 136.991 43.1624 136.609 42.3476C136.351 41.9488 136.091 41.4165 135.863 40.8589C135.542 40.0765 135.264 39.2275 135.023 38.3629C134.601 36.8582 134.126 35.4354 133.639 34.0186C133.102 32.4588 132.537 30.9238 131.985 29.4011C131.61 28.3633 131.233 27.3221 130.901 26.3198C129.947 23.4343 128.96 20.6139 128.061 17.7802C127.198 15.0706 126.406 12.3497 125.677 9.59887C125.318 8.23726 124.967 6.81289 124.542 5.37223C124.328 4.64926 124.098 3.91876 123.803 3.15813C123.652 2.77216 123.488 2.38059 123.255 1.94389C122.957 1.50488 122.936 1.02275 121.692 0.252564C121.119 -0.127033 119.779 -0.0685559 119.245 0.357696C118.659 0.74511 118.481 1.0535 118.287 1.33504C117.143 3.60778 117.342 4.58512 116.882 5.8837C116.403 7.50343 115.896 9.11876 115.362 10.7353C114.927 12.051 114.442 13.3538 114.011 14.695C113.309 16.9829 112.514 19.2228 112.348 22.0535C112.236 24.9858 112.035 27.9916 112.057 31.0766C112.067 32.1948 112.104 33.3275 112.224 34.4991C112.594 37.5079 113.847 39.9724 113.557 41.2858C113.501 41.6237 113.435 41.964 113.361 42.305C112.876 44.4862 112.073 46.6977 111.034 48.6617C111.02 48.6867 111.007 48.7118 110.994 48.7369C109.681 51.0786 108.151 54.2281 108.199 57.5321C108.199 57.5375 108.199 57.5429 108.199 57.5484C108.187 60.2896 108.023 63.0004 108.038 65.8272C108.052 67.5136 108.144 69.3765 108.538 71.1784C109.042 73.6096 109.404 76.4223 110.195 79.1263C110.482 80.1406 110.807 81.1372 111.163 82.1219C112.04 84.5446 112.901 86.9294 113.526 89.2909C114.004 91.1007 114.371 93.072 114.171 94.3677C113.763 96.9585 113.524 99.5613 113.654 102.296C113.695 103.047 113.765 103.81 113.909 104.609C114.375 107.146 115.035 109.486 115.505 111.766C115.668 112.551 115.809 113.327 115.914 114.09C116.222 116.35 116.432 118.653 116.559 120.947C116.583 121.385 116.604 121.824 116.621 122.261C116.775 124.889 117.244 126.978 117.129 128.922C117.062 130.275 116.736 131.405 116.078 132.266C115.973 132.408 115.847 132.532 115.83 132.542C115.829 132.547 115.849 132.512 116.043 132.44C116.207 132.371 116.767 132.273 117.28 132.542C117.039 132.454 116.421 131.737 116.122 130.973C115.943 130.548 115.769 130.119 115.603 129.691C115.387 129.136 115.23 128.562 115.053 127.995C114.726 126.949 114.455 125.884 114.164 124.825C113.863 123.725 113.595 122.617 113.353 121.494C112.933 119.547 112.739 117.509 112.59 115.368C112.519 114.414 112.466 113.446 112.335 112.367C112.061 110.136 111.562 107.92 110.904 105.8C110.861 105.66 110.817 105.521 110.772 105.381C110.049 103.205 109.229 101.417 108.619 99.577C108.125 98.1127 107.748 96.6682 107.609 95.2789C107.411 93.2784 107.177 91.274 106.889 89.2704C106.704 87.9858 106.487 86.7026 106.241 85.4213C105.863 83.4549 105.377 81.5816 104.994 79.7527C104.812 78.884 104.648 78.0261 104.515 77.1746C104.262 75.4626 104.056 73.4479 103.483 71.4602C103.065 70.0111 102.46 68.5068 101.415 67.1411C99.9025 65.2662 98.2585 64.3544 97.0047 63.293C96.3628 62.7695 95.8212 62.2436 95.5049 61.762C94.672 60.51 94.0813 59.0273 93.5385 57.4036C92.9647 55.6809 92.4258 53.847 91.8137 52.0258C91.271 50.4033 90.7282 48.7902 90.1724 47.1729C89.2345 44.4384 88.2161 41.6109 86.9778 38.9374C86.2991 37.441 85.5873 36.0044 84.9076 34.5772C84.4688 33.6571 84.0378 32.7437 83.6292 31.8271C83.0153 30.4565 82.4505 29.0406 81.7978 27.5737C80.7553 25.1403 79.0927 22.4972 76.7595 20.7732C76.3554 20.4649 75.9382 20.2128 75.4041 20.0103C75.1298 19.9127 74.8424 19.8161 74.3804 19.7899C74.1458 19.7841 73.8568 19.781 73.4366 19.9393C73.0255 20.0745 72.4669 20.5715 72.3009 21.0896C72.0171 21.8581 71.7619 22.6577 71.5594 23.4742C71.3737 24.2203 71.2314 24.9775 71.1313 25.7376C70.9891 26.8139 70.9305 27.8902 70.9382 28.9569C70.9476 30.4006 70.983 31.8416 71.0697 33.2862C71.2004 35.9525 71.6326 38.755 71.7696 41.1396C71.8185 42.4343 71.8293 43.7511 71.8317 45.0748C71.8357 46.9344 71.8143 48.806 71.8475 50.717C71.8713 51.9925 71.909 53.2795 71.9894 54.5781C72.0564 55.6563 72.1522 56.743 72.3025 57.838C72.4761 59.0575 72.6314 60.1805 72.6932 61.3068C72.8216 63.4917 72.5881 65.7004 71.602 67.0902C70.9251 68.0541 70.2307 69.0535 69.591 70.1326C68.509 71.9546 67.5551 74.0836 67.3568 76.4506C67.261 77.5675 67.1787 78.7006 67.1264 79.8385C66.9624 83.7941 67.0346 87.8632 68.2491 91.9225C68.5454 92.8852 68.8413 93.8491 69.1334 94.8092C70.0688 97.9971 71.2165 101.343 71.5258 104.241C71.5913 105.053 71.5958 105.905 71.5691 106.771C71.5052 108.839 71.2589 110.971 71.1122 113.202C71.0602 114.019 70.9882 114.846 70.9172 115.694C70.7925 117.2 70.6677 118.785 70.7484 120.438C70.7865 121.232 70.8328 122.064 70.9091 122.892C71.1653 125.779 71.8104 128.731 73.0315 131.47C73.3166 132.112 73.5991 132.778 73.9035 133.458C74.7104 135.295 75.7395 137.164 76.9295 138.829C77.334 139.401 77.7485 139.952 78.1594 140.487C79.3601 142.048 80.5119 143.491 81.3421 145.008C81.6623 145.588 81.9698 146.101 82.242 146.599C83.1745 148.267 83.6104 149.741 83.252 151.146C83.2163 151.3 83.1536 151.456 83.1434 151.468C83.1463 151.471 83.1443 151.43 83.3148 151.274C83.4021 151.2 83.5528 151.088 83.7983 151.009C84.0401 150.928 84.3664 150.922 84.5965 150.982C84.5804 150.978 84.564 150.974 84.5474 150.97C84.2088 150.881 83.8291 150.678 83.4367 150.464C83.0433 150.25 82.6444 149.992 82.253 149.709C81.9294 149.474 81.5832 149.165 81.2464 148.828C79.7111 147.268 78.3352 145.222 77.1288 143.167C76.8431 142.676 76.5377 142.216 76.2215 141.776C74.8189 139.847 73.2326 138.222 71.4915 136.707C71.1744 136.435 70.8579 136.156 70.5459 135.876C68.812 134.313 67.1478 132.657 65.6536 130.91C65.424 130.641 65.1965 130.367 64.9709 130.089C63.085 127.756 61.3143 125.248 59.6568 122.7C59.4963 122.452 59.3404 122.211 59.1829 121.965C57.2917 119.093 55.6442 116.024 53.1986 113.166C53.0632 113.009 52.9251 112.849 52.7866 112.688C50.2537 109.864 47.6492 106.397 42.9679 105.206C42.7673 105.163 42.5685 105.131 42.3712 105.109C39.0251 104.901 36.4395 106.235 35.7217 105.301C35.5567 105.166 35.392 105.024 35.2277 104.876C33.9545 103.734 32.7207 102.33 31.2297 100.989C30.8081 100.613 30.361 100.24 29.8744 99.8887C29.7176 99.776 29.5603 99.6632 29.4028 99.5503C25.4382 96.718 21.4057 94.0415 17.3036 91.4444C17.238 91.4032 17.1724 91.3616 17.1067 91.3199C15.2479 90.1352 13.3254 88.7838 11.1726 87.7127C11.1509 87.7018 11.1284 87.6905 11.1053 87.6787C9.8987 87.0466 8.61077 86.2623 7.27465 85.5703C6.59968 85.2233 5.91802 84.8798 5.10677 84.5947C4.6746 84.4679 4.30292 84.2765 3.45024 84.343C3.21727 84.3751 2.91866 84.4445 2.60198 84.6709C2.27122 84.9016 2.0386 85.296 1.96239 85.607C1.82081 86.245 1.93156 86.518 1.99815 86.8261C2.09278 87.1771 2.20291 87.5097 2.31913 87.8307C3.01118 89.693 3.85561 91.338 4.63301 92.9888C4.74969 93.2344 4.86792 93.4797 4.98798 93.7245C5.94587 95.6844 7.00645 97.6143 8.15723 99.4736C8.27229 99.6599 8.3898 99.8474 8.50666 100.032C10.1399 102.597 11.9147 104.994 13.4546 107.48C13.5316 107.605 13.6075 107.728 13.6824 107.849C15.625 111.019 17.4227 114.325 19.3935 117.429C19.4244 117.478 19.4555 117.527 19.4866 117.576C20.8522 119.728 22.3606 121.766 23.9769 123.74ZM25.8457 122.58L23.9769 123.74L23.9387 123.66L25.8839 122.66L25.8457 122.58Z" fill="black"/>
<path d="M45.6072 164.947C45.8138 165.24 46.1284 165.44 46.4818 165.501C46.8353 165.562 47.1986 165.48 47.4918 165.274C47.7851 165.067 47.9843 164.753 48.0456 164.399C48.1069 164.046 48.0253 163.683 47.8187 163.389C47.8187 163.389 47.8187 163.389 47.8187 163.389C46.7447 161.986 45.7209 161.148 44.744 160.125C44.743 160.124 44.742 160.123 44.741 160.122C43.4628 158.813 42.5394 156.988 41.2695 155.419C41.2009 155.333 41.1351 155.252 41.065 155.167C41.0623 155.164 41.0596 155.161 41.0569 155.158C39.9633 153.832 38.8395 152.546 37.9462 151.365C37.9428 151.36 37.9393 151.356 37.9359 151.351C37.2151 150.392 36.6506 149.412 36.1399 148.278C36.1363 148.27 36.1328 148.262 36.1293 148.255C35.5449 146.965 34.9178 145.637 34.1486 144.328C34.1421 144.317 34.1356 144.306 34.1291 144.295C33.5162 143.261 33.0223 142.014 32.406 140.644C32.4 140.631 32.3941 140.618 32.3882 140.605C31.8683 139.486 31.4831 138.006 30.7909 136.448C30.7845 136.434 30.778 136.419 30.7715 136.405C30.0948 134.891 29.4007 133.418 28.7542 131.962C28.7474 131.947 28.7407 131.931 28.7341 131.916C28.3643 131.108 28.222 129.811 28.0263 128.346C28.0238 128.328 28.0213 128.31 28.0189 128.293C27.7776 126.767 27.7794 125.158 27.0934 123.13C27.0853 123.107 27.0771 123.085 27.0687 123.062C26.1568 120.819 24.8064 119.71 23.9968 118.571C23.9894 118.561 23.982 118.551 23.9746 118.541C22.9937 117.244 22.0256 115.959 21.1023 114.662C21.0926 114.648 21.0828 114.634 21.073 114.621C20.0739 113.245 19.0812 112.203 18.2965 111.184C18.2863 111.171 18.2762 111.158 18.2661 111.145C17.2959 109.886 16.4399 108.378 15.3611 106.721C15.3479 106.701 15.3347 106.682 15.3215 106.662C14.6002 105.589 13.9209 104.484 13.2181 103.333C13.2059 103.313 13.1936 103.293 13.1813 103.273C12.5222 102.202 11.9093 101.01 11.1353 99.7341C11.1207 99.7102 11.106 99.6862 11.0913 99.6623C10.3473 98.4506 9.59479 97.3062 8.90651 96.1819C8.89239 96.1588 8.87826 96.1358 8.86413 96.1127C8.1778 94.9905 7.55336 93.6395 6.92846 92.1898C6.91611 92.1613 6.90381 92.133 6.89155 92.1048C6.32131 90.793 5.74586 89.5373 5.19282 88.2927C5.17965 88.2632 5.16644 88.2336 5.15319 88.2039C4.94412 87.7366 4.7526 87.2772 4.616 86.8677C4.47423 86.4745 4.42294 86.0583 4.42004 86.093C4.41878 86.0961 4.4169 86.1015 4.41425 86.1087C4.34616 86.4572 4.15748 86.6961 4.05363 86.7886C3.94325 86.8877 3.89707 86.8963 3.88041 86.9071C3.87688 86.9089 3.87411 86.9103 3.87147 86.9115C3.72993 86.9891 3.49182 86.9767 3.5336 86.9754C3.55957 86.9774 3.75041 87.0419 3.98456 87.1596C4.4658 87.3945 5.11614 87.7942 5.90656 88.1488C5.90799 88.1494 5.90941 88.1501 5.91084 88.1507C7.21772 88.7346 8.57053 89.3121 9.96702 89.8149C9.97078 89.8163 9.97453 89.8176 9.97828 89.819C10.9178 90.1402 11.884 90.8781 13.4053 91.6605C13.4078 91.6618 13.4103 91.663 13.4128 91.6642C14.5683 92.2363 15.6662 92.8616 16.7447 93.5435C16.7485 93.5459 16.7522 93.5483 16.756 93.5507C17.8839 94.2783 19.1441 95.3058 20.4604 96.2568C20.4664 96.2612 20.4724 96.2656 20.4785 96.2699C21.6805 97.1387 22.8608 98.0501 24.155 98.995C24.1633 99.0011 24.1717 99.0071 24.18 99.0132C25.2508 99.7955 26.2857 100.684 27.2183 101.591C27.2264 101.598 27.2343 101.606 27.2423 101.614C28.4285 102.771 29.6104 103.906 30.354 104.91C30.3603 104.918 30.3665 104.927 30.3726 104.935C30.7683 105.479 31.1927 106.007 31.6835 106.532C32.2236 107.066 32.5711 107.547 33.7831 108.203C33.8212 108.221 33.8604 108.24 33.9008 108.257C35.4669 108.908 36.6484 108.59 37.3657 108.494C38.1015 108.355 38.5951 108.302 38.664 108.332C38.678 108.334 38.692 108.335 38.7061 108.337C39.7061 108.46 40.8669 108.878 42.1098 109.378C42.1191 109.382 42.1286 109.386 42.1381 109.39C43.0053 109.751 44.1273 110.62 45.3857 111.589C45.4002 111.6 45.4146 111.611 45.429 111.622C46.722 112.597 47.9172 113.456 48.9588 114.363C48.9709 114.374 48.9829 114.384 48.9949 114.394C50.1652 115.404 51.298 116.275 52.1196 117.107C52.1244 117.112 52.1292 117.117 52.134 117.122C52.8204 117.777 53.6319 119.636 54.4837 121.378C54.4896 121.39 54.4954 121.402 54.5012 121.414C55.3405 123.18 56.4779 124.989 57.3055 126.386C57.3113 126.396 57.317 126.407 57.3228 126.417C58.1315 127.809 58.9522 128.964 59.5574 130.015C59.5637 130.026 59.57 130.037 59.5763 130.048C60.9775 132.246 62.3246 133.325 63.5654 134.614C63.569 134.617 63.5725 134.621 63.5761 134.624C64.3197 135.372 65.0557 136.405 65.7033 137.499C65.706 137.503 65.7086 137.507 65.7113 137.512C66.5558 138.939 67.4822 140.112 68.2779 141.233C68.2793 141.235 68.2806 141.237 68.282 141.238C69.1261 142.422 70.085 143.682 71.1999 144.878C71.2 144.878 71.2001 144.878 71.2002 144.878C72.3724 146.143 73.5882 147.245 74.6298 148.292C74.6403 148.302 74.6508 148.313 74.6614 148.323C74.6631 148.325 74.6648 148.327 74.6665 148.329C75.9402 149.596 77.1796 150.406 77.915 151.14C77.9161 151.141 77.9173 151.142 77.9184 151.143L77.8537 151.074C78.3653 151.618 78.9216 152.119 79.5684 152.597C79.8953 152.837 80.2402 153.072 80.6688 153.309C81.1502 153.523 81.4447 153.867 82.842 153.945L83.171 153.923C83.1728 153.922 83.1746 153.922 83.1763 153.922C83.9843 153.763 84.2281 153.585 84.544 153.453C84.8426 153.314 85.1215 153.18 85.4072 153.048C85.8988 152.821 86.2924 152.388 86.5107 151.869C86.7284 151.348 86.7528 150.784 86.5695 150.275C86.3862 149.766 86.0075 149.347 85.5076 149.085C85.0082 148.825 84.4286 148.742 83.9053 148.881C83.9053 148.881 83.9053 148.881 83.9053 148.881C83.5909 148.965 83.273 149.05 82.9733 149.128C82.6909 149.207 82.3401 149.276 82.5173 149.212C82.5176 149.212 82.5178 149.211 82.5181 149.211L82.8471 149.189C83.2676 149.194 83.3049 149.246 83.3294 149.233C83.3426 149.227 83.296 149.191 83.2391 149.141C83.1205 149.04 82.9513 148.885 82.782 148.715C82.439 148.372 82.0771 147.965 81.7228 147.558L81.6581 147.489C81.6561 147.487 81.6542 147.485 81.6522 147.483C80.3764 146.171 79.199 145.389 78.468 144.604C78.4661 144.602 78.4642 144.6 78.4623 144.598C78.4507 144.586 78.4391 144.574 78.4275 144.562C77.254 143.351 76.1287 142.321 75.1712 141.244C75.1711 141.244 75.171 141.244 75.171 141.244C74.3496 140.329 73.639 139.256 72.863 138.083C72.8617 138.081 72.8605 138.079 72.8592 138.077C72.0299 136.828 71.228 135.7 70.6238 134.642C70.6218 134.638 70.6199 134.635 70.6179 134.632C69.8125 133.248 68.9097 131.888 67.6293 130.587C67.6231 130.581 67.6168 130.575 67.6106 130.569C66.3553 129.32 64.9963 127.997 64.4924 127.161C64.4906 127.158 64.4889 127.155 64.4872 127.152C63.6675 125.762 62.8283 124.623 62.2112 123.575C62.2069 123.568 62.2027 123.56 62.1984 123.553C61.1299 121.796 60.2822 120.498 59.5177 118.944C59.5126 118.934 59.5075 118.923 59.5024 118.913C58.6002 117.249 58.0713 115.383 56.0718 113.229C56.0585 113.216 56.0452 113.203 56.0319 113.189C54.789 111.972 53.5894 111.093 52.5504 110.216C52.5397 110.207 52.5291 110.198 52.5185 110.189C51.1967 109.077 49.8349 108.163 48.628 107.295C48.6145 107.286 48.6011 107.276 48.5877 107.266C47.3728 106.409 46.0647 105.302 44.0571 104.501C44.0335 104.493 44.0098 104.484 43.986 104.475C42.5993 103.974 41.0714 103.452 39.2622 103.262C39.2367 103.259 39.2112 103.257 39.1857 103.254C37.9001 103.151 37.0544 103.418 36.4638 103.517C36.1728 103.574 35.9509 103.604 35.8518 103.607C35.7468 103.611 35.8092 103.596 35.9349 103.651C35.9474 103.657 35.9582 103.662 35.9675 103.666C36.1038 103.742 35.9348 103.644 35.8163 103.532C35.6833 103.414 35.5292 103.261 35.376 103.095C35.0673 102.759 34.757 102.37 34.4623 101.965C34.4514 101.95 34.4404 101.934 34.4294 101.92C33.1788 100.264 31.8869 99.156 30.6878 98.014C30.6778 98.0046 30.6678 97.9952 30.6578 97.9858C29.4916 96.8969 28.2734 95.9534 26.9856 95.0567C26.9779 95.0514 26.9702 95.0461 26.9625 95.0407C25.7692 94.2121 24.5235 93.267 23.2264 92.3781C23.2207 92.3742 23.215 92.3702 23.2093 92.3663C21.9321 91.4976 20.6917 90.5689 19.1211 89.6324C19.1168 89.63 19.1126 89.6275 19.1083 89.625C17.8817 88.9134 16.6025 88.2667 15.3288 87.6745C15.3272 87.6738 15.3257 87.6731 15.3242 87.6724C14.3785 87.2473 13.1097 86.3155 11.4429 85.7212C11.4395 85.72 11.4361 85.7188 11.4327 85.7176C10.1793 85.2749 8.94009 84.7551 7.67845 84.1914C7.6776 84.1911 7.67675 84.1907 7.67591 84.1903C7.19674 83.9801 6.66038 83.6512 5.89857 83.269C5.51059 83.0822 5.05854 82.8671 4.40369 82.7277C3.7694 82.5822 2.80183 82.6051 2.03046 82.9858C1.96881 83.0148 1.90755 83.0453 1.84623 83.0779C1.28493 83.4002 0.375978 83.9077 0.0575085 85.3231C0.0430114 85.3959 0.0306809 85.4702 0.0211191 85.5396C-0.129169 87.7965 0.495461 88.8117 0.947502 90.0383C0.960681 90.0692 0.973852 90.1 0.987013 90.1306C1.54056 91.4233 2.11961 92.685 2.63654 93.9192C2.64788 93.9463 2.65933 93.9737 2.67088 94.0014C3.27279 95.4404 3.85842 97.0004 4.78909 98.5743C4.8041 98.5995 4.8191 98.6245 4.8341 98.6496C5.56829 99.8743 6.32115 101.027 7.00943 102.159C7.02148 102.179 7.03354 102.199 7.04559 102.218C7.68631 103.278 8.31959 104.519 9.0891 105.776C9.10138 105.796 9.11365 105.816 9.12593 105.836C9.82742 106.985 10.5636 108.174 11.3506 109.336C11.3605 109.351 11.3705 109.365 11.3807 109.381C12.3016 110.772 13.2524 112.448 14.5214 114.072C14.5345 114.088 14.5475 114.105 14.5607 114.121C15.5619 115.378 16.6029 116.407 17.3212 117.361C17.3317 117.375 17.3423 117.389 17.3528 117.403C18.3539 118.74 19.3784 120.037 20.3974 121.318C20.4075 121.331 20.4176 121.343 20.4277 121.356C21.5595 122.746 22.6699 123.855 22.9517 124.625C22.9562 124.636 22.9606 124.647 22.965 124.658C23.3591 125.649 23.52 127.271 23.7583 128.895C23.7606 128.911 23.7629 128.927 23.7652 128.944C23.9721 130.271 24.0372 131.852 24.8069 133.655C24.8139 133.671 24.8209 133.687 24.8279 133.703C25.5029 135.222 26.1965 136.696 26.8473 138.155C26.8523 138.166 26.8573 138.177 26.8623 138.189C27.3943 139.356 27.7534 140.786 28.4732 142.385C28.4785 142.397 28.4838 142.409 28.4891 142.42C29.0459 143.644 29.599 145.057 30.439 146.477C30.4445 146.487 30.4499 146.496 30.4554 146.505C31.1006 147.594 31.6693 148.782 32.2373 150.025C32.2415 150.034 32.2457 150.043 32.2498 150.052C32.8468 151.373 33.6354 152.742 34.5559 153.922C34.5605 153.928 34.5652 153.934 34.5699 153.94C35.7605 155.455 37.036 156.594 38.2535 157.767C38.2564 157.769 38.2593 157.772 38.2621 157.775C38.337 157.846 38.4091 157.914 38.4847 157.985C39.8821 159.267 41.362 160.528 42.8099 162.016C42.811 162.017 42.8121 162.018 42.8131 162.019C43.8083 163.045 44.9575 164.079 45.6072 164.947Z" fill="black"/>
<path d="M84.213 146.366C84.2806 146.524 84.4082 146.649 84.5676 146.713C84.727 146.776 84.9053 146.774 85.0631 146.707C85.221 146.639 85.3455 146.511 85.4093 146.352C85.4731 146.193 85.471 146.014 85.4033 145.856C85.4033 145.856 85.4033 145.856 85.4033 145.856C85.0144 144.954 84.5786 144.097 84.1373 143.247C84.1368 143.246 84.1363 143.245 84.1358 143.244C83.6015 142.218 83.2258 141.092 82.7828 140.094C82.782 140.092 82.7813 140.091 82.7805 140.089C82.7295 139.975 82.6792 139.86 82.6289 139.745C82.2435 138.859 81.8609 137.908 81.2363 137.031C81.2344 137.028 81.2324 137.025 81.2305 137.023C80.7018 136.241 80.195 135.273 79.426 134.332C79.4235 134.329 79.421 134.326 79.4185 134.323C78.8856 133.686 78.4015 132.694 77.6357 131.584C77.6339 131.582 77.6321 131.579 77.6304 131.577C77.1943 130.965 76.8206 129.933 76.3436 128.774C76.3427 128.771 76.3417 128.769 76.3407 128.767C75.898 127.709 75.5249 126.664 75.201 125.568C75.2 125.564 75.199 125.561 75.198 125.558C74.9219 124.629 74.7221 123.673 74.5846 122.678C74.584 122.673 74.5834 122.668 74.5828 122.664C74.4413 121.644 74.3983 120.708 74.5111 119.823C74.5117 119.818 74.5123 119.813 74.513 119.808C74.637 118.803 74.9106 117.789 75.129 116.695C75.1304 116.687 75.1319 116.68 75.1334 116.673C75.5782 114.254 75.6555 112.044 75.7157 109.906C75.7159 109.897 75.7161 109.889 75.7163 109.88C75.7435 108.144 75.5211 106.663 75.449 105.326C75.4485 105.317 75.448 105.308 75.4475 105.299C75.3768 104.07 75.2767 102.781 75.0737 101.48C75.0718 101.468 75.07 101.456 75.0681 101.444C74.8368 100.016 74.3896 98.9086 74.1226 98.0081C74.1197 97.9987 74.1168 97.9893 74.114 97.98C73.8259 97.0363 73.5805 95.9799 73.2521 94.8179C73.2484 94.805 73.2447 94.7921 73.2411 94.7792C72.8594 93.4355 72.4926 92.0391 72.2608 90.7815C72.2587 90.7698 72.2566 90.7582 72.2545 90.7466C71.9385 88.9857 71.4731 87.4168 71.0964 85.892C71.0927 85.8773 71.0891 85.8626 71.0854 85.8479C70.8204 84.6956 70.9616 82.5224 70.9935 80.4609C70.9937 80.4461 70.9939 80.4312 70.994 80.4164C70.9894 79.7703 71.4587 78.1616 71.6644 76.5589C71.6661 76.5453 71.6679 76.5317 71.6696 76.5181C71.641 76.1749 72.4668 74.7218 73.0086 73.1848C73.0103 73.1798 73.0121 73.1747 73.0139 73.1696C73.5491 71.7008 74.254 69.8985 74.7984 68.228C74.8004 68.2222 74.8023 68.2164 74.8043 68.2106C75.2104 66.9345 75.7412 65.7509 76.1109 63.9343C76.1125 63.9253 76.1141 63.9163 76.1157 63.9073C76.2968 62.8516 76.5877 61.6515 76.7371 60.2928C76.738 60.2842 76.739 60.2756 76.7399 60.2669C76.9081 58.6189 76.5666 57.2892 76.4115 56.2439C76.4104 56.2373 76.4093 56.2308 76.4083 56.2242C76.2081 54.9732 76.3061 54.4715 76.6347 52.4983C76.635 52.496 76.6352 52.4937 76.6355 52.4913C76.8019 51.1389 76.7147 49.6343 76.5244 48.4141C76.5243 48.4133 76.5242 48.4126 76.5241 48.4118C76.3661 47.1899 76.3212 45.625 76.2042 44.0903C76.2042 44.09 76.2042 44.0896 76.2041 44.0893C76.1318 43.1885 76.2143 42.0106 76.1112 40.6537C76.1111 40.6531 76.1111 40.6525 76.111 40.6519C76.0059 39.2805 75.8219 37.8888 75.8494 36.9417C75.8495 36.9409 75.8495 36.9401 75.8495 36.9393C75.8166 34.7235 75.5398 33.6827 75.5625 32.1359C75.5624 32.1342 75.5624 32.1325 75.5624 32.1308C75.5438 31.0939 75.7123 29.9249 75.683 28.4805C75.683 28.4787 75.683 28.4769 75.6829 28.4751C75.6704 27.9244 75.6576 27.3914 75.656 26.8841C75.6535 26.1458 75.6771 25.4608 75.7575 24.8785L75.5154 25.6376C75.5157 25.637 75.516 25.6364 75.5164 25.6357C75.893 24.9119 75.9887 23.8918 76.2287 23.2746C76.2287 23.2746 76.2287 23.2746 76.2287 23.2746L76.0146 23.4222C75.9382 23.3201 76.163 22.9132 76.4817 22.6369C76.5958 22.5337 76.6885 22.3511 76.7483 22.1739C76.8076 21.9941 76.8292 21.8343 76.7993 21.685C76.7695 21.5358 76.6881 21.3965 76.5642 21.2534C76.4408 21.1128 76.2851 20.9799 76.1401 20.9285C76.1401 20.9285 76.1401 20.9285 76.1401 20.9285C75.7432 20.7984 75.2318 20.5234 74.512 20.7828L74.2978 20.9303C74.2978 20.9303 74.2978 20.9303 74.2978 20.9303C72.9904 21.6596 71.9855 22.4128 71.4035 23.4863C71.403 23.4872 71.4026 23.4881 71.4021 23.489L71.1599 24.2482C71.0273 25.2293 71.0336 26.1265 71.0571 26.9636C71.0744 27.5385 71.1033 28.0872 71.1246 28.6183C71.1247 28.6201 71.1248 28.6218 71.1248 28.6235C71.173 29.5792 71.0461 30.8009 71.0586 32.1642C71.0587 32.1664 71.0587 32.1686 71.0587 32.1707C71.0321 33.7807 71.3414 35.853 71.3307 36.7848C71.3306 36.7864 71.3306 36.7879 71.3305 36.7895C71.3046 38.4974 71.5409 39.7395 71.6293 41.0115C71.6294 41.0119 71.6294 41.0123 71.6294 41.0127C71.7105 41.9362 71.6288 43.0498 71.7229 44.4301C71.7229 44.4304 71.723 44.4306 71.723 44.4309C71.8376 45.8736 71.8556 47.3038 72.073 49.0462C72.0731 49.0474 72.0733 49.0486 72.0735 49.0499C72.235 50.1415 72.2697 50.9957 72.1483 51.9687C72.1481 51.9703 72.1479 51.972 72.1477 51.9736C71.969 52.8497 71.4985 55.2582 71.8173 56.8971C71.8183 56.9046 71.8193 56.912 71.8203 56.9195C71.9912 58.1411 72.1361 59.0959 72.0425 59.745C72.0418 59.7511 72.041 59.7572 72.0403 59.7633C71.9252 60.7364 71.6696 61.8223 71.4357 63.0735C71.435 63.0772 71.4343 63.0809 71.4336 63.0847C71.2603 63.9634 70.7083 65.3232 70.2449 66.647C70.243 66.6525 70.241 66.658 70.2391 66.6635C69.6726 68.2996 69.0694 69.7231 68.3859 71.5179C68.3847 71.5213 68.3834 71.5247 68.3822 71.528C68.0586 72.6066 67.2065 73.4738 66.7517 75.883C66.7504 75.8923 66.7492 75.9017 66.7479 75.911C66.6186 77.104 66.1335 78.1929 66.0118 80.368C66.0117 80.3807 66.0116 80.3934 66.0114 80.4062C66.0255 82.3573 65.7027 84.2491 66.2592 87.054C66.263 87.0694 66.2669 87.0847 66.2707 87.1C66.6668 88.6909 67.0787 90.2156 67.325 91.6174C67.3278 91.6329 67.3305 91.6483 67.3333 91.6638C67.6312 93.2724 68.0151 94.6959 68.426 96.1549C68.429 96.1656 68.432 96.1763 68.4351 96.187C68.7107 97.1558 68.9493 98.2629 69.305 99.4388C69.3087 99.451 69.3124 99.4631 69.3161 99.4752C69.6753 100.629 70.0274 101.535 70.1387 102.236C70.1404 102.246 70.142 102.256 70.1437 102.266C70.3227 103.337 70.4217 104.444 70.504 105.614C70.5047 105.624 70.5055 105.635 70.5062 105.645C70.6211 107.223 70.8212 108.645 70.831 109.834C70.8311 109.843 70.8311 109.852 70.8312 109.861C70.842 112.03 70.9971 114.151 70.8159 116.003C70.8151 116.01 70.8143 116.018 70.8135 116.025C70.6962 117.086 70.6058 118.224 70.5049 119.389C70.5042 119.396 70.5036 119.404 70.5029 119.411C70.3828 120.736 70.4975 122.03 70.6609 123.205C70.6617 123.21 70.6624 123.216 70.6631 123.221C70.8211 124.367 71.0494 125.538 71.3885 126.684C71.3896 126.688 71.3907 126.692 71.3918 126.696C71.747 127.908 72.1838 129.132 72.6697 130.295C72.6705 130.297 72.6713 130.299 72.6722 130.301C73.1007 131.3 73.4604 132.529 74.3631 133.857C74.3644 133.859 74.3656 133.861 74.3669 133.863C74.9162 134.629 75.4372 135.722 76.3764 136.85C76.3784 136.853 76.3804 136.855 76.3824 136.858C77.0026 137.584 77.7039 138.426 78.5894 139.292C78.5913 139.294 78.5932 139.296 78.5951 139.297C79.1982 139.852 79.8831 140.459 80.5452 141.138C80.6315 141.227 80.7175 141.317 80.8028 141.407C80.8041 141.409 80.8055 141.41 80.8068 141.412C81.5857 142.245 82.5014 142.913 82.9872 143.842C82.9877 143.843 82.9882 143.844 82.9887 143.845C83.4235 144.682 83.8498 145.523 84.213 146.366Z" fill="black"/>
</svg>
