<svg width="366" height="311" viewBox="0 0 366 311" fill="none" xmlns="http://www.w3.org/2000/svg">
<path d="M362.848 175.717C362.248 179.543 361.1 183.471 359.455 187.484V187.501C348.693 213.762 316.131 243.317 268.403 266.919C259.526 271.31 250.118 275.495 240.212 279.423C235.191 281.413 230.067 283.317 224.805 285.135C200.813 293.54 174.353 300.35 145.956 304.792C140.3 305.702 134.559 306.491 128.75 307.194C125.408 307.606 122.049 307.966 118.656 308.309C112.486 308.926 106.214 308.034 100.01 306.045C84.6205 301.156 69.608 289.526 57.2861 277.365C49.54 269.749 42.8392 261.893 37.7836 255.375C10.2094 219.92 13.7226 226.953 6.14777 169.765C-0.947166 116.146 2.70313 89.0099 13.6711 58.7352C14.4081 56.6768 15.1964 54.5842 16.0018 52.4915C19.0009 44.7556 23.7309 37.4485 29.7119 30.9304C48.546 10.3642 79.6163 -2.29461 106.471 4.22346C108.527 4.7209 110.55 5.3384 112.52 6.09312C120.335 9.0091 127.413 13.7261 133.617 19.6096C153.702 38.735 164.43 70.3819 160.128 94.516C155.159 122.406 132.537 137.038 135.759 140.709C139.203 144.602 164.361 122.509 200.573 105.94C223.709 95.3393 252.054 82.3546 280.211 82.8692C286.329 82.9721 292.447 83.7268 298.48 85.2706C301.993 86.1625 305.455 87.3289 308.916 88.8041C340.347 102.2 358.152 135.94 362.848 163.539C363.517 167.433 363.499 171.498 362.848 175.717Z" fill="#FF8CBD" stroke="black" stroke-width="5" stroke-miterlimit="10"/>
<path d="M134.812 140.502C121.733 152.056 98.2216 179.824 82.9061 205.787C69.4687 228.551 60.7096 261.701 56.6289 277.502" fill="#FF8CBD"/>
<path d="M134.812 140.502C121.733 152.056 98.2216 179.824 82.9061 205.787C69.4687 228.551 60.7096 261.701 56.6289 277.502" stroke="black" stroke-width="5" stroke-miterlimit="10"/>
<path d="M362.852 175.368C362.257 179.194 361.118 183.123 359.485 187.137V187.154C348.553 195.527 334.934 200.502 320.158 200.502C284.215 200.502 255.09 171.096 255.09 134.845C255.09 113.469 265.206 94.4941 280.866 82.502C286.936 82.6049 293.005 83.3598 298.99 84.9038C302.476 85.7959 305.91 86.9626 309.345 88.438C340.527 101.837 358.193 135.583 362.852 163.187C363.515 167.082 363.498 171.148 362.852 175.368Z" fill="#05C1F1" stroke="black" stroke-width="5" stroke-miterlimit="10"/>
<path d="M133.808 22.0287C133.808 58.1955 104.382 87.502 68.0678 87.502C45.3583 87.502 25.3287 76.0394 13.5273 58.589C14.266 56.536 15.0562 54.4488 15.8636 52.3616C18.8697 44.6458 23.6109 37.3577 29.606 30.8565C48.4848 10.3437 79.6286 -2.28214 106.547 4.21899C108.608 4.71513 110.635 5.33103 112.611 6.08379C120.444 8.99219 127.538 13.697 133.757 19.5651C133.791 20.3863 133.808 21.2075 133.808 22.0287Z" fill="#05C1F1" stroke="black" stroke-width="5" stroke-miterlimit="10"/>
<path d="M269.125 266.767C260.234 271.174 250.811 275.375 240.889 279.317C235.86 281.314 230.728 283.225 225.458 285.05C201.428 293.485 174.925 300.32 146.484 304.779C140.819 305.691 135.069 306.483 129.25 307.189C125.903 307.602 122.539 307.964 119.14 308.308C112.961 308.928 106.679 308.033 100.465 306.036C94.8521 294.381 91.7109 281.297 91.7109 267.473C91.7109 218.339 131.43 178.502 180.435 178.502C229.183 178.502 268.765 217.96 269.125 266.767Z" fill="#05C1F1" stroke="black" stroke-width="5" stroke-miterlimit="10"/>
<path d="M240.058 279.735C235.029 281.725 229.896 283.629 224.626 285.447C200.594 293.85 174.09 300.659 145.646 305.101C139.981 306.01 134.23 306.799 128.411 307.502C126.059 301.225 124.789 294.433 124.789 287.333C124.789 255.382 150.692 229.502 182.673 229.502C212.061 229.502 236.333 251.369 240.058 279.735Z" fill="#01B37F" stroke="black" stroke-width="5" stroke-miterlimit="10"/>
<path d="M225.021 285.358C200.926 293.544 174.354 300.175 145.836 304.502C147.11 279.946 165.421 260.502 187.829 260.502C203.955 260.502 217.965 270.575 225.021 285.358Z" fill="#FF8CBD" stroke="black" stroke-width="3.8793" stroke-miterlimit="10"/>
<path d="M362.858 175.273C361.727 175.682 360.562 176.056 359.397 176.38C329.09 184.892 297.703 167.033 289.278 136.491C284.196 118.138 288.569 99.3941 299.442 85.502C302.903 86.3872 306.314 87.5449 309.724 89.009C340.69 102.305 358.232 135.793 362.858 163.186C363.517 167.05 363.5 171.085 362.858 175.273Z" fill="#01B37F" stroke="black" stroke-width="5" stroke-miterlimit="10"/>
<path d="M112.761 6.07104C110.867 29.8351 90.7914 48.502 66.3083 48.502C51.3808 48.502 38.089 41.5637 29.5664 30.7556C48.4883 10.3158 79.7034 -2.26512 106.683 4.21288C108.749 4.70725 110.781 5.32096 112.761 6.07104Z" fill="#01B37F" stroke="black" stroke-width="4.0154" stroke-miterlimit="10"/>
</svg>
