<svg width="218" height="218" viewBox="0 0 218 218" fill="none" xmlns="http://www.w3.org/2000/svg">
<circle cx="108.687" cy="108.687" r="106.187" fill="white" stroke="black" stroke-width="5"/>
<path d="M108.695 65.1133C124.087 65.1133 145.815 68.0333 163.607 74.7666C172.505 78.1338 180.26 82.3955 185.752 87.5869C191.205 92.7417 194.347 98.7219 194.347 105.688C194.347 112.651 191.207 118.597 185.759 123.702C180.27 128.846 172.52 133.047 163.622 136.353C145.83 142.963 124.098 145.761 108.695 145.761C93.2965 145.761 72.7129 142.964 56.0723 136.372C39.2461 129.706 27.5508 119.656 27.5508 105.688C27.5508 91.7082 39.2612 81.5365 56.0869 74.7471C72.7283 68.0321 93.3084 65.1133 108.695 65.1133Z" fill="#7A59A4" stroke="black" stroke-width="5"/>
<path d="M108.188 84.1372C117.714 84.1372 132.23 85.4184 144.279 89.0415C150.314 90.8562 155.545 93.2045 159.22 96.1313C162.85 99.0232 164.789 102.321 164.789 106.179C164.789 110.056 162.831 113.494 159.166 116.584C155.471 119.7 150.224 122.289 144.192 124.347C132.141 128.46 117.645 130.225 108.188 130.225C98.7347 130.225 84.8796 128.461 73.4727 124.361C67.7659 122.309 62.8381 119.731 59.3779 116.633C55.9543 113.568 54.0898 110.119 54.0898 106.179C54.0899 102.256 55.9381 98.9495 59.3252 96.0845C62.7631 93.1766 67.6722 90.8393 73.3818 89.0308C84.7868 85.4182 98.6621 84.1372 108.188 84.1372Z" fill="black" stroke="black" stroke-width="5"/>
<path d="M150.264 84.6455C154.89 84.6456 161.345 85.4532 166.553 87.3721C169.158 88.3321 171.289 89.5117 172.731 90.8691C174.13 92.1858 174.81 93.5877 174.81 95.168C174.81 96.7264 174.152 98.0047 172.812 99.1592C171.407 100.37 169.308 101.379 166.697 102.164C161.487 103.731 155.006 104.187 150.264 104.188C145.522 104.188 138.776 103.732 133.3 102.156C130.553 101.366 128.32 100.347 126.819 99.1182C125.383 97.9421 124.715 96.6717 124.715 95.168C124.715 93.6396 125.408 92.2478 126.902 90.9121C128.437 89.54 130.698 88.3502 133.439 87.3838C138.914 85.4536 145.635 84.6455 150.264 84.6455Z" fill="white" stroke="black" stroke-width="5"/>
</svg>
