<svg width="368" height="249" viewBox="0 0 368 249" fill="none" xmlns="http://www.w3.org/2000/svg">
<path d="M360.588 2.59863C362.777 2.30471 363.752 2.71865 364.158 3.09277C364.415 3.33016 364.891 3.92374 364.367 6.37695C363.846 8.8177 362.497 12.2952 360.252 17.3477C355.837 27.281 348.154 42.8664 338.14 66.5293C329.614 86.6658 319.902 111.452 313.188 131.69C309.837 141.796 307.206 150.848 305.854 157.648C305.183 161.029 304.798 163.988 304.845 166.293C304.868 167.44 304.999 168.567 305.337 169.552C305.674 170.534 306.313 171.63 307.515 172.264V172.265C308.619 172.848 309.767 172.808 310.714 172.538C311.619 172.28 312.453 171.785 313.183 171.249C314.643 170.176 316.206 168.539 317.784 166.683C320.955 162.953 324.707 157.703 328.461 152.67C332.279 147.551 336.124 142.62 339.641 139.223C341.403 137.52 342.964 136.322 344.287 135.66C345.611 134.998 346.386 135.019 346.844 135.188C347.477 135.423 348.441 136.277 349.393 138.51C350.307 140.656 351.021 143.645 351.458 147.313C352.329 154.63 352.046 164.187 350.469 174.01C348.891 183.832 346.042 193.767 341.879 201.88C337.694 210.036 332.346 216.038 325.932 218.546H325.931C320.802 220.554 316.432 219.837 310.675 219.406C305.12 218.99 298.858 218.97 291.053 222.811L290.292 223.194C283.721 226.595 280.346 230.543 277.079 234.017C273.891 237.406 270.678 240.515 264.207 243.058L264.204 243.059C262.981 243.541 258.675 245.23 253.734 245.952C248.67 246.693 243.68 246.309 240.44 243.496C238.946 242.197 238.002 240.481 237.33 237.611C236.809 235.387 236.487 232.634 236.168 229.064L235.844 225.211C235.072 215.677 235.704 209.844 236.109 205.571C236.512 201.326 236.812 197.928 234.591 194.188L234.59 194.186C232.482 190.643 229.315 188.747 225.894 187.723C222.552 186.722 218.824 186.512 215.394 186.396C211.833 186.277 208.626 186.257 205.809 185.773C203.024 185.295 201.091 184.431 199.863 182.974V182.973C197.758 180.474 197.298 175.63 199.492 168.011C201.627 160.599 206.042 151.39 212.275 141.096C224.724 120.535 244.144 96.0942 265.987 73.793C285.01 54.3821 307.88 34.5403 327.165 20.6914C336.822 13.7566 345.486 8.39358 352.266 5.32422C355.668 3.78405 358.46 2.88436 360.588 2.59863Z" fill="#7A59A4" stroke="black" stroke-width="5"/>
<path d="M6.51367 2.59863C4.32416 2.30471 3.34975 2.71865 2.94336 3.09277C2.68637 3.33016 2.21097 3.92374 2.73438 6.37695C3.25519 8.8177 4.60409 12.2952 6.84961 17.3477C11.2644 27.281 18.9478 42.8664 28.9619 66.5293C37.4874 86.6658 47.2 111.452 53.9131 131.69C57.265 141.796 59.8957 150.848 61.2471 157.648C61.919 161.029 62.3031 163.988 62.2568 166.293C62.2338 167.44 62.1027 168.567 61.7646 169.552C61.4272 170.534 60.7885 171.63 59.5869 172.264V172.265C58.4821 172.848 57.3343 172.808 56.3877 172.538C55.4828 172.28 54.6484 171.785 53.9189 171.249C52.4586 170.176 50.8955 168.539 49.3174 166.683C46.1468 162.953 42.3946 157.703 38.6406 152.67C34.8225 147.551 30.978 142.62 27.4609 139.223C25.6987 137.52 24.138 136.322 22.8145 135.66C21.4903 134.998 20.7157 135.019 20.2578 135.188C19.6246 135.423 18.6605 136.277 17.709 138.51C16.7945 140.656 16.0804 143.645 15.6436 147.313C14.7725 154.63 15.0551 164.187 16.6328 174.01C18.2105 183.832 21.0596 193.767 25.2227 201.88C29.4079 210.036 34.7556 216.038 41.1699 218.546H41.1709C46.2994 220.554 50.6697 219.837 56.4268 219.406C61.9819 218.99 68.2436 218.97 76.0488 222.811L76.8096 223.194C83.3807 226.595 86.7552 230.543 90.0225 234.017C93.2103 237.406 96.424 240.515 102.895 243.058L102.897 243.059C104.121 243.541 108.427 245.23 113.367 245.952C118.431 246.693 123.422 246.309 126.661 243.496C128.156 242.197 129.1 240.481 129.771 237.611C130.292 235.387 130.615 232.634 130.934 229.064L131.258 225.211C132.029 215.677 131.397 209.844 130.992 205.571C130.589 201.326 130.289 197.928 132.511 194.188L132.512 194.186C134.62 190.643 137.786 188.747 141.208 187.723C144.55 186.722 148.277 186.512 151.708 186.396C155.268 186.277 158.476 186.257 161.293 185.773C164.078 185.295 166.01 184.431 167.238 182.974V182.973C169.344 180.474 169.804 175.63 167.609 168.011C165.475 160.599 161.059 151.39 154.826 141.096C142.378 120.535 122.958 96.0942 101.114 73.793C82.0915 54.3821 59.2219 34.5403 39.9365 20.6914C30.2795 13.7566 21.6156 8.39358 14.8359 5.32422C11.4339 3.78405 8.64201 2.88436 6.51367 2.59863Z" fill="#7A59A4" stroke="black" stroke-width="5"/>
</svg>
