<svg width="268" height="317" viewBox="0 0 268 317" fill="none" xmlns="http://www.w3.org/2000/svg">
<path d="M150.663 10.4072C145.153 0.888603 110.093 -1.11268 102.58 10.4072C95.067 21.927 102.58 248.317 102.58 248.317C102.58 248.317 17.4332 236.296 9.92021 248.317C2.40726 260.338 -2.10055 302.911 9.92021 308.421C21.941 313.93 243.323 318.438 254.842 308.421C266.362 298.404 269.868 260.338 254.842 248.317C239.816 236.296 156.172 248.317 156.172 248.317C156.172 248.317 156.172 19.9258 150.663 10.4072Z" fill="#FF4431" stroke="black" stroke-width="5"/>
<path d="M2.91016 277.876C2.91016 277.876 52.9965 277.876 73.5319 283.886C94.0673 289.896 107.591 312.936 107.591 312.936" stroke="black" stroke-width="5"/>
<path d="M263.859 277.876C263.859 277.876 213.773 277.876 193.238 283.886C172.702 289.896 159.179 312.936 159.179 312.936" stroke="black" stroke-width="5"/>
</svg>
