<svg width="194" height="298" viewBox="0 0 194 298" fill="none" xmlns="http://www.w3.org/2000/svg">
<path d="M160.551 134.108C175.175 152.64 185.261 183.693 188.286 196.215C191.312 208.736 192.321 220.757 188.286 229.272C184.252 237.786 172.149 252.311 160.551 261.828C148.952 271.344 115.166 298.389 92.4728 294.384C69.7802 290.379 61.7116 280.861 57.1731 271.344C52.6346 261.828 49.6088 222.258 50.1131 208.736C50.6175 195.215 -4.34932 10.8953 3.21491 2.88146C10.7791 -5.13235 145.927 115.576 160.551 134.108Z" fill="#FF4431" stroke="black" stroke-width="5"/>
<path d="M4.22266 2.37988C4.22266 2.37988 50.0246 70.5684 76.335 116.076C102.645 161.583 109.113 182.19 111.13 216.248C113.148 250.307 98.0191 295.385 98.0191 295.385" stroke="black" stroke-width="5"/>
</svg>
