<svg width="363" height="469" viewBox="0 0 363 469" fill="none" xmlns="http://www.w3.org/2000/svg">
<path d="M272.425 338.954C255.132 314.671 233.473 319.349 219.343 327.281C206.792 334.323 203.35 370.367 220.121 392.313C243.254 422.585 287.893 403.842 322.515 441.16C328.545 447.66 336.87 458.66 341.062 456.714C345.132 454.822 341.826 442.35 340.604 429.045C337.372 393.927 351.687 386.252 351.969 353.934C352.018 348.089 353.254 295.37 320.265 288.396C305.205 285.212 283.909 294.975 278.913 310.832C272.964 329.685 278.025 346.815 272.425 338.954Z" fill="#FF4431" stroke="black" stroke-width="5" stroke-miterlimit="10"/>
<path d="M4.67056 46.4495C8.50177 35.6415 18.369 27.6634 28.0922 24.6565C80.8922 8.32744 160.019 129.081 209.733 204.952C267.347 292.878 323.633 399.943 314.091 406.043C306.209 411.08 268.53 337.631 171.544 237.934C73.1465 136.78 -9.78856 87.2624 4.67056 46.4495Z" fill="#FF4431" stroke="black" stroke-width="5" stroke-miterlimit="10"/>
<path d="M51.9961 71.8889C88.2234 83.811 105.894 92.3036 105.012 97.3622C104.372 101.025 94.0104 102.895 73.9254 102.966" fill="#FF4431"/>
<path d="M51.9961 71.8889C88.2234 83.811 105.894 92.3036 105.012 97.3622C104.372 101.025 94.0104 102.895 73.9254 102.966" stroke="black" stroke-width="5" stroke-miterlimit="10"/>
<path d="M96.0977 108.815C133.02 120.67 151.024 129.13 150.114 134.191C149.455 137.856 138.884 139.746 118.401 139.856" fill="#FF4431"/>
<path d="M96.0977 108.815C133.02 120.67 151.024 129.13 150.114 134.191C149.455 137.856 138.884 139.746 118.401 139.856" stroke="black" stroke-width="5" stroke-miterlimit="10"/>
<path d="M144.5 148.336C180.683 159.809 198.325 168.004 197.428 172.918C196.779 176.476 186.414 178.32 166.334 178.446" fill="#FF4431"/>
<path d="M144.5 148.336C180.683 159.809 198.325 168.004 197.428 172.918C196.779 176.476 186.414 178.32 166.334 178.446" stroke="black" stroke-width="5" stroke-miterlimit="10"/>
<path d="M182.879 188.829C219.062 200.301 236.704 208.497 235.807 213.41C235.157 216.968 224.793 218.812 204.713 218.938" fill="#FF4431"/>
<path d="M182.879 188.829C219.062 200.301 236.704 208.497 235.807 213.41C235.157 216.968 224.793 218.812 204.713 218.938" stroke="black" stroke-width="5" stroke-miterlimit="10"/>
<path d="M212.238 230.196C248.421 241.668 266.063 249.863 265.167 254.777C264.517 258.335 254.152 260.179 234.073 260.305" fill="#FF4431"/>
<path d="M212.238 230.196C248.421 241.668 266.063 249.863 265.167 254.777C264.517 258.335 254.152 260.179 234.073 260.305" stroke="black" stroke-width="5" stroke-miterlimit="10"/>
</svg>
