<svg width="296" height="420" viewBox="0 0 296 420" fill="none" xmlns="http://www.w3.org/2000/svg">
<path d="M27.8149 57.0075C31.6648 27.6526 80.6015 -2.29581 121.182 3.14468C170.435 9.74844 208.218 68.6007 215.264 120.212C224.931 190.994 175.033 235.258 201.618 268.878C213.622 284.06 237.141 290.723 251.892 286.113C271.624 279.949 278.861 271.462 272.72 253.075C270.935 247.737 291.526 273.389 288.211 288.709C282.054 317.158 270.326 323.576 249.498 330.52C229.18 337.294 199.054 322.954 198.029 326.329C196.395 331.715 213.504 359.317 243.994 353.5C264.328 349.623 286.608 340.574 292.832 332.791C296.203 328.577 286.735 363.918 266.259 380.192C217.484 418.96 126.246 380.869 124.774 386.658C123.698 390.883 156.377 411.435 172.892 411.795C178.843 411.925 140.423 420.42 110.407 414.667C89.0134 410.568 30.9407 399.438 9.85928 351.467C-9.32289 307.804 12.7042 257.661 33.56 231.53C55.8759 203.576 73.0758 207.853 93.8881 174.791C100.516 164.262 121.759 130.519 109.687 97.2275C109.129 95.6923 97.8963 65.8151 77.3688 63.4728C58.432 61.3124 44.7655 84.0873 34.2762 78.5558C28.0641 75.2757 26.8811 64.1256 27.8149 57.0075Z" fill="#01B37F" stroke="black" stroke-width="5" stroke-miterlimit="10"/>
<path d="M27.5703 63.1956C33.6399 48.2708 55.6591 26.8294 83.4352 20.6608C115.168 13.6139 171.227 65.3559 174.566 93.2785C179.833 137.329 176.96 158.394 152.065 200.288C130.061 237.315 137.769 264.664 149.908 287.189C160.053 306.012 185.064 320.818 198.026 326.329" stroke="black" stroke-width="5" stroke-miterlimit="10"/>
<path d="M34.2812 78.5551C38.0164 73.1502 51.8333 48.4603 71.15 44.4402C98.2218 38.8059 123.616 58.2967 134.829 76.5213C158.186 114.47 132.167 166.576 124.775 181.378C103.86 223.264 77.5124 220.253 64.4473 260.378C60.1226 273.657 56.1856 304.836 70.1924 335.548C82.4227 362.363 115.936 382.475 124.775 386.661" stroke="black" stroke-width="5" stroke-miterlimit="10"/>
</svg>
