<svg width="362" height="410" viewBox="0 0 362 410" fill="none" xmlns="http://www.w3.org/2000/svg">
<path d="M314.725 2.68457C317.897 2.2592 319.84 2.61817 320.9 3.26465C321.744 3.77884 322.426 4.72155 322.402 6.875C322.154 29.2431 321.532 43.9693 319.527 55.9375C317.538 67.8164 314.177 77.029 308.343 88.3145C294.779 114.548 271.222 130.495 251.074 140.803C240.995 145.959 231.897 149.646 225.287 152.559C222.04 153.989 219.276 155.284 217.389 156.485C216.46 157.077 215.548 157.765 214.907 158.58C214.234 159.436 213.626 160.766 214.141 162.299V162.3C214.485 163.327 215.209 164.022 215.883 164.475C216.56 164.929 217.352 165.252 218.155 165.492C219.763 165.974 221.839 166.249 224.226 166.362C229.03 166.591 235.58 166.183 243.27 165.065C258.67 162.828 278.953 157.697 299.55 148.781V148.782C317.539 140.999 330.154 132.757 339.141 127.263C343.693 124.48 347.133 122.519 349.889 121.549C352.587 120.599 354.079 120.789 355.193 121.537V121.538C356.827 122.637 358.268 125.343 358.853 130.075C359.42 134.673 359.101 140.616 357.843 147.313C355.327 160.7 349.143 176.642 339.54 190.05H339.539C317.571 220.739 280.957 233.554 249.405 239.894C233.658 243.057 219.357 244.577 208.86 245.956C203.67 246.638 199.29 247.3 196.209 248.141C194.689 248.555 193.267 249.069 192.188 249.78C191.102 250.495 189.873 251.767 189.985 253.688V253.691C190.055 254.847 190.609 255.794 191.194 256.494C191.79 257.207 192.564 257.84 193.411 258.404C195.108 259.535 197.429 260.607 200.188 261.58C205.73 263.535 213.437 265.228 222.452 266.104C240.48 267.855 264.081 266.372 286.518 256.852L286.519 256.851C298.521 251.752 307.9 245.321 314.764 240.821C318.259 238.53 320.951 236.844 323.055 235.953C325.256 235.021 325.852 235.364 326.012 235.488V235.489C326.2 235.639 326.522 236.029 326.766 236.962C327.007 237.885 327.122 239.156 327.045 240.778C326.891 244.02 325.993 248.274 324.347 253.107C321.06 262.759 314.944 274.283 306.65 283.93H306.649C297.062 295.085 283.119 303.191 267.382 309.147C251.663 315.097 234.333 318.836 218.16 321.363C201.986 323.891 187.077 325.194 176.129 326.311C170.695 326.865 166.154 327.381 162.975 327.991C161.409 328.292 159.999 328.646 158.938 329.113C158.414 329.343 157.801 329.675 157.294 330.176C156.747 330.716 156.205 331.588 156.278 332.732C156.359 333.997 157.205 334.732 157.614 335.027C158.081 335.364 158.61 335.592 159.062 335.754C159.992 336.088 161.214 336.359 162.584 336.597C165.361 337.078 169.241 337.495 173.794 337.88C182.916 338.65 195.062 339.313 207.15 340.056C219.279 340.801 231.355 341.628 240.456 342.726C245.021 343.276 248.737 343.884 251.307 344.557C252.306 344.818 253.052 345.071 253.576 345.297C253.489 345.411 253.389 345.54 253.267 345.681C252.505 346.557 251.265 347.653 249.557 348.921C246.162 351.442 241.275 354.382 235.66 357.324C224.412 363.218 210.634 368.918 200.785 371.191C172.96 377.614 142.329 372.22 118.246 365.592C106.234 362.286 95.9444 358.701 88.4961 356.173C84.805 354.92 81.7311 353.899 79.5273 353.327C78.4489 353.047 77.4142 352.829 76.5566 352.787C76.1423 352.767 75.5647 352.775 74.9795 352.96C74.3458 353.161 73.4384 353.674 73.0479 354.792L73.0449 354.8C72.6915 355.823 73.0185 356.704 73.2871 357.181C73.5501 357.647 73.898 357.998 74.1592 358.231C74.6961 358.711 75.4063 359.167 76.1357 359.585C77.6324 360.442 79.7599 361.45 82.2246 362.547C87.1326 364.731 93.9033 367.495 100.439 370.321C107.069 373.188 113.571 376.167 118.309 378.917C120.691 380.3 122.498 381.553 123.637 382.627C124.206 383.164 124.517 383.572 124.666 383.843C124.679 383.867 124.688 383.889 124.697 383.908C124.616 384.008 124.453 384.18 124.134 384.41C123.471 384.888 122.426 385.414 120.971 385.937C118.077 386.976 114.024 387.841 109.388 388.418C100.388 389.538 89.711 389.512 81.9355 387.896L81.1924 387.734C74.6409 386.247 66.0097 382.043 58.7314 378.173C55.0831 376.233 51.9837 374.492 49.5586 373.186C48.3876 372.555 47.366 372.022 46.6006 371.673C46.2345 371.506 45.8215 371.332 45.4355 371.223C45.2601 371.173 44.9296 371.089 44.5391 371.086C44.3026 371.084 43.2319 371.1 42.4727 372.032L42.333 372.22C41.849 372.93 41.8543 373.659 41.915 374.066C41.9743 374.463 42.1116 374.767 42.1934 374.929C42.3602 375.259 42.5722 375.531 42.7109 375.699C43.0135 376.066 43.4236 376.477 43.8584 376.891C44.75 377.738 46.0356 378.862 47.5371 380.15C50.5771 382.76 54.6009 386.13 58.6162 389.693C62.6366 393.261 66.5452 396.932 69.3232 400.09C70.7186 401.676 71.7528 403.047 72.376 404.149C72.9301 405.13 72.9652 405.554 72.9775 405.603C72.8555 406.029 72.6258 406.36 71.7812 406.624C70.7233 406.955 68.962 407.061 66.2188 406.753C60.7763 406.141 52.6439 404.053 41.2598 400.792H41.2607C38.872 400.105 36.8431 398.454 34.8994 395.687C32.9319 392.886 31.1891 389.14 29.3213 384.565C25.6411 375.552 21.602 363.597 14.5137 351.676H14.5127C10.654 345.172 7.01476 340.684 4.80664 337.594C3.65826 335.987 2.99072 334.886 2.68066 334.037C2.41441 333.308 2.4851 332.98 2.62305 332.696C2.84772 332.234 3.43701 331.666 5.58203 331.443C7.69662 331.224 10.4762 331.429 13.9463 331.703C20.6155 332.23 29.3974 332.983 37.2949 329.932C44.4061 327.186 49.8205 321.777 53.9482 315.286C58.0734 308.8 61.0039 301.097 63.1143 293.497C67.3319 278.308 68.3934 263.05 68.8994 257.801C71.6045 229.879 88.8227 197.578 113.536 165.338C138.193 133.171 170.07 101.375 201.625 74.5029C233.19 47.6218 264.326 25.7572 287.46 13.4033C299.087 7.19451 308.441 3.52718 314.725 2.68457Z" fill="#F7DE1C" stroke="black" stroke-width="5"/>
</svg>
