<svg width="234" height="195" viewBox="0 0 234 195" fill="none" xmlns="http://www.w3.org/2000/svg">
<path d="M200.9 31.4829C215.524 50.0149 225.61 81.0684 228.635 93.59C231.661 106.112 232.67 118.132 228.635 126.647C224.601 135.162 212.498 149.687 200.9 159.203C189.301 168.719 155.515 195.764 132.822 191.759C110.129 187.754 102.061 178.236 97.5222 168.719C92.9836 159.203 89.9579 119.633 90.4622 106.112C90.9665 92.5902 15.6179 13.074 23.1822 5.06019C30.7464 -2.95363 186.276 12.951 200.9 31.4829Z" fill="#F7DE1C" stroke="black" stroke-width="5"/>
<path d="M158.402 187.126C158.402 187.126 164.072 138.147 155.164 103.732C146.255 69.3174 135.718 49.5065 100.648 8.07324" stroke="black" stroke-width="5"/>
<path d="M4.01786 97.7184C-4.05065 97.2157 22.6763 6.06231 22.6763 6.06231C22.6763 6.06231 23.1806 3.05516 35.2834 2.55429C47.3861 2.05343 98.8229 5.06068 99.8315 8.56662C100.84 12.0726 12.0864 98.2212 4.01786 97.7184Z" fill="#F7DE1C" stroke="black" stroke-width="5"/>
</svg>
