<svg width="403" height="273" viewBox="0 0 403 273" fill="none" xmlns="http://www.w3.org/2000/svg">
<path d="M8.40287 138.861C25.5016 103.221 74.173 103.039 79.8092 103.106C84.2925 103.16 88.6401 103.53 92.8452 104.181C109.171 106.693 123.312 113.341 134.714 121.36C147.465 130.312 156.777 140.956 161.878 149.424C172.058 166.321 190.608 205.091 194.712 236.379C197.14 254.881 166.341 260.347 156.133 264.007C147.316 267.17 125.747 274.907 115.919 265.633C109.374 259.461 114.224 251.57 113.457 228.253C113.322 224.042 112.86 210.027 109.171 195.695C100.821 203.701 85.9542 214.748 65.0301 216.877C57.5761 217.636 34.8411 219.939 18.2511 204.688C0.00612948 187.905 -1.13335 158.746 8.40287 138.861ZM62.5681 176.24C70.2255 175.3 77.2319 168.96 82.7393 160.183C82.5968 160.136 82.468 160.096 82.3459 160.055C64.7385 154.313 43.889 161.587 43.6923 167.302C43.5567 171.371 53.7915 177.321 62.5681 176.24Z" fill="#F7DE1C" stroke="black" stroke-width="5" stroke-miterlimit="10"/>
<path d="M92.9055 104.178C109.181 106.686 123.278 113.323 134.645 121.328C132.427 93.9002 98.8624 49.7982 89.3151 40.023C57.8131 7.77451 34.3573 3.10819 20.1783 2.50479C7.21644 1.94832 80.3764 49.9524 92.9055 104.178Z" fill="#F7DE1C" stroke="black" stroke-width="5" stroke-miterlimit="10"/>
<path d="M62.418 158.001C62.418 158.001 92.6304 156.5 101.191 170C109.751 183.5 111.261 204.505 111.261 204.505" stroke="black" stroke-width="5"/>
<path d="M394.386 138.861C377.287 103.221 328.616 103.039 322.98 103.106C318.497 103.16 314.149 103.53 309.944 104.181C293.618 106.693 279.477 113.341 268.075 121.36C255.324 130.312 246.012 140.956 240.911 149.424C230.731 166.321 212.181 205.091 208.077 236.379C205.649 254.881 236.449 260.347 246.656 264.007C255.473 267.17 277.042 274.907 286.87 265.633C293.415 259.461 288.565 251.57 289.332 228.253C289.467 224.042 289.929 210.027 293.618 195.695C301.968 203.701 316.835 214.748 337.759 216.877C345.213 217.636 367.948 219.939 384.538 204.688C402.783 187.905 403.922 158.746 394.386 138.861ZM340.221 176.24C332.564 175.3 325.557 168.96 320.05 160.183C320.192 160.136 320.321 160.096 320.443 160.055C338.051 154.313 358.9 161.587 359.097 167.302C359.232 171.371 348.998 177.321 340.221 176.24Z" fill="#F7DE1C" stroke="black" stroke-width="5" stroke-miterlimit="10"/>
<path d="M309.884 104.178C293.609 106.686 279.511 113.323 268.145 121.328C270.362 93.9002 303.927 49.7982 313.474 40.023C344.976 7.77451 368.432 3.10819 382.611 2.50479C395.573 1.94832 322.413 49.9524 309.884 104.178Z" fill="#F7DE1C" stroke="black" stroke-width="5" stroke-miterlimit="10"/>
<path d="M342.387 158.5C342.387 158.5 314.795 154.464 305.225 167.278C295.654 180.091 293.544 198.003 293.544 198.003" stroke="black" stroke-width="5"/>
</svg>
